<svg width="161" height="33" viewBox="0 0 161 33" fill="none" xmlns="http://www.w3.org/2000/svg">
<path d="M52.4683 10.1448C53.9494 10.1133 55.4299 10.0901 56.9112 10.0717C57.3322 10.0619 57.7533 10.0522 58.1872 10.0421C59.2903 10.0318 60.3935 10.0845 61.4951 10.1448C62.6234 11.3134 62.6234 11.3134 62.7515 13.3772C62.7513 14.2612 62.745 15.1452 62.7336 16.0292C62.732 16.4945 62.7304 16.9597 62.7288 17.4391C62.7225 18.9276 62.7083 20.416 62.694 21.9045C62.6883 22.9126 62.6831 23.9207 62.6785 24.9289C62.6661 27.4025 62.6466 29.8759 62.6234 32.3494C58.7174 32.379 54.8114 32.3995 50.9054 32.4136C49.5761 32.4195 48.2468 32.4275 46.9176 32.4376C45.0088 32.4518 43.1002 32.4584 41.1914 32.4636C40.2974 32.4726 40.2974 32.4726 39.3855 32.4819C38.8321 32.4819 38.2788 32.482 37.7087 32.4821C37.2213 32.4847 36.734 32.4873 36.2319 32.49C34.9788 32.3494 34.9788 32.3494 33.2863 31.1808C33.0942 29.5462 33.0942 29.5462 33.121 27.4876C33.1265 26.7532 33.1319 26.0188 33.1376 25.2621C33.1517 24.4916 33.1659 23.721 33.1805 22.9271C33.189 22.1442 33.1967 21.3612 33.2037 20.5783C33.2237 18.6585 33.2516 16.7391 33.2863 14.8194C35.1481 14.8194 37.0099 14.8194 38.9281 14.8194C38.9281 18.8689 38.9281 22.9183 38.9281 27.0904C45.0719 27.0904 51.2158 27.0904 57.5459 27.0904C57.5459 23.2338 57.5459 19.3772 57.5459 15.4038C56.0564 15.4038 54.567 15.4038 53.0325 15.4038C52.4683 14.8194 52.4683 14.8194 52.4132 13.7398C52.4315 12.5415 52.4499 11.3431 52.4683 10.1448Z" fill="#FACC15"/>
<path d="M131.1 9.41443C132.067 9.39183 132.067 9.39183 133.053 9.36877C135.084 9.58696 135.716 9.77284 137.095 11.3135C137.302 12.9343 137.371 14.3201 137.335 15.938C137.333 16.388 137.331 16.8381 137.329 17.3018C137.323 18.2518 137.312 19.2017 137.296 20.1516C137.271 21.611 137.261 23.0699 137.254 24.5295C137.247 25.4516 137.238 26.3738 137.229 27.2959C137.225 27.7348 137.221 28.1736 137.216 28.6258C137.161 31.6961 137.161 31.6961 136.53 32.3495C134.289 32.4971 132.041 32.4577 129.796 32.4591C129.162 32.4662 128.528 32.4734 127.875 32.4808C127.27 32.4819 126.665 32.483 126.042 32.4842C125.206 32.4878 125.206 32.4878 124.352 32.4915C122.99 32.3495 122.99 32.3495 121.862 31.1808C121.862 29.831 121.862 28.4812 121.862 27.0905C125.027 27.0905 128.192 27.0905 131.453 27.0905C131.453 23.2339 131.453 19.3773 131.453 15.4038C130.15 15.4038 128.846 15.4038 127.504 15.4038C127.131 15.211 126.759 15.0182 126.375 14.8195C126.375 13.2769 126.375 11.7342 126.375 10.1448C127.964 9.3222 129.329 9.43915 131.1 9.41443Z" fill="#FACC15"/>
<path d="M155.078 9.41435C156.14 9.39176 156.14 9.39176 157.224 9.3687C159.097 9.56044 159.097 9.56044 160.05 10.1506C161.224 11.996 160.997 13.9518 160.955 16.0863C160.953 16.5507 160.95 17.0151 160.948 17.4936C160.938 18.9763 160.917 20.4585 160.896 21.941C160.887 22.9465 160.879 23.9519 160.873 24.9574C160.854 27.4216 160.825 29.8854 160.79 32.3494C158.569 32.4003 156.347 32.4315 154.126 32.459C153.494 32.4737 152.862 32.4884 152.212 32.5035C151.606 32.5092 151.001 32.5148 150.377 32.5206C149.819 32.5298 149.26 32.539 148.685 32.5485C147.25 32.3494 147.25 32.3494 146.217 31.5581C145.302 30.2249 145.395 29.2706 145.557 27.6748C146.121 27.0904 146.121 27.0904 148.151 27.0334C148.991 27.0367 149.83 27.0443 150.67 27.0539C152.148 27.066 153.626 27.078 155.148 27.0904C155.148 23.2338 155.148 19.3772 155.148 15.4038C153.845 15.4038 152.542 15.4038 151.199 15.4038C150.635 14.8194 150.635 14.8194 150.56 13.7603C150.561 13.3385 150.563 12.9167 150.564 12.4821C150.563 12.0603 150.561 11.6385 150.56 11.2039C150.739 8.67632 153.129 9.43912 155.078 9.41435Z" fill="#FACC15"/>
<path d="M138.787 0.211182C142.736 0.211182 142.736 0.211182 143.817 0.904846C144.627 2.30684 144.636 3.25757 144.63 4.88956C144.632 5.48418 144.633 6.0788 144.635 6.69144C144.628 7.33242 144.621 7.9734 144.614 8.6338C144.613 9.2914 144.612 9.949 144.611 10.6265C144.607 12.0166 144.599 13.4067 144.588 14.7967C144.57 16.9332 144.564 19.0695 144.561 21.2061C144.556 22.5543 144.55 23.9026 144.543 25.2508C144.54 26.2158 144.54 26.2158 144.536 27.2003C144.531 27.7912 144.525 28.3822 144.52 28.991C144.516 29.5139 144.512 30.0367 144.508 30.5753C144.429 31.7652 144.429 31.7652 143.865 32.3495C142.189 32.3495 140.513 32.3495 138.787 32.3495C138.787 21.7439 138.787 11.1382 138.787 0.211182Z" fill="#FACC15"/>
<path d="M114.646 9.36182C116.343 9.36125 117.733 9.48426 119.312 10.1489C120.659 11.9758 120.446 13.8859 120.39 16.0864C120.386 16.5508 120.383 17.0152 120.38 17.4937C120.367 18.9764 120.339 20.4584 120.311 21.9409C120.299 22.9464 120.289 23.952 120.279 24.9575C120.254 27.4217 120.216 29.8853 120.17 32.3491C117.218 32.378 114.265 32.3995 111.312 32.4136C110.308 32.4195 109.303 32.4279 108.299 32.438C106.856 32.4521 105.414 32.4582 103.972 32.4634C103.521 32.4694 103.07 32.4757 102.605 32.4819C101.501 32.4822 100.397 32.4206 99.2949 32.3491C98.1668 31.1807 98.1662 31.1802 98.0381 29.063C98.0383 28.1544 98.0453 27.2459 98.0566 26.3374C98.0582 25.8592 98.0599 25.3809 98.0615 24.8882C98.0678 23.3579 98.0814 21.8275 98.0957 20.2974C98.1014 19.2612 98.1067 18.2251 98.1113 17.189C98.1238 14.6461 98.1438 12.1028 98.167 9.56006C100.938 9.51668 103.709 9.48548 106.479 9.46436C107.422 9.45555 108.364 9.4434 109.306 9.42822C110.661 9.40692 112.017 9.39689 113.373 9.38916C113.793 9.38011 114.214 9.37114 114.646 9.36182ZM111.563 14.7622C111.067 14.7641 110.585 14.7662 110.104 14.7681C109.582 14.7731 109.075 14.7778 108.568 14.7827C106.794 14.7919 105.019 14.8029 103.244 14.8198C103.233 16.1948 103.223 17.5698 103.217 18.9448C103.214 19.5164 103.212 20.0717 103.209 20.6265C103.204 21.1956 103.199 21.7479 103.194 22.3003C103.192 22.8416 103.19 23.3677 103.188 23.8931C103.183 24.7643 103.195 25.6366 103.244 26.5063C103.808 27.0906 103.808 27.0904 104.856 27.1567C105.316 27.1536 105.762 27.151 106.208 27.1479C106.945 27.1451 106.945 27.1449 107.668 27.1421C108.19 27.137 108.697 27.1323 109.203 27.1274C110.978 27.1182 112.753 27.1072 114.527 27.0903C114.539 25.7152 114.548 24.3396 114.555 22.9644C114.557 22.393 114.56 21.8383 114.562 21.2837C114.567 20.7146 114.572 20.1622 114.577 19.6099C114.579 19.0686 114.581 18.5425 114.583 18.0171C114.588 17.1458 114.576 16.2736 114.527 15.4038C113.963 14.8196 113.963 14.8197 112.915 14.7534C112.233 14.7581 112.233 14.7576 111.563 14.7622Z" fill="#FACC15"/>
<path d="M28.5625 0C29.901 0.210771 29.9014 0.211196 30.917 0.924805C31.7986 2.27907 31.8081 3.13525 31.8125 4.76367C31.8178 5.33112 31.8236 5.89875 31.8291 6.4834C31.8257 7.09506 31.8219 7.70672 31.8184 8.33691C31.82 8.9658 31.8216 9.59522 31.8232 10.2432C31.8244 11.5732 31.8215 12.9034 31.8145 14.2334C31.8054 16.2726 31.8144 18.3114 31.8252 20.3506C31.8241 21.6416 31.8217 22.9326 31.8184 24.2236C31.8235 25.1411 31.8239 25.1414 31.8291 26.0771C31.8238 26.6445 31.818 27.2123 31.8125 27.7969C31.8112 28.2963 31.81 28.796 31.8086 29.3105C31.5937 30.5966 31.5934 30.5967 30.917 31.6357C29.5404 32.6029 28.6216 32.5611 26.9639 32.5488C26.3571 32.5486 25.7501 32.5481 25.125 32.5479C24.1699 32.5344 24.1698 32.5342 23.1953 32.5205C22.6092 32.5187 22.0228 32.5174 21.4189 32.5156C19.2275 32.5064 17.0361 32.4816 14.8447 32.459C9.94597 32.4228 5.04721 32.3869 0 32.3496V0.210938C4.89876 0.174782 9.79752 0.138813 14.8447 0.101562C16.3903 0.0856043 17.936 0.0701527 19.5283 0.0537109C20.7505 0.0485922 21.9732 0.0437203 23.1953 0.0400391C23.8321 0.0310731 24.4689 0.0219329 25.125 0.0126953C25.7317 0.0124835 26.3388 0.0129135 26.9639 0.0126953C27.4913 0.00880279 28.0191 0.00401047 28.5625 0ZM6.20508 18.3252C6.18671 20.2842 6.16875 22.2441 6.15039 24.2031C6.20546 25.921 6.20582 25.922 6.76953 26.5059C8.42892 26.5629 8.42957 26.5629 14.1035 26.5059V18.3252H6.20508ZM21.3125 6.58105C20.219 6.58395 19.1247 6.58767 18.0312 6.59473C17.2692 6.59977 16.5062 6.6035 15.7441 6.60645C13.505 6.61351 11.2655 6.62528 9.02637 6.63867V14.8193H17.4893V23.584H25.3877C25.3984 21.6551 25.4084 19.7258 25.415 17.7969C25.4173 17.0115 25.42 16.2258 25.4229 15.4404C25.4277 14.6572 25.4328 13.873 25.4375 13.0898C25.4394 12.3316 25.4406 11.5953 25.4424 10.8594C25.4476 9.64732 25.4372 8.43364 25.3877 7.22266C24.824 6.6388 24.8229 6.63857 23.3096 6.57227C22.3018 6.57695 22.3006 6.57647 21.3125 6.58105Z" fill="#FACC15"/>
<path d="M43.3381 9.50342C44.2307 9.50732 45.1232 9.51431 46.0158 9.52396C46.4707 9.5266 46.9256 9.52923 47.3942 9.53195C48.5215 9.53886 49.6487 9.54934 50.776 9.56048C50.776 11.4888 50.776 13.4171 50.776 15.4038C49.1892 15.4195 47.6026 15.4311 46.0158 15.4403C45.563 15.4452 45.1103 15.4501 44.6439 15.4552C43.4908 15.4602 42.3377 15.4344 41.185 15.4038C40.6208 14.8195 40.6208 14.8195 40.5459 13.7604C40.5474 13.3386 40.5488 12.9167 40.5503 12.4821C40.5489 12.0603 40.5474 11.6385 40.5459 11.2039C40.6903 9.16342 41.2816 9.55792 43.3381 9.50342Z" fill="#FACC15"/>
<path d="M69.9575 22.4163H71.6499V17.1565H76.1636C76.157 16.4885 76.1508 15.8203 76.144 15.1321C76.1388 14.261 76.1334 13.3899 76.1284 12.5188C76.1237 12.0778 76.1186 11.6363 76.1138 11.1819C76.1089 10.0571 76.1341 8.93225 76.1636 7.80786C77.6677 6.25004 81.9835 7.08924 84.1499 7.08325C85.3932 7.07759 86.6362 7.05873 87.8794 7.04028C88.6681 7.03647 89.4569 7.03374 90.2456 7.03149C90.9658 7.02603 91.6863 7.02052 92.4282 7.01489C94.2168 7.22316 94.2174 7.22296 95.3013 7.84497C96.2357 9.58179 96.1169 11.3043 96.0747 13.2375C96.0723 13.65 96.0703 14.0626 96.0679 14.4875C96.0584 15.8034 96.0367 17.1191 96.0151 18.4348C96.0066 19.3276 95.9996 20.2207 95.9927 21.1135C95.9755 23.301 95.942 25.4876 95.9097 27.675H86.3188V32.9338C83.98 32.9507 81.6411 32.9608 79.3022 32.97C78.6343 32.9749 77.966 32.9806 77.2778 32.9856C76.6434 32.9875 76.0087 32.9885 75.355 32.9905C74.4731 32.9951 74.4725 32.9956 73.5728 33.0002C72.2144 32.9339 72.214 32.9341 71.6499 32.3499C71.5703 30.7894 71.6259 29.2385 71.6499 27.675C71.2624 27.6886 70.8744 27.7021 70.4751 27.7161C69.9669 27.7266 69.4587 27.7374 68.9351 27.7483C68.4311 27.7618 67.927 27.7753 67.4077 27.7893C66.0084 27.6752 66.0084 27.6747 64.3159 26.5061C64.1124 25.3674 64.1121 25.3669 64.1235 23.9592C64.1237 23.433 64.1244 22.9066 64.1245 22.3645C64.1332 21.7954 64.1419 21.2262 64.1509 20.6399C64.1533 20.0579 64.1552 19.4758 64.1577 18.8762C64.1672 17.0125 64.1889 15.149 64.2104 13.2854C64.2189 12.024 64.226 10.7626 64.2329 9.50122C64.2516 6.40442 64.2812 3.30784 64.3159 0.211182H69.9575V22.4163ZM77.2915 23.0002V27.0911H81.2407V23.0002H77.2915ZM81.8052 13.0667V17.7415H86.8823V22.4163H90.8315V13.0667H81.8052Z" fill="#FACC15"/>
</svg>
