<svg width="493" height="374" viewBox="0 0 493 374" fill="none" xmlns="http://www.w3.org/2000/svg">
<path opacity="0.1" d="M119.24 0.00012207H120.575C120.947 11.938 120.159 54.842 120.726 66.7759C120.788 71.5666 121.023 76.3565 120.943 81.1472C126.124 81.1801 131.301 81.0782 136.482 81.0133C138.969 85.3948 141.384 89.8164 143.817 94.2309C140.227 94.3504 136.677 94.9072 133.116 95.3012C132.067 95.3413 132.06 96.6315 131.587 97.3183C129.974 100.232 127.179 102.835 123.705 103.06C121.254 103.305 118.988 102.181 116.865 101.111C114.807 99.994 113.252 98.1567 112.128 96.1324C110.335 95.8725 108.524 95.9591 106.723 96.1035C103.838 96.2086 100.953 96.3386 98.0675 96.4325C97.9624 96.2407 97.757 95.854 97.6551 95.6622C97.0261 95.6911 95.9991 95.5756 96.3177 94.6754C98.2882 89.9432 101.578 85.9404 103.949 81.4249C109.141 81.2515 114.336 81.3486 119.528 81.2186C119.605 76.3886 119.369 71.5618 119.3 66.7349C118.709 54.8163 119.559 11.9236 119.24 0.00012207ZM123.835 83.125C118.376 83.2405 112.92 83.4427 107.461 83.5879C106.861 83.624 105.686 83.5735 105.766 84.4625C105.632 85.1998 106.572 85.3876 107.118 85.3009C115.976 85.0771 124.83 84.8235 133.68 84.513C134.736 84.6398 134.895 82.9581 133.872 82.8281C130.528 82.9228 127.176 82.9733 123.835 83.125Z" fill="#EAE1EE"/>
<path d="M92.9048 49.3025C94.2134 48.0477 95.8189 46.8297 97.71 46.8153C99.431 46.8771 100.685 48.5034 100.747 50.145C100.971 53.0157 99.9694 55.8175 98.7402 58.3665C96.3613 63.1348 92.7708 67.213 88.6605 70.5684C91.5272 69.1081 94.5681 68.0089 97.6811 67.2058C100.913 66.3633 104.304 65.4559 107.648 66.1612C109.124 66.454 110.577 67.6687 110.457 69.2919C110.161 71.946 108.053 73.9446 105.978 75.4056C100.352 79.2488 92.6224 78.7826 86.8745 75.449C88.017 78.3085 88.7688 81.3894 88.6388 84.484C88.6099 86.0462 87.9231 87.6765 86.5094 88.4612C83.9315 89.9399 80.5658 89.7016 78.0601 88.1868C76.8847 87.4454 75.7357 86.3101 75.6884 84.8354C75.6483 83.0061 76.5485 81.3325 77.5249 79.8465C79.0614 77.5904 80.9124 75.5476 82.9952 73.7833C79.412 71.3354 75.6346 68.9822 72.9949 65.4567C70.9955 62.7304 69.1807 59.7008 68.6351 56.3165C68.4794 55.0585 68.3422 53.4209 69.5096 52.5785C70.6481 51.8267 72.1124 52.3329 73.1939 52.958C75.7028 54.48 77.699 56.6928 79.5283 58.9562C81.835 61.8125 83.4582 65.1534 84.7379 68.577C85.2442 65.0226 85.9598 61.4795 87.1858 58.0961C88.4029 54.7873 90.4064 51.7826 92.9048 49.3025ZM94.1123 50.1378C91.6612 52.499 89.7164 55.4019 88.5265 58.5944C87.0951 62.6004 86.3425 66.8126 85.8908 71.0353C87.2428 69.77 88.7431 68.6781 90.0918 67.4088C93.1142 64.5886 95.7066 61.2701 97.5359 57.5569C98.5629 55.3626 99.4486 52.9869 99.3508 50.5285C99.3219 49.5633 98.8413 48.3879 97.7565 48.2619C96.3139 48.2467 95.1281 49.2271 94.1123 50.1378ZM70.2863 53.7747C69.5489 55.04 70.1667 56.5981 70.4708 57.918C72.199 62.7552 75.5143 66.9924 79.741 69.9137C81.2734 70.9294 82.6799 72.1843 84.4153 72.8526C82.8789 65.8747 79.14 59.2763 73.4643 54.8587C72.5496 54.2561 71.4328 53.327 70.2863 53.7747ZM101.325 67.7923C97.9547 68.5513 94.5889 69.4411 91.4253 70.8508C89.5888 71.6459 87.8285 72.6512 85.8828 73.1719C88.0844 74.5816 90.4633 75.7715 93.034 76.3283C96.2225 76.8378 99.6252 76.9429 102.626 75.5693C105.218 74.4669 107.792 72.6665 108.874 69.965C109.43 68.9059 108.559 67.8027 107.503 67.6118C105.475 67.1231 103.338 67.351 101.325 67.7923ZM84.5132 74.4083C82.651 75.8252 81.0608 77.5719 79.6142 79.3972C78.4757 80.9016 77.3476 82.5536 77.1013 84.4696C77.0251 85.5255 77.8715 86.339 78.6811 86.8774C80.8032 88.2478 83.7574 88.4828 85.9374 87.1197C87.2676 86.2411 87.2893 84.4479 87.2283 83.0238C86.9684 79.9974 86.1941 76.9533 84.7194 74.2888L84.5132 74.4083Z" fill="#EAE1EE"/>
<path opacity="0.1" d="M372.796 54.111C372.742 53.7098 372.952 52.9829 373.498 53.1346C374.224 53.0335 374.127 53.9225 374.268 54.3822C393.928 53.9522 413.589 53.7058 433.25 53.3015C439.27 53.2726 445.293 53.0271 451.313 53.0559C452.347 53.0303 451.963 54.7079 451.001 54.4191C425.4 54.9141 399.792 55.2648 374.192 55.8144C374.232 58.2334 374.3 60.6484 374.297 63.0666C383.939 63.1068 393.581 63.0121 403.22 62.9656C412.375 62.8067 421.528 62.9551 430.683 62.8027C436.468 62.8131 442.253 62.6615 448.041 62.6976C448.756 62.7626 449.704 62.4737 450.196 63.1782C450.318 63.6443 450.054 64.1763 449.516 64.0896C431.92 64.2557 414.32 64.303 396.717 64.3969C389.273 64.5742 381.822 64.3929 374.374 64.5237C374.641 97.6841 375.129 130.841 375.476 164.002C375.421 168.637 375.476 173.272 375.819 177.896C375.779 178.04 375.697 178.33 375.657 178.474L375.465 178.51C375.02 178.03 374.615 177.519 374.322 176.938C374.048 172.393 374.2 167.838 374.055 163.289C373.676 130.371 373.274 97.4562 372.92 64.5381C359.636 64.6721 346.35 64.632 333.067 64.766C332.297 64.7082 330.941 65.0372 331.065 63.8369C331.719 62.9696 332.992 63.6524 333.776 62.9439C337.125 63.6708 340.551 63.1501 343.943 63.248C353.592 63.2985 363.238 63.1469 372.888 63.1397C372.897 60.1309 372.731 57.123 372.796 54.111Z" fill="#EAE1EE"/>
<path opacity="0.1" d="M450.27 56.2657C450.256 55.8028 450.242 54.9571 450.925 54.982C451.858 54.9057 451.609 56.0667 451.717 56.6452C451.768 62.3466 451.731 68.052 451.844 73.7574C455.517 69.1696 459.552 64.7985 464.35 61.3637C466.483 59.8922 468.88 58.5074 471.544 58.4497C473.114 58.3734 474.773 59.2199 475.344 60.7451C476.143 62.8529 475.452 65.1636 474.588 67.1405C472.025 72.7986 467.491 77.1729 463.193 81.5151C460.839 83.9229 458.214 86.0274 455.557 88.0774C462.043 85.4169 468.782 83.2907 475.724 82.2172C478.887 81.7975 482.195 81.5304 485.294 82.4811C487.109 83.0195 488.866 84.3104 489.365 86.2192C489.903 87.9506 489.007 89.7262 487.857 90.9882C485.522 93.5694 482.293 95.1171 479.086 96.3318C470.474 99.3903 461.172 100.135 452.101 99.5315C452.05 108.61 452.321 117.688 452.292 126.767C452.545 149.706 452.697 172.642 452.925 195.583C463.475 195.218 474.032 194.968 484.585 194.632C485.128 194.636 485.746 194.469 486.234 194.824C486.495 195.239 486.397 195.851 485.898 196.017C474.929 196.353 463.909 196.639 452.922 196.993C452.886 199.249 453.124 201.502 452.973 203.758C452.984 204.531 451.563 204.629 451.646 203.775C451.545 201.523 451.537 199.263 451.512 197.011C450.578 197.112 449.653 197.011 448.764 196.74C437.679 196.935 426.59 197.069 415.509 197.357C415.133 200.069 415.622 202.857 416.894 205.283C418.384 208.089 420.181 210.717 421.601 213.562C423.532 217.275 425.712 221.165 425.6 225.482C425.6 228.783 423.627 231.625 423.188 234.839C422.672 237.558 423.651 240.248 424.646 242.739C426.091 246.513 428.088 250.1 428.959 254.077C430.047 258.983 430.579 264.351 428.275 269.012C426.258 264.912 424.345 260.766 422.295 256.684C421.731 255.49 420.886 254.475 420.144 253.397C419.179 252.009 418.492 250.461 417.646 249.004C415.025 245.356 411.254 242.703 407.259 240.74C407.176 237.717 407.682 234.666 408.886 231.885C412.419 231.885 415.643 230.103 419.107 229.607C420.04 229.56 420.083 228.031 419.136 227.958C415.882 228.328 412.892 229.817 409.671 230.381C411.706 227.26 414.215 224.209 414.769 220.406C415.532 217.134 414.356 213.891 414.092 210.641C413.922 210.07 414.074 209.126 413.322 208.963C412.762 208.743 412.071 209.281 412.237 209.885C412.48 212.188 412.924 214.466 413.239 216.762C413.615 220.323 412.165 223.772 410.122 226.614C408.434 228.931 406.937 231.426 406.229 234.228C404.258 231.668 402.317 229.069 400.617 226.321C400.144 225.695 400.574 224.444 399.594 224.307C398.795 224.437 397.921 225.334 398.51 226.14C400.639 229.709 403.21 232.995 405.805 236.235C405.654 237.471 405.541 238.719 405.494 239.965C401.463 238.374 397.392 236.892 393.426 235.15C391.763 234.452 390.092 233.772 388.411 233.136C389 229.148 389.727 224.962 392.204 221.657C393.921 219.227 396.463 217.539 399.11 216.263C402.324 214.813 404.724 211.885 405.982 208.637C407.291 205.055 406.467 201.222 406.467 197.52C398.871 197.549 391.275 197.763 383.679 197.889C383.242 197.846 382.385 197.958 382.414 197.289C382.154 196.512 383.199 196.444 383.705 196.473C391.352 196.321 398.994 196.169 406.644 196.071C407.35 192.691 409.497 189.864 411.771 187.365C412.892 186.273 414.045 185.106 415.531 184.535C416.532 184.083 417.682 184.799 418.08 185.742C418.568 186.852 418.102 188.063 417.813 189.158C417.043 191.382 416.327 193.627 415.806 195.919C427.701 195.633 439.595 195.492 451.494 195.261C451.252 163.279 450.883 131.297 450.684 99.3149C448.92 98.957 447.185 98.4868 445.456 97.9878C447.365 100.753 448.656 104.184 447.991 107.576C447.702 108.653 447.112 109.918 445.919 110.186C444.892 110.393 444.043 109.626 443.447 108.903C441.635 106.697 441.056 103.802 440.724 101.039C439.368 103.335 437.611 105.356 435.84 107.333C433.649 109.705 431.226 111.928 428.374 113.479C425.721 114.936 421.83 114.184 420.42 111.353C419.274 109.318 419.968 106.816 421.229 105.011C423.077 102.119 426.016 100.102 429.172 98.8543C432.228 97.6356 435.376 96.6487 438.565 95.8392C435.973 94.8739 433.467 93.5685 431.45 91.6486C427.412 87.7621 423.789 83.1487 422.314 77.6495C421.844 75.7945 421.692 73.6041 422.896 71.9874C423.869 70.7253 425.669 70.6138 427.058 71.1923C430.721 72.5515 433.83 75.2377 435.887 78.5457C438.393 82.5517 440.627 86.8033 441.845 91.391C443.833 85.7145 446.917 80.5122 450.388 75.6276C450.544 71.4659 450.175 67.2938 450.406 63.1329C450.293 60.8462 450.347 58.554 450.27 56.2657ZM464.331 63.1497C459.533 66.8084 455.474 71.3423 451.84 76.1363C452.042 80.3662 451.844 84.6073 451.967 88.8412C455.575 86.3355 459.078 83.6493 462.166 80.5114C466.302 76.328 470.683 72.1383 473.203 66.7225C473.923 65.0633 474.657 63.1505 474.039 61.3461C473.648 60.1819 472.282 59.7374 471.165 59.889C468.594 60.1779 466.367 61.6566 464.331 63.1497ZM423.915 73.0232C423.105 74.4185 423.383 76.1323 423.788 77.615C425.278 82.7347 428.697 87.0183 432.49 90.6561C434.851 92.901 437.927 94.1446 440.957 95.2045C440.559 89.7021 437.898 84.7164 435.14 80.0597C433.184 76.6538 430.129 73.8087 426.398 72.4784C425.556 72.1487 424.439 72.1808 423.915 73.0232ZM442.505 94.0219C445.108 92.4926 447.877 91.2811 450.506 89.7992C450.524 85.8766 450.538 81.954 450.484 78.0314C447.115 82.9545 444.067 88.2226 442.505 94.0219ZM474.385 83.8804C466.627 85.3117 459.114 87.8937 451.999 91.2811C452.053 93.5517 451.944 95.8255 452.114 98.0889C460.527 98.7292 469.117 98.0167 477.187 95.4749C480.47 94.3653 483.789 92.9588 486.323 90.5253C487.35 89.4839 488.493 88.0268 487.946 86.4727C487.404 84.7918 485.636 83.9887 484.045 83.6164C480.857 82.9224 477.56 83.3452 474.385 83.8804ZM443.419 95.3337C445.462 96.9568 448.206 97.1558 450.643 97.8394C450.607 95.8688 450.596 93.8983 450.588 91.9246C448.192 93.0527 445.802 94.1912 443.419 95.3337ZM432.508 99.1448C429.602 100.143 426.63 101.303 424.378 103.465C423.026 104.807 421.749 106.394 421.329 108.292C420.867 110.342 422.498 112.45 424.544 112.699C426.915 113.187 428.936 111.528 430.712 110.205C433.912 107.613 436.648 104.475 439.006 101.109C439.779 99.7818 440.983 98.5061 440.784 96.8501C437.957 97.3475 435.223 98.2478 432.508 99.1448ZM442.057 98.9169C442.042 101.643 442.422 104.463 443.771 106.874C444.215 107.623 444.74 108.375 445.517 108.812C446.399 108.472 446.595 107.345 446.71 106.513C447.018 102.984 445.145 99.7481 442.968 97.1309C442.646 97.7166 442.281 98.2879 442.057 98.9169Z" fill="#EAE1EE"/>
<path opacity="0.1" d="M290.863 183.55C290.674 172.434 290.701 161.315 290.608 150.2L289.184 149.78C289.248 155.971 289.288 162.164 289.268 168.358C289.344 175.73 289.448 183.109 289.452 190.484C289.923 190.546 290.393 190.633 290.869 190.719C290.848 188.33 290.863 185.94 290.863 183.55Z" fill="#EAE1EE"/>
<path opacity="0.1" d="M288.723 78.5736C288.766 81.5358 288.691 84.4996 288.732 87.4602H290.163C290.137 84.5261 290.15 81.592 290.125 78.6602C289.992 78.1508 289.974 77.2754 289.326 77.1743C286.192 77.0588 283.061 77.3548 279.926 77.3476C270.252 77.6076 260.573 77.9004 250.898 78.1106C249.527 71.8163 244.596 66.4543 238.396 64.6651C233.045 63.0059 226.957 64.065 222.459 67.3987C218.649 70.1643 216.042 74.4664 215.272 79.1015C212.333 79.1737 209.39 79.1954 206.454 79.3727C205.821 79.3904 205.724 80.2111 206.096 80.6019C206.57 80.8257 207.112 80.7359 207.626 80.7463C210.117 80.6267 212.611 80.5369 215.11 80.5545C214.697 85.4464 216.372 90.4714 219.665 94.1156C223.144 98.0454 228.4 100.32 233.65 100.135C239.511 100.052 245.201 96.8563 248.365 91.9284C250.762 88.3059 251.709 83.8192 251.152 79.5276C263.676 79.2604 276.199 78.8159 288.723 78.5736ZM224.759 67.6041C229.572 64.7406 235.855 64.5817 240.812 67.1772C245.121 69.3468 248.314 73.49 249.446 78.1684C238.538 78.4757 227.626 78.7429 216.722 79.0574C217.594 74.318 220.573 70.0087 224.759 67.6041ZM246.893 91.5489C243.877 95.9272 238.649 98.7691 233.309 98.6824C228.371 98.8485 223.486 96.4913 220.348 92.7099C217.525 89.3513 216.126 84.8502 216.545 80.4823C227.605 80.1646 238.668 79.8894 249.724 79.5821C250.291 83.7438 249.323 88.1069 246.893 91.5489Z" fill="#EAE1EE"/>
<path opacity="0.1" d="M204.051 78.9311C204.536 78.7033 205.371 78.5981 205.417 79.3395C205.345 89.481 205.345 99.6329 205.204 109.778C205.226 123.27 204.951 136.756 204.998 150.248C204.864 159.644 204.792 169.044 204.817 178.444C204.644 188.044 204.637 197.646 204.622 207.248C224.308 207.064 243.998 206.814 263.684 206.612C264.526 206.431 264.855 207.812 264.013 207.957C254.746 208.254 245.466 208.12 236.196 208.369C228.596 208.304 221 208.611 213.404 208.554C210.454 208.659 207.499 208.586 204.553 208.731C204.546 216.598 204.402 224.461 204.455 232.328C204.34 240.86 204.256 249.396 204.271 257.932C204.057 257.932 203.623 257.936 203.407 257.936C203.273 257.814 202.998 257.564 202.864 257.437C202.814 247.99 202.984 238.543 203.042 229.096C202.998 222.303 203.125 215.517 203.143 208.727C196.798 208.665 190.456 208.919 184.111 208.904C183.175 209.135 182.864 207.657 183.79 207.531C190.247 207.437 196.707 207.281 203.168 207.314C203.392 171.073 203.642 134.832 203.881 98.5915C204.069 92.0404 203.79 85.479 204.051 78.9311Z" fill="#EAE1EE"/>
<path opacity="0.1" d="M85.8229 93.2157C86.6364 93.2012 87.4717 93.0528 88.2708 93.263C88.8966 93.7332 88.3831 94.6944 87.6417 94.5468C58.7 95.4903 29.7559 96.4017 0.810102 97.3092C-0.321187 97.5154 -0.231325 95.715 0.853429 95.9067C29.1766 94.9977 57.4997 94.0902 85.8229 93.2157Z" fill="#EAE1EE"/>
<path opacity="0.1" d="M289.599 202.64C289.986 200.777 290.409 198.919 290.857 197.072C291.129 210.692 290.98 224.318 291.215 237.937C290.691 236.788 290.181 235.631 289.725 234.452C289.715 227.724 289.584 220.992 289.631 214.26C289.686 210.388 289.422 206.509 289.599 202.64Z" fill="#EAE1EE"/>
<path d="M354.738 205.909C356.766 205.634 358.816 205.529 360.837 205.157C360.028 206.65 359.832 208.921 357.964 209.485C356.969 209.864 355.563 210.132 354.847 209.12C354.564 208.07 354.705 206.975 354.738 205.909Z" fill="#EAE1EE"/>
<path d="M36.7077 207.144C37.4667 206.179 38.5772 205.246 39.9002 205.572C41.1294 205.641 42.0184 206.544 43.067 207.051C53.3096 206.989 63.5554 206.974 73.802 206.888C73.8309 207.351 73.8638 207.814 73.8999 208.28C64.0512 208.435 54.1994 208.366 44.3508 208.472C48.9858 213.732 51.5132 220.406 53.5559 227.011C54.5757 230.645 55.3315 234.347 56.0327 238.053C56.8856 242.359 56.9185 246.766 57.034 251.137C57.1536 260.975 55.8915 270.773 54.2395 280.454C53.3208 285.56 52.1791 290.693 50.0489 295.448C50.6491 295.437 51.2492 295.43 51.8534 295.426C54.7129 292.465 58.191 290.086 62.0631 288.661C63.9357 291.984 66.3114 295.075 69.3266 297.443C68.907 299.085 67.815 300.455 67.4283 302.107C67.1932 303.01 66.9942 303.926 66.7703 304.836C65.2122 304.366 63.5747 303.932 61.9363 304.153C60.8443 304.326 59.8173 305.284 59.8574 306.445C59.778 307.613 60.7681 308.665 61.893 308.824C63.0243 308.976 64.1668 308.831 65.2989 308.77C64.2286 310.722 62.6664 312.342 60.8483 313.607C55.6604 313.574 50.4758 313.722 45.2879 313.712C44.3877 312.79 43.5958 311.774 42.8295 310.743C49.7312 310.986 55.6067 306.466 60.2161 301.806C60.8596 300.826 59.6015 299.597 58.6251 300.222C57.7425 301.278 57.0846 302.525 56.0183 303.432C52.2329 306.842 47.3234 309.184 42.1708 309.314C40.6448 305.869 39.4886 302.246 39.0867 298.486C38.4608 293.93 38.8989 289.321 38.5403 284.748C38.3052 281.512 38.3485 278.25 37.8174 275.044C36.711 269.19 34.1587 263.511 30.0227 259.169C27.087 256.19 23.8728 253.338 19.9173 251.812C20.8898 253.413 22.6613 254.202 24.0245 255.41C26.8407 257.886 29.8743 260.254 31.8304 263.519C33.9854 266.834 35.0156 270.688 35.9881 274.474C36.7471 277.721 36.7615 281.079 36.8233 284.398C36.8233 290.978 35.5941 297.778 37.7347 304.171C38.9101 307.548 40.1104 311.087 42.6298 313.73C35.4168 313.874 28.2046 313.712 20.9949 313.856C18.5221 312.418 16.3205 310.566 14.2127 308.643C12.2928 306.889 10.7025 304.752 9.69 302.348C9.38591 301.788 9.52712 300.971 10.2211 300.808C12.7084 300.978 15.2028 301.141 17.6868 301.43C18.352 302.992 18.9345 304.589 19.5274 306.18C20.0152 307.369 22.1518 306.69 21.6102 305.381C20.8256 304.21 20.2872 302.909 19.7336 301.622C23.783 301.904 27.7601 302.995 31.3971 304.803C29.5606 302.258 27.789 299.661 26.1948 296.965C22.3773 297.059 18.5558 297.005 14.7415 297.084C14.6364 297.565 14.0186 298.266 13.5444 297.699C13.0855 297.425 13.3133 296.78 13.2339 296.354C13.2732 288.885 13.1577 281.416 13.0534 273.95C13.1007 266.448 12.9451 258.946 12.8801 251.444C11.5025 250.016 9.92989 248.798 8.53062 247.394C8.02836 246.935 8.2482 246.021 8.88124 245.793C10.1393 245.283 11.5418 245.424 12.8728 245.341C12.6923 233.154 12.714 220.959 12.5222 208.775C12.7389 207.762 14.1309 207.668 14.9228 207.253C22.1815 207.202 29.445 207.094 36.7077 207.144ZM39.1918 206.783C38.2442 207.227 39.7012 207.94 40.0888 207.314C40.3271 206.823 39.5207 206.634 39.1918 206.783ZM15.5871 208.674C15.1426 209.108 14.5714 209.154 13.9857 209.032C14.0796 221.161 14.1413 233.295 14.2898 245.428C18.1763 245.569 22.0411 246.241 25.7358 247.456C28.6026 248.476 31.2423 250.041 33.715 251.794C39.3659 255.551 43.9753 260.984 46.3397 267.384C48.1217 272.507 49.1632 277.886 49.3693 283.31C47.1966 285.179 45.5045 287.511 43.6608 289.688C42.9916 290.407 43.1224 291.723 43.9937 292.222C44.764 292.786 45.8736 292.4 46.3438 291.633C47.3491 290.158 48.3825 288.701 49.5178 287.324C49.6662 289.511 49.33 291.688 49.395 293.875C50.4036 290.737 51.3944 287.581 52.0267 284.341C51.4699 273.401 51.1914 262.149 47.1605 251.798C44.3187 243.732 41.3508 235.71 38.444 227.666C36.5673 221.513 34.9049 214.972 36.1662 208.526C29.3038 208.551 22.4455 208.598 15.5871 208.674ZM37.6986 208.547C36.2199 214.617 37.9658 220.872 39.6435 226.718C42.2214 234.011 44.9653 241.248 47.5248 248.548C48.4828 251.339 49.6221 254.076 50.3265 256.947C51.6103 261.549 52.1382 266.311 52.7704 271.033C52.5321 267.067 52.5755 263.086 52.2024 259.127C51.4362 250.829 50.2503 242.528 47.8457 234.531C46.6021 230.508 45.5029 226.425 43.822 222.553C43.3519 221.356 42.7629 220.203 42.3834 218.977C42.1299 218.211 43.0919 218.001 43.5476 217.694C44.155 218.037 44.1293 218.634 43.9961 219.234C44.8562 221.378 45.8367 223.478 46.5772 225.67C48.6665 232.011 50.6298 238.414 51.8125 244.998C53.0456 252.648 54.0614 260.374 53.9635 268.143C54.0028 269.495 53.783 270.877 54.1408 272.207C54.9793 265.219 55.7463 258.198 55.6195 251.151C55.4968 246.777 55.4607 242.365 54.5821 238.059C53.6418 233.323 52.7343 228.551 51.0647 224.006C49.1415 218.406 46.6535 212.787 42.3875 208.561C40.8261 208.537 39.2608 208.551 37.6986 208.547ZM14.3138 252.861C14.4623 262.529 14.4623 272.193 14.5594 281.861C14.6966 286.449 14.6284 291.036 14.65 295.625C18.2477 295.625 21.8445 295.647 25.4422 295.527C23.1242 291.007 21.3639 286.163 20.6081 281.131C19.9534 276.561 21.2011 272.045 21.3856 267.497C22.4415 268.791 23.2366 270.436 24.7048 271.314C26.2309 272.109 27.8428 270.125 26.9426 268.726C25.0153 265.895 22.5105 263.531 19.943 261.296C18.3343 258.331 16.7401 255.265 14.3138 252.861ZM53.0424 278.607C53.1796 277.877 53.3497 277.154 53.4003 276.412C52.8547 277.005 53.1331 277.877 53.0424 278.607ZM49.0436 296.857C48.9425 297.725 48.8374 298.596 48.7179 299.464C49.2891 298.542 49.9398 297.675 50.6266 296.84C50.0995 296.843 49.5715 296.846 49.0436 296.857ZM25.4318 308.571C25.0996 309.71 26.5165 310.235 27.2394 310.806C29.1626 311.749 31.2414 312.531 33.3997 312.642C34.1844 312.638 34.604 311.847 34.3256 311.156C33.776 310.397 32.7386 310.676 31.9435 310.513C30.2442 310.227 28.5272 309.783 27.0412 308.883C26.5454 308.672 25.9669 308.159 25.4318 308.571Z" fill="#EAE1EE"/>
<path d="M309.439 207.307C316.019 206.436 322.827 206.801 329.179 208.793C331.988 209.751 334.953 211.035 336.703 213.558C337.831 215.16 337.585 217.449 336.251 218.851C333.984 221.321 330.618 222.344 327.448 223.071C321.327 224.304 314.949 224.217 308.839 222.984C305.433 222.214 301.948 221.14 299.211 218.888C297.863 217.764 296.735 216.068 297.063 214.236C297.389 212.425 298.871 211.105 300.371 210.19C303.123 208.526 306.309 207.835 309.439 207.307ZM309.415 208.765C307.574 209.008 305.766 209.452 304.016 210.067C301.974 210.826 299.693 211.812 298.67 213.866C297.99 215.367 299.013 216.929 300.173 217.84C303.265 220.276 307.212 221.234 311.012 221.928C317.245 222.886 323.756 222.817 329.823 220.949C332.003 220.186 334.414 219.242 335.665 217.17C336.371 215.956 335.807 214.47 334.873 213.562C333.164 211.834 330.85 210.883 328.586 210.113C322.416 208.193 315.796 207.861 309.415 208.765Z" fill="#EAE1EE"/>
<path d="M160.586 212.868C161.295 212.578 161.877 213.204 162.473 213.478C163.663 214.266 165.134 214.23 166.472 214.581C166.718 215.397 165.601 215.572 165.091 215.864C163.826 216.258 162.423 217.245 161.1 216.649C160.463 215.586 160.214 214.032 160.586 212.868Z" fill="#EAE1EE"/>
<path d="M271.729 258.093L271.765 257.98C271.787 259.701 270.88 261.317 271.139 263.053C271.241 264.166 270.814 265.233 270.583 266.307C267.126 280.227 263.659 294.145 260.213 308.068L259.935 308.011C258.883 307.761 257.805 307.696 256.732 307.732C247.592 307.725 238.456 307.888 229.316 307.826C214.269 308.035 199.222 307.982 184.174 308.108C187.836 291.853 191.517 275.602 195.172 259.348C220.56 259.351 245.947 259.333 271.334 259.351C271.462 258.924 271.592 258.508 271.729 258.093Z" fill="#EAE1EE"/>
<path d="M231.847 288.466C234.841 288.466 237.269 286.038 237.269 283.044C237.269 280.05 234.841 277.623 231.847 277.623C228.853 277.623 226.426 280.05 226.426 283.044C226.426 286.038 228.853 288.466 231.847 288.466Z" fill="#60A2D8"/>
<path opacity="0.1" d="M290.102 289.381C290.575 289.75 291.067 290.1 291.58 290.418C291.58 297.696 291.577 304.974 291.671 312.252C291.316 312.252 290.608 312.252 290.254 312.252C290.116 304.627 290.243 297.002 290.102 289.381Z" fill="#EAE1EE"/>
<path d="M108.393 300.343C108.892 299.92 109.666 300.729 109.276 301.232C108.827 301.481 108.162 300.787 108.393 300.343Z" fill="#EAE1EE"/>
<path d="M9.88111 334.83C8.948 335.047 8.72014 334.093 9.03145 333.428C115.01 333.344 220.988 333.511 326.967 333.497C381.668 333.5 436.369 333.493 491.074 333.507C492.405 333.164 492.387 335.261 491.089 334.906C417.939 334.918 344.784 334.903 271.633 334.906C238.965 334.873 206.295 334.979 173.63 334.834C119.048 334.841 64.463 334.812 9.88111 334.83Z" fill="#EAE1EE"/>
<path d="M475.08 288.443H454.169C452.637 288.443 451.395 287.201 451.395 285.669V285.195C451.395 283.663 452.637 282.421 454.169 282.421H475.08C476.613 282.421 477.855 283.663 477.855 285.195V285.669C477.855 287.2 476.613 288.443 475.08 288.443Z" fill="#EAE1EE"/>
<path d="M454.023 288.443L456.656 311.076H472.658L475.29 288.443H454.023Z" fill="#EAE1EE"/>
<path d="M464.836 288.443L455.34 299.759L454.023 288.443H464.836Z" fill="#60A2D8"/>
<path d="M70.4317 133.648C70.1131 132.585 70.8617 130.698 72.1776 131.323C74.0719 134.411 75.7784 137.622 77.5572 140.778C78.1758 142.3 79.0215 143.703 79.8206 145.135L80.0268 145.095C79.3945 142.658 78.3924 140.344 77.5716 137.968C76.953 136.392 76.4363 134.566 77.0654 132.922C77.3333 132.075 78.4751 131.801 79.1225 132.39C81.5705 138.678 84.1259 144.933 86.3315 151.314C85.8653 152.503 85.2684 153.685 84.2671 154.513C82.6544 155.894 80.5435 156.827 79.5454 158.808C78.5617 160.854 78.5802 163.27 79.0648 165.45C79.1916 166.097 79.8527 166.213 80.363 165.865C80.3918 163.823 79.7949 161.672 80.6959 159.727C81.6395 157.568 84.0545 156.78 85.5837 155.146C86.3427 154.419 86.8418 153.483 87.2397 152.525C87.5583 151.679 88.2844 150.999 88.375 150.07C88.6318 147.883 88.4978 145.403 89.995 143.606C90.5478 142.792 91.9254 142.691 92.4284 143.61C93.0791 144.864 93.1297 146.332 93.1008 147.72C92.9925 150.872 92.6956 154.018 92.4605 157.163C92.3843 159.626 91.1623 161.896 91.2891 164.384C90.9923 167.468 91.2996 170.565 91.0653 173.654C91.0468 174.616 91.1415 175.581 91.0837 176.546C89.6957 177.66 87.8479 177.953 86.1309 178.155C83.2818 178.375 80.3212 177.999 77.7145 176.799C77.4762 176.187 77.3526 175.544 77.1937 174.915C76.5102 172.634 76.0552 170.251 75.021 168.096C76.4997 168.859 77.7907 170.424 79.5333 170.41C80.0613 169.344 78.7671 168.917 78.0835 168.443C76.4604 167.569 75.086 166.332 73.5495 165.327C72.1719 164.358 71.5646 162.684 70.8778 161.216C68.9185 156.545 67.0852 151.823 65.3786 147.055C64.8186 145.29 64.1815 143.483 64.1895 141.617C64.2874 140.583 65.6281 140.659 66.1817 141.274C68.0255 143.494 69.1648 146.202 70.9179 148.49C71.3303 149.058 71.9337 149.434 72.5667 149.716C70.8208 145.671 68.5029 141.864 67.0715 137.677C66.7755 136.9 66.7097 135.776 67.516 135.276C68.3625 134.691 69.4576 135.334 69.9599 136.076C72.1222 139.803 73.7052 143.845 76.048 147.471C75.549 145.168 74.5621 143.006 73.4156 140.959C72.1021 138.662 71.3287 136.121 70.4317 133.648Z" fill="#E06A6D"/>
<path d="M270.712 178.875C270.466 177.852 270.763 176.337 271.97 176.098C272.618 175.867 272.859 176.593 273.04 177.045C274.216 180.18 275.51 183.272 276.667 186.417C277.097 188.061 277.716 189.652 278.413 191.207C278.413 187.259 276.305 183.521 276.876 179.555C276.992 178.384 278.355 177.281 279.378 178.279C280.889 184.891 282.697 191.467 283.821 198.16C283.196 199.414 282.245 200.514 281.012 201.196C279.277 202.187 277.231 202.885 276.063 204.617C274.858 206.486 274.526 208.822 274.707 211.005C274.635 211.894 275.545 211.631 276.099 211.543C276.048 209.465 276.048 207.216 277.249 205.419C278.499 203.644 280.752 203.16 282.419 201.905C283.359 201.269 284.056 200.361 284.632 199.396C285.196 198.46 286.132 197.701 286.233 196.544C286.747 194.357 287.133 191.493 289.455 190.485C289.925 190.546 290.395 190.633 290.871 190.72C291.602 192.787 291.208 194.975 290.857 197.072C290.408 198.919 289.986 200.778 289.599 202.639C289.172 204.78 288.63 206.898 287.686 208.876C286.446 212.729 286.2 216.804 285.499 220.77C286.222 225.506 288.041 229.993 289.726 234.451C290.181 235.629 290.691 236.786 291.216 237.936C291.736 239.064 292.145 240.272 292.918 241.263C293.504 242.018 294.162 242.716 294.809 243.425C292.304 246.621 288.475 248.392 284.795 249.875C282.162 250.931 279.339 251.531 276.497 251.444C276.048 251.256 275.597 251.079 275.203 250.811C274.744 249.738 274.715 248.541 274.577 247.402C273.442 237.21 272.317 227.012 271.067 216.837C270.897 215.5 270.709 214.154 270.279 212.871C271.237 214.039 272.412 215.037 273.673 215.872C274.1 216.186 274.83 215.955 274.711 215.322C274.392 214.657 273.731 214.263 273.192 213.796C271.67 212.654 270.441 211.194 269.042 209.913C268.225 209.092 267.885 207.935 267.52 206.869C266.521 203.467 265.77 199.999 264.949 196.554C264.197 192.957 263.13 189.36 263.225 185.654C263.297 184.428 264.942 184.504 265.409 185.411C266.851 187.848 267.625 190.614 268.992 193.09C269.314 193.705 269.834 194.186 270.471 194.471C269.263 190.223 267.516 186.12 266.707 181.766C266.598 181.025 266.616 180.045 267.369 179.637C268.345 178.979 269.48 179.941 269.874 180.834C271.357 184.696 272.47 188.683 274.021 192.526C274.086 192.501 274.216 192.454 274.278 192.433C273.862 190.111 273.312 187.816 272.408 185.632C271.558 183.459 271.218 181.142 270.712 178.875Z" fill="#E06A6D"/>
<path d="M349.431 190.095C350.093 188.139 352.005 186.693 354.081 186.643C355.737 186.426 357.122 187.699 358.759 187.666C359.993 187.623 361.215 187.416 362.447 187.304C362.566 189.357 362.428 191.809 364.204 193.24C365.347 194.347 367.006 194.174 368.452 194.434C369.074 195.482 369.136 197.351 370.719 197.381C371.945 197.138 372.661 195.916 373.607 195.186C374.746 195.877 376.034 196.694 376.319 198.107C376.558 199.289 376.518 200.895 375.267 201.502C374.497 202.033 373.217 202.095 372.957 203.144C372.698 204.565 372.206 206.332 373.413 207.464C373.453 212.407 373.428 217.352 373.344 222.295C372.245 223.531 371.837 225.173 371.063 226.601C369.58 229.414 368.149 232.501 365.351 234.251C362.024 236.243 357.657 235.734 354.41 233.821C352.581 232.69 352.071 230.455 351.55 228.524C351.562 226.778 351.749 225.035 351.923 223.296C354.139 223.101 356.044 221.856 357.744 220.505C361.276 217.818 364.403 214.546 366.721 210.75C363.738 212.337 360.701 213.863 357.469 214.864C355.806 215.349 353.948 215.753 352.317 214.951C351.038 214.098 350.119 212.706 349.776 211.209C348.818 209.09 348.214 206.813 348.055 204.495L348.264 204.159C349.001 202.969 348.984 201.504 349.052 200.157C348.979 196.812 348.303 193.346 349.431 190.095ZM351.655 192.011C350.975 192.199 350.32 192.554 349.876 193.11C349.659 193.577 349.793 194.087 350.378 194.133C351.105 193.808 351.749 193.204 352.594 193.226C353.198 193.106 354.08 193.385 354.282 192.564C353.86 191.505 352.515 191.889 351.655 192.011ZM358.256 193.103C359.193 192.998 360.126 193.129 360.964 193.581C361.466 194.003 362.472 193.7 362.096 192.923C361.279 192.033 359.94 191.592 358.755 191.835C358.086 191.917 358.162 192.615 358.256 193.103ZM355.592 195.66C355.133 196.57 355.625 197.756 355.151 198.715C354.846 199.796 353.802 200.541 353.618 201.643C353.856 202.836 355.227 203.274 356.239 203.639C356.865 203.936 357.642 203.411 357.509 202.698C356.753 202.221 355.86 202.029 355.061 201.654C356.323 199.904 357.176 197.688 356.453 195.54C356.239 195.569 355.805 195.627 355.592 195.66ZM359.001 195.634C358.982 196.816 358.542 198.197 359.348 199.217C359.829 199.897 360.918 199.47 360.961 198.689C361.394 197.388 360.758 195.099 359.001 195.634ZM352.001 195.956C351.159 196.762 351.636 198.862 352.974 198.776C353.925 198.389 353.892 197.052 353.617 196.234C353.401 195.518 352.443 195.348 352.001 195.956ZM354.739 205.909C354.706 206.976 354.566 208.072 354.847 209.119C355.563 210.132 356.969 209.864 357.964 209.484C359.833 208.92 360.028 206.65 360.837 205.157C358.817 205.53 356.767 205.634 354.739 205.909Z" fill="#E06A6D"/>
<path d="M155.519 196.848C158.137 195.076 161.488 194.906 164.532 195.311C165.678 195.506 166.969 195.688 167.815 196.581C168.857 197.716 169.518 199.195 170.787 200.124C171.691 200.836 172.816 201.147 173.896 201.48C174.374 205.822 174.449 210.225 174.103 214.579C173.354 217.843 171.586 220.862 169.251 223.245C167.88 224.745 165.679 224.207 164.056 223.48C160.7 221.979 157.692 219.81 154.8 217.569C156.575 222.229 159.663 226.297 163.166 229.8C164.304 230.993 165.747 231.831 167.309 232.337C167.273 232.844 167.244 233.353 167.211 233.863C167.11 235.162 166.973 236.459 166.875 237.757C166.835 238.343 166.813 238.933 166.781 239.521C166.658 240.609 166.785 241.883 165.96 242.736C164.962 243.813 163.809 244.735 162.681 245.667C160.187 246.712 157.29 246.625 154.93 245.269C151.738 243.447 148.636 241.086 146.918 237.749C146.144 236.237 145.135 234.643 145.486 232.869C145.551 232.402 145.634 231.943 145.714 231.484C145.985 229.933 146.22 228.378 146.444 226.824C146.57 225.935 146.754 225.049 147.12 224.224C148.606 220.981 149.777 217.503 149.85 213.902C149.897 212.018 148.964 210.337 148.093 208.736C147.246 207.21 147.135 205.37 147.5 203.692C147.626 202.958 148.205 202.166 149.047 202.341C150.15 202.586 150.049 204.293 151.242 204.379C151.77 203.826 151.831 203.038 152.022 202.341C152.493 200.189 153.58 198.023 155.519 196.848ZM160.432 199.646C159.618 199.87 158.049 200.499 158.804 201.574C159.47 201.631 160.026 201.172 160.641 200.985C161.765 200.464 162.933 201.068 164.083 201.104C164.484 200.931 164.604 200.421 164.354 200.081C163.191 199.372 161.723 199.284 160.432 199.646ZM168.346 201.074C168.259 201.197 168.082 201.444 167.995 201.566C168.422 202.687 170.088 202.445 171.101 202.629C171.874 201.139 169.325 200.818 168.346 201.074ZM165.606 205.576C165.45 207.484 166.597 209.05 167.757 210.42C167.721 211.924 165.822 210.511 165.009 211.089C164.969 211.327 164.889 211.805 164.85 212.044C165.956 212.149 167.063 212.351 168.184 212.33C169.117 211.697 169.572 210.301 168.726 209.404C167.67 208.255 166.687 206.841 166.911 205.192C166.835 204.534 167.288 203.673 166.683 203.182C165.446 203.027 165.652 204.766 165.606 205.576ZM161.596 206.125C162.011 206.125 162.434 206.121 162.858 206.114C162.663 205.319 163.299 203.728 162.084 203.656C161.195 204.159 161.607 205.304 161.596 206.125ZM168.201 205.235C167.901 206.103 167.869 207.593 169.192 207.318C169.38 206.461 169.427 205.587 169.427 204.715C169.001 204.755 168.165 204.527 168.201 205.235ZM160.587 212.868C160.215 214.032 160.464 215.587 161.101 216.649C162.424 217.245 163.827 216.259 165.092 215.865C165.602 215.572 166.719 215.399 166.473 214.581C165.136 214.23 163.664 214.266 162.474 213.479C161.878 213.204 161.296 212.578 160.587 212.868Z" fill="#E06A6D"/>
<path d="M331.728 294.436C330.936 293.767 330.6 292.22 331.656 291.641C332.871 291.182 334.212 291.562 335.423 291.884C338.663 292.957 341.793 294.317 344.968 295.568C347.18 296.377 348.948 298.062 351.218 298.756C354.121 299.968 357.209 300.636 360.134 301.8C360.25 302.983 360.304 304.187 360.611 305.347C360.611 305.936 361.808 306.031 361.804 305.355C361.815 304.154 361.559 302.976 361.425 301.793C367.459 301.395 373.417 300.166 379.26 298.634C380.916 298.221 382.456 297.441 383.787 296.37C385.479 297.227 385.988 299.215 386.842 300.766C388.256 304.208 389.116 307.91 389.326 311.631C379.366 311.732 369.409 311.837 359.448 311.804C350.178 311.902 340.909 312.003 331.638 311.992C330.254 312.002 328.861 312.068 327.495 311.814C328.721 310.874 330.189 310.324 331.429 309.41C331.784 308.85 331.201 308.104 330.598 308.469C328.447 309.446 326.469 310.776 324.455 312.005C321.925 312.128 319.39 312.041 316.859 312.081C317.46 311.054 318.041 310.021 318.67 309.009C319.335 307.913 320.424 307.19 321.274 306.25C322.376 304.916 324.108 304.457 325.565 303.64C325.931 303.448 326.303 303.264 326.679 303.083C329.275 301.857 331.792 300.466 334.402 299.273C336.068 298.752 337.753 298.228 339.311 297.429C339.951 297.165 339.68 296.438 339.242 296.135C337.854 296.435 336.566 297.043 335.247 297.53C334.24 296.312 332.878 295.495 331.728 294.436Z" fill="#E06A6D"/>
<path d="M86.3337 151.311C86.6049 151.738 86.9082 152.139 87.2411 152.523C86.8432 153.481 86.3441 154.417 85.5851 155.144C84.0559 156.779 81.6408 157.566 80.6973 159.725C79.7971 161.67 80.394 163.821 80.3643 165.863C79.8548 166.211 79.1929 166.094 79.0662 165.448C78.5815 163.268 78.5639 160.853 79.5468 158.806C80.5449 156.825 82.6558 155.892 84.2685 154.511C85.2714 153.683 85.8675 152.5 86.3337 151.311Z" fill="#3D1E1F"/>
<path d="M73.5488 165.324C75.0853 166.329 76.4589 167.566 78.0828 168.44C78.7664 168.914 80.0606 169.341 79.5326 170.407C77.79 170.421 76.499 168.856 75.0203 168.093C74.648 167.11 74.1666 166.174 73.5488 165.324Z" fill="#3D1E1F"/>
<path d="M359.561 174.599C361.318 172.824 363.885 172.086 366.336 172.101C368.455 172.108 370.393 173.055 372.265 173.948C372.822 175.04 373.907 175.752 374.322 176.939C374.615 177.52 375.021 178.031 375.465 178.511C376.835 180.171 379.102 180.753 380.545 182.354C381.947 183.873 383.159 186.107 382.302 188.19C381.832 189.723 380.089 190.207 379.315 191.509C380.288 193.921 381.456 196.404 381.185 199.094C381.04 200.942 379.944 202.565 378.542 203.715C376.904 205.056 375.23 206.372 373.412 207.464C372.204 206.332 372.696 204.565 372.956 203.144C373.216 202.095 374.497 202.034 375.266 201.502C376.517 200.895 376.557 199.289 376.318 198.107C376.032 196.694 374.745 195.877 373.606 195.186C372.658 195.916 371.943 197.138 370.718 197.381C369.134 197.352 369.073 195.482 368.451 194.434C367.005 194.174 365.345 194.347 364.203 193.241C362.427 191.808 362.565 189.357 362.446 187.304C361.212 187.416 359.99 187.622 358.758 187.666C357.12 187.699 355.736 186.426 354.08 186.643C352.005 186.693 350.092 188.139 349.43 190.095C348.302 193.346 348.978 196.813 349.051 200.157C348.982 201.506 349 202.97 348.263 204.159C346.567 202.414 344.091 201.654 342.536 199.741C340.995 198.099 341.184 195.696 340.923 193.624C341.154 192.532 342.228 191.603 341.834 190.384C341.083 188.334 338.447 187.907 337.503 185.981C336.882 184.741 337.247 183.298 337.684 182.062C338.255 180.547 338.932 179.028 339.994 177.792C342.546 175.116 346.711 174.44 350.131 175.651C351.831 176.124 353.346 177.256 355.153 177.321C356.962 177.173 358.314 175.785 359.561 174.599Z" fill="#3D1E1F"/>
<path d="M91.0667 173.651C92.0896 174.146 92.7443 175.192 93.0588 176.254C92.9104 176.551 92.7764 176.883 92.5349 177.121C90.2427 178.94 87.177 179.272 84.3535 179.373C81.4395 179.244 78.4965 178.802 75.7598 177.765C75.6803 177.602 75.5287 177.273 75.4525 177.11C74.9679 177.132 74.4873 177.157 74.0059 177.186C74.0532 177.064 74.1503 176.817 74.1976 176.699C74.4865 176.681 75.0649 176.648 75.3546 176.63C75.3835 175.588 76.3703 175.223 77.1951 174.913C77.354 175.542 77.4776 176.185 77.7159 176.796C80.3226 177.997 83.2832 178.373 86.1323 178.152C87.8493 177.95 89.6971 177.657 91.0851 176.544C91.1429 175.578 91.0482 174.613 91.0667 173.651Z" fill="#3D1E1F"/>
<path d="M92.3521 179.244L92.7933 178.803C92.9634 179.341 93.1263 179.883 93.2812 180.433C93.1223 180.574 92.8038 180.856 92.6449 181C91.7415 181.626 90.7322 182.074 89.706 182.457C89.7565 182.851 89.8071 183.249 89.8576 183.65C90.132 186.156 90.2154 188.705 90.9022 191.145C91.1983 192.352 92.1274 193.231 92.8976 194.16C94.2279 195.711 95.0383 197.725 95.0599 199.779C95.1289 201.312 94.9516 202.953 95.7291 204.349C97.8151 208.142 98.5741 212.462 100.314 216.399C101.264 218.738 102.685 220.883 104.479 222.661C105.465 220.803 106.286 218.865 107.143 216.949C107.563 217.205 107.981 217.473 108.398 217.748C107.458 219.733 106.565 221.747 105.635 223.742C108.741 225.886 112.556 226.66 116.25 227.043C119.913 227.625 123.488 228.644 127.035 229.703C128.803 230.322 130.658 229.787 132.458 229.686C135.47 229.35 138.5 229.856 141.421 230.55C141.891 230.665 142.357 230.778 142.835 230.889C143.79 231.099 144.751 231.287 145.713 231.482C145.633 231.941 145.55 232.401 145.485 232.867C144.599 232.701 143.713 232.538 142.835 232.358C142.275 232.231 141.721 232.094 141.168 231.956C138.319 231.273 135.373 230.77 132.445 231.11C130.627 231.222 128.768 231.753 126.978 231.172C122.593 229.892 118.178 228.579 113.612 228.149C110.427 227.607 107.22 226.663 104.552 224.783C102.893 223.175 101.317 221.428 100.181 219.397C97.5817 214.834 96.8836 209.49 94.3964 204.877C93.0549 202.414 94.2696 199.421 92.9795 196.941C92.2165 195.057 90.3222 193.89 89.6963 191.938C88.89 189.331 88.8467 186.58 88.565 183.886C88.5289 183.601 88.4567 183.029 88.4206 182.744C86.1179 183.054 83.7567 183.163 81.4756 182.657C80.9766 182.581 80.6877 182.129 80.3516 181.811C80.5217 181.648 80.861 181.316 81.0352 181.153C82.9511 181.497 84.9072 181.739 86.8521 181.49C88.8202 181.247 90.9961 180.838 92.3521 179.244Z" fill="#3D1E1F"/>
<path d="M152.871 182.271C156.696 180.405 161.006 178.728 165.323 179.733C171.078 180.319 176.643 183.482 179.625 188.511C179.419 188.996 179.079 189.466 179.115 190.019C179.159 192.578 179.965 195.07 179.915 197.64C179.864 200.866 178.808 203.975 177.481 206.882C176.245 209.517 175.963 212.471 175.883 215.349C175.796 218.892 176.591 222.449 178.229 225.598C181.512 231.868 186.938 236.756 189.932 243.198C190.441 244.269 190.897 245.364 191.324 246.47C189.346 244.269 186.877 242.587 184.252 241.25C181.436 239.829 178.663 238.296 175.709 237.178C172.867 236.094 169.957 235.176 167.209 233.863C167.242 233.354 167.271 232.843 167.307 232.337C165.745 231.831 164.302 230.992 163.163 229.799C159.661 226.296 156.572 222.229 154.798 217.569C157.69 219.81 160.698 221.979 164.053 223.479C165.676 224.206 167.878 224.745 169.248 223.244C171.584 220.861 173.351 217.843 174.1 214.578C174.447 210.226 174.371 205.822 173.894 201.479C172.813 201.147 171.688 200.836 170.785 200.124C169.516 199.194 168.854 197.716 167.813 196.58C166.967 195.687 165.676 195.507 164.53 195.311C161.486 194.906 158.134 195.076 155.516 196.848C153.579 198.023 152.49 200.189 152.021 202.34C151.829 203.038 151.768 203.826 151.24 204.378C150.047 204.292 150.148 202.585 149.046 202.34C148.203 202.166 147.625 202.957 147.498 203.692C147.133 205.369 147.245 207.209 148.091 208.735C148.962 210.336 149.895 212.018 149.848 213.901C149.776 217.502 148.604 220.98 147.118 224.223C146.753 225.047 146.569 225.933 146.442 226.823C145.661 226.446 144.884 226.067 144.063 225.803C143.778 225.731 143.213 225.586 142.932 225.51C140.296 224.892 137.675 224.176 134.996 223.775C132.212 223.345 129.396 223.844 126.608 223.522C123.572 223.203 120.567 222.495 117.725 221.374C116.644 220.947 115.498 220.752 114.381 220.467C119.655 216.775 123.951 211.895 127.903 206.858C131.319 202.552 134.237 197.863 137.936 193.781C142.021 188.937 147.166 185.018 152.871 182.271Z" fill="#3D1E1F"/>
<path d="M351.653 192.011C352.514 191.888 353.859 191.505 354.282 192.564C354.08 193.384 353.197 193.106 352.594 193.226C351.748 193.204 351.104 193.807 350.378 194.133C349.792 194.086 349.658 193.576 349.875 193.11C350.319 192.553 350.974 192.199 351.653 192.011Z" fill="#3D1E1F"/>
<path d="M358.256 193.102C358.162 192.614 358.086 191.916 358.755 191.832C359.941 191.59 361.279 192.031 362.096 192.92C362.473 193.698 361.467 194.001 360.965 193.578C360.126 193.127 359.193 192.996 358.256 193.102Z" fill="#3D1E1F"/>
<path d="M355.591 195.658C355.804 195.625 356.238 195.568 356.452 195.539C357.175 197.687 356.322 199.903 355.06 201.653C355.859 202.029 356.752 202.221 357.508 202.697C357.642 203.41 356.864 203.934 356.238 203.638C355.226 203.273 353.855 202.835 353.617 201.642C353.802 200.54 354.846 199.794 355.15 198.714C355.624 197.755 355.132 196.569 355.591 195.658Z" fill="#3D1E1F"/>
<path d="M359 195.632C360.757 195.097 361.393 197.386 360.959 198.688C360.916 199.468 359.828 199.895 359.346 199.215C358.541 198.196 358.982 196.815 359 195.632Z" fill="#3D1E1F"/>
<path d="M352.001 195.955C352.443 195.348 353.401 195.518 353.617 196.233C353.892 197.05 353.925 198.388 352.974 198.775C351.636 198.862 351.16 196.761 352.001 195.955Z" fill="#3D1E1F"/>
<path d="M281.012 201.197C282.246 200.513 283.196 199.414 283.821 198.16C284.085 198.572 284.357 198.984 284.631 199.396C284.056 200.362 283.358 201.269 282.418 201.905C280.752 203.16 278.499 203.644 277.248 205.42C276.048 207.217 276.048 209.465 276.098 211.544C275.545 211.63 274.634 211.894 274.706 211.005C274.526 208.821 274.858 206.486 276.062 204.617C277.23 202.886 279.277 202.188 281.012 201.197Z" fill="#3D1E1F"/>
<path d="M160.431 199.646C161.721 199.284 163.189 199.371 164.353 200.08C164.603 200.42 164.483 200.93 164.082 201.103C162.932 201.067 161.765 200.463 160.64 200.983C160.025 201.171 159.469 201.631 158.803 201.572C158.048 200.499 159.618 199.87 160.431 199.646Z" fill="#3D1E1F"/>
<path d="M168.345 201.075C169.324 200.818 171.873 201.14 171.1 202.63C170.087 202.445 168.421 202.688 167.994 201.567C168.081 201.444 168.258 201.198 168.345 201.075Z" fill="#3D1E1F"/>
<path d="M165.605 205.575C165.653 204.766 165.447 203.026 166.683 203.182C167.287 203.674 166.835 204.534 166.911 205.192C166.687 206.84 167.67 208.254 168.726 209.404C169.571 210.301 169.116 211.696 168.183 212.329C167.062 212.351 165.956 212.149 164.85 212.044C164.89 211.805 164.969 211.328 165.008 211.089C165.822 210.51 167.72 211.924 167.756 210.42C166.595 209.049 165.45 207.484 165.605 205.575Z" fill="#3D1E1F"/>
<path d="M161.594 206.125C161.605 205.304 161.193 204.158 162.082 203.655C163.296 203.727 162.66 205.318 162.855 206.114C162.433 206.121 162.01 206.125 161.594 206.125Z" fill="#3D1E1F"/>
<path d="M168.202 205.234C168.166 204.526 169.001 204.754 169.428 204.714C169.428 205.585 169.38 206.46 169.193 207.316C167.87 207.592 167.902 206.102 168.202 205.234Z" fill="#3D1E1F"/>
<path d="M269.041 209.913C270.44 211.193 271.669 212.654 273.191 213.796C273.73 214.262 274.392 214.656 274.71 215.322C274.83 215.955 274.099 216.186 273.673 215.872C272.411 215.037 271.236 214.039 270.278 212.871C270.01 211.826 269.627 210.817 269.041 209.913Z" fill="#3D1E1F"/>
<path d="M357.468 214.863C360.701 213.862 363.738 212.336 366.72 210.749C364.403 214.546 361.275 217.817 357.743 220.504C356.043 221.856 354.138 223.099 351.922 223.295C352.208 220.988 352.262 218.645 352.804 216.379C353.068 215.797 352.67 215.352 352.316 214.951C353.947 215.753 355.805 215.348 357.468 214.863Z" fill="#3D1E1F"/>
<path d="M371.062 226.599C371.835 225.171 372.245 223.529 373.343 222.293C373.871 222.629 374.384 223.023 374.843 223.46C373.643 228.084 370.938 232.39 366.991 235.145C368.875 236.588 370.563 238.28 372.016 240.156C375.885 237.842 379.297 234.711 381.702 230.879C382.049 230.969 382.4 231.063 382.754 231.157C382.768 231.403 382.797 231.898 382.811 232.144C381.268 234.009 379.861 236.001 378.054 237.632C376.138 239.252 374.098 240.849 371.726 241.725C370.732 242.162 370.06 241.186 369.485 240.56C368.411 239.005 366.657 238.218 364.871 237.82C362.995 241.793 360.865 245.65 359.206 249.721C359.127 249.909 358.968 250.289 358.888 250.477C358.585 250.343 358.292 250.203 358.01 250.054C357.442 248.485 357.236 246.815 356.831 245.203C356.44 243.186 355.855 241.218 355.374 239.223C353.989 240.499 352.565 241.732 351.176 243.001C350.67 243.348 350.197 244.064 349.499 243.793C347.149 240.608 346.118 236.689 345.674 232.813C346.032 232.719 346.394 232.632 346.759 232.549C346.806 232.365 346.896 231.996 346.943 231.812L347.612 232.112C347.384 232.328 347.161 232.549 346.943 232.777C347.409 235.564 347.944 238.396 349.336 240.897C351.014 239.108 352.558 237.206 354.069 235.279C351.942 233.898 350.406 231.363 350.692 228.793L351.549 228.521C352.069 230.452 352.579 232.686 354.408 233.818C357.655 235.731 362.022 236.241 365.349 234.248C368.148 232.499 369.579 229.412 371.062 226.599ZM356.285 236.27C357.186 239.904 357.771 243.62 358.838 247.21C360.609 243.71 361.944 240.008 363.79 236.548C361.304 237.106 358.726 236.997 356.285 236.27Z" fill="#3D1E1F"/>
<path d="M80.2418 237.405C80.5274 237.781 80.8275 238.135 81.1316 238.507C83.9116 241.729 86.8546 244.864 90.2862 247.409C92.495 249.075 94.6749 250.803 97.1124 252.133C101.107 254.328 105.291 256.157 109.289 258.341C111.148 259.632 113.027 260.908 114.842 262.256C115.497 262.643 115.081 263.373 114.752 263.829C113.645 265.394 112.488 266.928 111.274 268.41C110.424 267.397 109.257 266.782 107.922 266.786C105.482 269.989 103.114 273.301 101.563 277.047C100.63 279.342 99.6325 281.613 98.6745 283.902C95.9049 291.234 94.983 299.097 92.4854 306.512C86.516 305.489 80.6774 303.699 75.1967 301.114C73.1106 300.116 71.1329 298.887 69.3292 297.441C66.3141 295.073 63.9384 291.982 62.0657 288.66C58.3638 281.805 57.2501 273.703 58.2225 266.027C58.9671 260.268 61.2128 254.668 64.9902 250.228C69.2506 245.084 74.5837 240.915 80.2418 237.405Z" fill="#3D1E1F"/>
<path d="M166.779 239.52C166.812 238.931 166.834 238.341 166.873 237.756C168.189 239.039 169.936 239.679 171.559 240.46C175.106 242.236 178.948 243.74 181.696 246.723C184.006 248.931 185.044 252.03 186.852 254.601C188.609 257.298 190.847 259.633 193.143 261.875C193.389 260.83 193.515 259.745 193.917 258.751C195.493 257.467 197.623 258.133 199.47 257.796C200.775 257.962 202.091 257.962 203.407 257.938C203.623 257.938 204.057 257.934 204.271 257.934C226.238 257.926 248.205 257.966 270.173 257.876C270.701 257.865 271.221 257.941 271.731 258.092C271.594 258.508 271.464 258.924 271.337 259.351C245.949 259.332 220.562 259.351 195.175 259.347C191.519 275.602 187.839 291.853 184.176 308.108C199.224 307.981 214.271 308.036 229.319 307.826C238.458 307.888 247.594 307.725 256.734 307.732C256.731 308.061 256.724 308.719 256.72 309.048C249.399 309.272 242.07 309.225 234.746 309.24C217.978 309.362 201.213 309.449 184.444 309.504C184.419 310.62 184.419 311.741 184.451 312.862C184.029 312.858 183.609 312.862 183.193 312.869C183.143 311.756 183.088 310.639 183.038 309.528C179.614 309.641 176.19 309.593 172.766 309.583C172.697 310.707 172.636 311.835 172.582 312.963C172.144 312.966 171.707 312.97 171.276 312.974C171.222 311.455 171.272 309.937 171.312 308.418C171.844 308.291 172.383 308.168 172.921 308.056C173.181 305.424 173.723 302.835 174.183 300.236C174.454 298.645 174.711 297.051 174.971 295.46C175.506 292.943 176.132 290.438 176.414 287.878C177.64 279.325 178.85 270.76 180.358 262.253C180.593 262.155 181.066 261.967 181.302 261.873C181.407 262.238 181.475 262.614 181.5 263.001C180.289 271.226 179.009 279.447 177.917 287.695C179.725 290.54 181.359 293.49 183.148 296.353C182.111 297.554 180.932 298.685 180.465 300.251C179.218 302.287 176.658 302.883 174.927 304.384C174.526 305.606 174.493 306.907 174.399 308.18C177.157 308.212 179.916 308.144 182.675 308.132C183.416 305.067 184.082 301.982 184.772 298.906C185.539 295.583 186.287 292.253 187.029 288.924C188.941 280.539 190.817 272.145 192.72 263.757C191.465 262.062 189.838 260.698 188.486 259.09C186.404 256.736 184.679 254.082 183.25 251.288C181.764 248.46 179.386 246.147 176.616 244.585C174.494 243.41 172.324 242.333 170.141 241.284C168.996 240.739 167.883 240.139 166.779 239.52Z" fill="#3D1E1F"/>
<path d="M292.918 241.263C294.111 240.934 295.34 240.901 296.465 241.491C295.912 242.134 295.359 242.778 294.809 243.425C294.162 242.716 293.504 242.018 292.918 241.263Z" fill="#3D1E1F"/>
<path d="M271.052 251.455C270.987 249.336 272.896 248.176 274.577 247.402C274.714 248.541 274.743 249.738 275.203 250.811C275.597 251.079 276.049 251.256 276.497 251.444C274.682 251.484 272.867 251.509 271.052 251.455Z" fill="#3D1E1F"/>
<path d="M397.574 250.913C398.304 249.676 399.027 248.248 400.38 247.598C401.218 247.833 400.896 248.649 400.437 249.08C397.871 252.041 396.952 255.986 396.297 259.746C395.737 262.736 395.939 265.812 396.536 268.777C397.996 276.047 401.612 282.631 405.097 289.096C405.621 289.96 406.005 291.009 406.879 291.59C411.807 291.557 416.731 290.979 421.662 290.903C422.642 291.366 421.854 292.512 420.983 292.296C408.795 292.99 396.604 293.702 384.409 294.327C386.184 295.737 387.309 297.769 388.086 299.866C388.845 302.045 389.822 304.157 390.281 306.431C390.667 308.126 390.841 309.862 390.812 311.601C392.2 311.572 393.589 311.565 394.98 311.616C393.093 311.67 391.209 311.673 389.326 311.63C389.116 307.91 388.255 304.208 386.842 300.766C385.989 299.215 385.479 297.227 383.787 296.37C382.456 297.44 380.916 298.221 379.26 298.633C379.296 297.473 379.26 296.192 380.044 295.246C380.702 294.458 381.411 293.673 382.26 293.083C385.525 292.812 388.804 292.718 392.076 292.502C396.375 292.263 400.674 292.024 404.972 291.782C401.82 286.28 398.862 280.636 396.649 274.681C395.037 269.992 394.119 264.966 394.744 260.006C395.42 256.903 396.037 253.726 397.574 250.913Z" fill="#3D1E1F"/>
<path d="M303.875 253.41C304.41 253.429 304.956 253.407 305.476 253.223C307.15 255.891 308.914 258.52 310.422 261.285C310.867 262.164 309.402 262.591 309.153 261.734C307.295 259.025 305.759 256.1 303.875 253.41Z" fill="#3D1E1F"/>
<path d="M324.723 258.306C324.618 257.754 325.323 257.276 325.743 257.714C326.101 258.589 325.859 259.569 325.834 260.483C325.346 265.433 325.353 270.407 325.291 275.375C325.049 284.627 325.335 293.919 326.679 303.084C326.303 303.264 325.931 303.449 325.566 303.641C324.644 298.221 323.66 292.816 322.699 287.404C321.502 287.642 320.309 287.881 319.123 288.134C320.222 285.079 321.828 282.23 322.782 279.117C323.071 278.933 323.367 278.752 323.663 278.575C323.79 277.562 323.92 276.551 323.913 275.531C323.859 269.781 324.076 264.022 324.723 258.306Z" fill="#3D1E1F"/>
<path d="M335.248 297.53C336.568 297.042 337.855 296.435 339.243 296.135C339.68 296.439 339.951 297.165 339.312 297.429C337.754 298.228 336.069 298.752 334.402 299.273C334.984 299.001 335.574 298.749 336.17 298.499C335.855 298.173 335.552 297.852 335.248 297.53Z" fill="#3D1E1F"/>
<path d="M360.137 301.799C360.56 301.806 360.994 301.806 361.428 301.792C361.562 302.975 361.818 304.153 361.807 305.353C361.811 306.03 360.614 305.935 360.614 305.346C360.307 304.185 360.252 302.981 360.137 301.799Z" fill="#3D1E1F"/>
<path d="M259.172 312.425C259.429 310.994 258.673 309.048 259.938 308.011L260.217 308.068C260.842 309.381 260.347 310.986 260.485 312.425C260.043 312.422 259.606 312.422 259.172 312.425Z" fill="#3D1E1F"/>
<path d="M324.455 312.005C326.469 310.776 328.447 309.445 330.598 308.469C331.201 308.104 331.784 308.848 331.429 309.409C330.189 310.324 328.721 310.873 327.495 311.814C326.498 312.034 325.468 311.969 324.455 312.005Z" fill="#3D1E1F"/>
<path d="M84.3516 179.374C87.175 179.273 90.2407 178.94 92.533 177.122C92.4463 177.823 92.3741 178.532 92.3525 179.244C90.9965 180.839 88.8198 181.247 86.8501 181.489C84.9052 181.739 82.9491 181.497 81.0331 181.153C80.8598 181.316 80.5197 181.648 80.3496 181.811C79.2432 181.432 78.1263 181.091 77.0271 180.701C77.2333 179.544 76.0186 178.829 75.7578 177.766C78.4946 178.803 81.4375 179.244 84.3516 179.374Z" fill="#FDDC03"/>
<path d="M89.8574 183.651C91.1339 183.207 92.4209 182.733 93.5377 181.952C94.8937 184.407 96.3074 186.83 97.6994 189.262C98.9647 191.504 99.3265 194.085 99.9123 196.555C100.682 200.22 101.799 203.8 102.79 207.412C103.296 209.339 104.396 211.009 105.39 212.712C106.189 214.032 106.453 215.576 107.144 216.949C106.287 218.865 105.466 220.803 104.479 222.662C102.686 220.883 101.265 218.739 100.314 216.4C98.5756 212.462 97.8158 208.142 95.7297 204.349C94.9522 202.954 95.1296 201.312 95.0605 199.779C95.0389 197.726 94.2293 195.712 92.8983 194.16C92.128 193.231 91.1989 192.353 90.9029 191.145C90.2153 188.706 90.1318 186.157 89.8574 183.651Z" fill="#FDDC03"/>
<path d="M82.9674 185.784C84.3771 184.185 86.7488 184.692 88.5636 183.885C88.8461 186.579 88.8894 189.33 89.6949 191.937C90.3207 193.889 92.215 195.057 92.9781 196.94C94.269 199.42 93.0543 202.414 94.395 204.876C96.8822 209.489 97.5802 214.833 100.18 219.396C101.315 221.427 102.892 223.174 104.551 224.783C107.219 226.662 110.426 227.606 113.611 228.148C118.177 228.578 122.591 229.891 126.977 231.171C128.766 231.752 130.625 231.221 132.443 231.109C135.372 230.769 138.318 231.272 141.167 231.955C141.225 235.386 141.5 238.912 142.928 242.082C144.27 245.278 146.616 248.055 149.559 249.892C153.362 252.187 158.452 252.205 162.234 249.859C164.519 248.46 166.493 246.508 167.747 244.129C168.307 243.001 169.147 242.05 170.141 241.284C172.325 242.333 174.493 243.41 176.616 244.585C179.385 246.147 181.764 248.461 183.25 251.288C184.678 254.082 186.402 256.736 188.485 259.089C189.837 260.698 191.464 262.061 192.719 263.757C190.818 272.144 188.941 280.539 187.028 288.923C185.597 286.772 184.848 284.271 183.601 282.025C183.015 280.966 182.477 279.845 182.418 278.616C182.136 274.404 182.4 270.181 182.378 265.965C182.375 264.498 182.479 263.033 182.591 261.569C182.154 261.66 181.724 261.75 181.3 261.873C181.065 261.967 180.592 262.155 180.357 262.252C178.849 270.759 177.638 279.324 176.413 287.878C175.53 289.404 175.136 291.139 174.381 292.722C173.239 295.21 172.115 297.704 170.975 300.192C169.71 302.744 168.433 305.297 167.356 307.94C165.718 308.031 164.019 306.743 164.232 304.997C164.8 302.774 166.991 300.713 165.917 298.276C164.837 296.248 162.197 296.545 160.267 296.682C153.509 297.506 147.002 299.622 140.364 301.06C136.42 302.051 132.425 302.796 128.44 303.605C124.124 304.65 119.778 305.579 115.418 306.44C112.449 307.018 109.416 307.124 106.419 307.489C104.21 307.792 101.646 307.258 100.247 305.388C98.6169 303.371 98.5262 300.616 98.9169 298.165C100.316 290.109 105.027 283.208 107.735 275.601C108.939 273.219 109.749 270.619 111.271 268.409C112.486 266.927 113.643 265.394 114.749 263.829C115.078 263.373 115.494 262.643 114.84 262.256C113.025 260.908 111.145 259.631 109.287 258.341C105.288 256.157 101.106 254.328 97.1101 252.133C94.6734 250.803 92.4935 249.075 90.2838 247.408C86.8531 244.863 83.9101 241.729 81.1292 238.507C81.0313 236.909 80.6703 235.348 80.493 233.764C79.8567 228.977 79.8094 224.14 79.3833 219.332C79.0688 214.704 78.5738 210.09 78.0202 205.485C77.7273 202.64 77.3839 199.779 77.5861 196.913C77.745 194.588 77.8749 192.162 78.9276 190.036C79.9161 188.315 81.6114 187.187 82.9674 185.784ZM108.395 300.342C108.164 300.787 108.829 301.481 109.277 301.231C109.667 300.729 108.894 299.919 108.395 300.342Z" fill="#FDDC03"/>
<path d="M105.635 223.742C106.564 221.747 107.457 219.733 108.397 217.748C110.284 218.872 112.385 219.567 114.381 220.467C115.498 220.753 116.644 220.948 117.725 221.375C120.567 222.495 123.571 223.204 126.609 223.522C129.396 223.844 132.212 223.345 134.996 223.775C137.675 224.176 140.296 224.892 142.932 225.511C142.133 227.09 141.757 228.826 141.42 230.551C138.499 229.857 135.47 229.351 132.458 229.687C130.657 229.788 128.802 230.323 127.035 229.704C123.487 228.645 119.912 227.626 116.25 227.044C112.554 226.66 108.74 225.887 105.635 223.742Z" fill="#FDDC03"/>
<path d="M374.843 223.461C376.871 225.171 378.335 227.438 380.255 229.263C380.757 229.78 381.235 230.326 381.701 230.879C379.297 234.711 375.884 237.843 372.015 240.157C370.562 238.28 368.873 236.589 366.99 235.146C370.939 232.391 373.642 228.085 374.843 223.461Z" fill="#FDDC03"/>
<path d="M144.063 225.803C144.884 226.067 145.661 226.447 146.442 226.823C146.218 228.378 145.983 229.932 145.712 231.483C144.75 231.288 143.789 231.1 142.834 230.89C143.145 229.169 143.619 227.488 144.063 225.803Z" fill="#FDDC03"/>
<path d="M347.612 232.112C348.692 231.06 349.796 230.012 350.692 228.793C350.406 231.364 351.943 233.898 354.069 235.279C352.557 237.206 351.014 239.108 349.337 240.898C347.945 238.396 347.41 235.565 346.943 232.777C347.16 232.549 347.384 232.329 347.612 232.112ZM347.991 233.526C347.554 233.552 347.268 234.419 347.836 234.459C348.266 234.429 348.552 233.558 347.991 233.526Z" fill="#FDDC03"/>
<path d="M145.491 243.844C143.441 240.438 142.324 236.331 142.833 232.357C143.712 232.538 144.598 232.701 145.484 232.867C145.133 234.642 146.141 236.237 146.916 237.748C148.633 241.084 151.735 243.446 154.928 245.268C157.289 246.624 160.185 246.71 162.679 245.666C163.839 245.326 164.943 244.827 166.009 244.259C163.843 247.665 160.068 250.225 155.936 250.184C151.587 250.334 147.656 247.456 145.491 243.844Z" fill="#FDDC03"/>
<path d="M342.549 233.272C343.543 232.889 344.628 232.943 345.673 232.813C346.117 236.69 347.148 240.608 349.498 243.793C350.196 244.065 350.669 243.349 351.175 243.001C353.081 243.685 354.845 244.737 356.83 245.203C357.235 246.816 357.441 248.486 358.009 250.055C358.291 250.203 358.583 250.344 358.887 250.478C358.967 250.29 359.126 249.91 359.205 249.722C361.783 248.822 363.471 246.577 365.381 244.758C366.761 243.373 368.186 242.024 369.484 240.56C370.058 241.186 370.731 242.161 371.725 241.724C374.097 240.849 376.136 239.251 378.053 237.631C381.234 237.914 384.344 237.027 387.449 236.464C389.43 235.979 391.552 236.056 393.425 235.148C397.391 236.891 401.462 238.373 405.493 239.964C406.079 240.209 406.672 240.466 407.258 240.737C411.252 242.701 415.023 245.354 417.644 249.002C418.491 250.459 419.178 252.007 420.143 253.395C420.884 254.472 421.73 255.488 422.294 256.681C424.344 260.763 426.257 264.91 428.274 269.01C429.757 272.282 431.238 275.554 432.736 278.818C435.686 284.371 439.905 289.246 442.009 295.233C443.339 298.671 444.059 302.319 444.174 305.999C441.528 305.38 438.812 305.822 436.133 305.79C427.681 305.801 419.235 306.198 410.782 306.202C403.949 306.343 397.112 306.697 390.279 306.43C389.82 304.156 388.844 302.044 388.085 299.864C387.308 297.768 386.183 295.736 384.408 294.326C396.603 293.7 408.794 292.988 420.981 292.294C421.853 292.511 422.641 291.365 421.661 290.902C416.73 290.979 411.805 291.557 406.878 291.589C406.003 291.007 405.62 289.959 405.096 289.095C401.611 282.63 397.995 276.046 396.534 268.776C395.938 265.811 395.735 262.734 396.296 259.745C396.951 255.985 397.869 252.04 400.436 249.079C400.895 248.649 401.217 247.832 400.378 247.596C399.026 248.247 398.303 249.675 397.573 250.912C396.036 253.725 395.418 256.903 394.745 260.005C393.571 261.726 393.183 263.808 392.493 265.742C390.404 272.202 389.821 279.101 390.544 285.84C390.758 288.117 391.509 290.29 392.077 292.499C388.805 292.716 385.526 292.81 382.262 293.081C381.412 293.67 380.703 294.454 380.046 295.243C379.261 296.191 379.297 297.47 379.261 298.63C373.418 300.164 367.46 301.393 361.426 301.79C360.992 301.804 360.558 301.804 360.135 301.797C357.21 300.633 354.122 299.964 351.219 298.753C348.949 298.059 347.181 296.374 344.968 295.565C341.794 294.314 338.663 292.955 335.424 291.88C334.212 291.559 332.872 291.179 331.657 291.638C330.601 292.217 330.937 293.764 331.729 294.433C332.879 295.492 334.242 296.309 335.247 297.527C335.55 297.849 335.854 298.171 336.168 298.496C335.572 298.746 334.983 298.999 334.401 299.27C331.791 300.463 329.274 301.855 326.678 303.08C325.334 293.915 325.048 284.623 325.29 275.372C325.352 270.404 325.345 265.429 325.833 260.48C325.858 259.565 326.1 258.585 325.742 257.71C325.323 257.273 324.618 257.75 324.722 258.303C324.075 264.019 323.858 269.778 323.913 275.526C320.836 276.499 318.118 278.311 315.098 279.442C309.647 281.578 304.488 284.558 298.732 285.852C296.262 286.463 293.67 287.348 291.125 286.589C288.822 286.022 287.618 283.79 286.247 282.073C285.889 281.509 285.256 281.257 284.671 281.029L284.584 280.993C282.733 277.109 280.777 273.266 279.259 269.235C277.469 264.405 275.604 259.604 273.923 254.734C273.72 253.87 272.784 253.613 272.184 253.092C271.61 252.706 271.356 252.033 271.053 251.451C272.868 251.505 274.682 251.48 276.497 251.44C279.339 251.527 282.163 250.927 284.795 249.871C288.475 248.388 292.304 246.617 294.81 243.421C295.359 242.774 295.912 242.13 296.466 241.487L296.578 241.367C297.193 242.007 297.757 242.709 298.162 243.508C299.424 246.111 301.217 248.417 302.432 251.046C302.811 251.888 303.303 252.676 303.878 253.407C305.762 256.097 307.298 259.022 309.156 261.73C309.406 262.586 310.87 262.16 310.426 261.281C308.918 258.515 307.154 255.887 305.48 253.218C310.115 249.169 316.026 247.08 321.333 244.108C325.838 240.814 330.491 237.603 335.64 235.402C337.846 234.393 340.312 234.191 342.549 233.272ZM322.788 258.385C322.824 256.321 323.384 254.29 323.179 252.218C322.961 254.268 322.372 256.318 322.788 258.385Z" fill="#FDDC03"/>
<path d="M356.285 236.27C358.726 236.996 361.304 237.105 363.791 236.548C361.943 240.008 360.61 243.71 358.838 247.21C357.771 243.62 357.185 239.903 356.285 236.27Z" fill="#FDDC03"/>
<path d="M171.559 240.46C172.864 239.27 174.118 237.987 175.709 237.177C178.662 238.294 181.436 239.827 184.252 241.248C186.878 242.585 189.346 244.267 191.324 246.469C193.189 248.099 195.171 249.614 196.859 251.44C198.768 253.529 200.727 255.579 202.865 257.438C202.999 257.565 203.273 257.814 203.407 257.937C202.091 257.962 200.776 257.962 199.47 257.796C197.622 258.132 195.493 257.467 193.917 258.751C193.516 259.745 193.389 260.83 193.144 261.874C190.848 259.632 188.61 257.297 186.853 254.6C185.045 252.03 184.008 248.931 181.697 246.722C178.949 243.739 175.106 242.235 171.559 240.46Z" fill="#FDDC03"/>
<path d="M173.258 299.186C173.402 297.79 174.096 296.531 174.972 295.462C174.712 297.053 174.455 298.647 174.184 300.238C173.855 299.897 173.547 299.547 173.258 299.186Z" fill="#FDDC03"/>
<path d="M141.602 313.116C142.372 312.87 143.167 312.653 143.984 312.667C148.098 312.664 152.212 312.541 156.323 312.591C157.23 312.595 158.112 312.812 158.991 313.025C153.192 313.116 147.397 313.037 141.602 313.116Z" fill="#FDDC03"/>
<path d="M77.0274 180.701C78.1266 181.092 79.2434 181.431 80.3498 181.811C80.686 182.128 80.9756 182.581 81.4739 182.656C83.7549 183.163 86.1162 183.054 88.4189 182.743C88.455 183.029 88.5272 183.6 88.5633 183.886C86.7484 184.692 84.3767 184.186 82.967 185.784C81.6111 187.186 79.9158 188.314 78.9289 190.035C77.877 192.162 77.7462 194.587 77.5874 196.912C77.3852 199.779 77.7286 202.639 78.0214 205.484C78.5743 210.091 79.0701 214.704 79.3846 219.331C79.8115 224.139 79.858 228.977 80.4942 233.763C80.6716 235.347 81.0326 236.908 81.1305 238.507C80.8264 238.134 80.5263 237.78 80.2407 237.404C79.6077 236.559 79.1166 235.607 78.8671 234.577C77.6379 229.888 76.6222 225.144 75.6313 220.4C75.1034 218.119 75.1539 215.741 74.4703 213.492C74.094 211.778 74.0507 210.017 73.8991 208.278C73.863 207.812 73.8301 207.349 73.8012 206.886C73.4682 200.986 72.8103 194.973 74.094 189.138C74.8362 186.247 76.347 183.615 77.0274 180.701Z" fill="#FDB301"/>
<path d="M89.707 182.458C90.734 182.074 91.7425 181.627 92.646 181.001C92.7687 180.939 93.015 180.82 93.1378 180.759C93.2389 181.059 93.4379 181.655 93.539 181.952C92.4221 182.732 91.1344 183.207 89.8587 183.651C89.8081 183.25 89.7576 182.852 89.707 182.458Z" fill="#FDB301"/>
<path d="M141.42 230.55C141.756 228.826 142.132 227.09 142.932 225.51C143.214 225.586 143.777 225.73 144.063 225.803C143.618 227.487 143.144 229.168 142.834 230.889C142.356 230.778 141.89 230.666 141.42 230.55Z" fill="#FDB301"/>
<path d="M382.813 232.145C383.409 231.889 384.082 231.317 384.765 231.701C385.979 232.171 387.191 232.663 388.413 233.136C390.094 233.772 391.764 234.452 393.427 235.15C391.555 236.058 389.433 235.981 387.451 236.466C384.345 237.03 381.236 237.916 378.055 237.633C379.862 236.003 381.269 234.011 382.813 232.145Z" fill="#FDB301"/>
<path d="M141.168 231.957C141.721 232.094 142.274 232.231 142.834 232.358C142.325 236.331 143.442 240.438 145.492 243.844C147.657 247.456 151.587 250.334 155.936 250.186C160.069 250.226 163.843 247.666 166.009 244.261C164.943 244.829 163.839 245.327 162.679 245.667C163.807 244.734 164.96 243.812 165.958 242.735C166.782 241.883 166.656 240.609 166.779 239.521C167.882 240.14 168.995 240.74 170.142 241.286C169.148 242.052 168.308 243.003 167.748 244.131C166.494 246.51 164.52 248.462 162.235 249.861C158.453 252.207 153.363 252.189 149.56 249.893C146.617 248.057 144.271 245.28 142.929 242.084C141.5 238.913 141.226 235.388 141.168 231.957Z" fill="#FDB301"/>
<path d="M347.989 233.526C348.549 233.559 348.264 234.43 347.834 234.459C347.267 234.419 347.552 233.552 347.989 233.526Z" fill="#FDB301"/>
<path d="M167.209 233.862C169.957 235.175 172.867 236.093 175.709 237.177C174.118 237.987 172.864 239.271 171.559 240.461C169.936 239.68 168.189 239.04 166.873 237.756C166.971 236.458 167.108 235.16 167.209 233.862Z" fill="#FDB301"/>
<path d="M359.205 249.723C360.864 245.652 362.994 241.794 364.87 237.821C366.656 238.219 368.409 239.007 369.484 240.562C368.186 242.026 366.761 243.375 365.381 244.76C363.471 246.578 361.783 248.823 359.205 249.723Z" fill="#FDB301"/>
<path d="M355.374 239.224C355.854 241.22 356.44 243.187 356.831 245.204C354.846 244.738 353.081 243.685 351.176 243.003C352.564 241.733 353.989 240.5 355.374 239.224Z" fill="#FDB301"/>
<path d="M322.787 258.385C322.372 256.318 322.961 254.268 323.178 252.218C323.384 254.289 322.824 256.321 322.787 258.385Z" fill="#FDB301"/>
<path d="M392.491 265.742C393.182 263.808 393.569 261.726 394.743 260.005C394.118 264.965 395.036 269.991 396.649 274.679C398.862 280.634 401.819 286.278 404.971 291.78C400.672 292.023 396.374 292.261 392.075 292.5C391.508 290.291 390.756 288.118 390.542 285.841C389.819 279.101 390.402 272.203 392.491 265.742Z" fill="#FDB301"/>
<path d="M181.301 261.873C181.723 261.751 182.154 261.66 182.592 261.57C182.479 263.034 182.375 264.499 182.378 265.966C182.4 270.182 182.136 274.404 182.418 278.617C182.476 279.846 183.014 280.967 183.601 282.026C184.849 284.271 185.596 286.773 187.028 288.924C186.287 292.254 185.539 295.583 184.772 298.906C184.219 298.056 183.68 297.207 183.149 296.354C181.36 293.49 179.726 290.54 177.918 287.695C179.01 279.448 180.29 271.227 181.501 263.002C181.475 262.615 181.406 262.239 181.301 261.873Z" fill="#FDB301"/>
<path d="M107.92 266.787C109.255 266.784 110.422 267.398 111.272 268.41C109.75 270.619 108.939 273.218 107.736 275.601C105.028 283.208 100.317 290.11 98.9175 298.165C98.5267 300.617 98.6174 303.372 100.248 305.389C101.647 307.258 104.21 307.793 106.419 307.489C109.417 307.124 112.45 307.019 115.418 306.441C119.778 305.581 124.124 304.651 128.441 303.606C132.425 302.796 136.42 302.051 140.364 301.061C147.002 299.622 153.51 297.507 160.267 296.683C162.197 296.546 164.837 296.249 165.918 298.277C166.991 300.714 164.801 302.775 164.233 304.998C164.02 306.744 165.719 308.032 167.356 307.941C168.434 305.298 169.711 302.746 170.976 300.193C172.114 297.706 173.239 295.211 174.382 292.723C175.137 291.139 175.531 289.404 176.413 287.879C176.132 290.438 175.506 292.944 174.971 295.46C174.096 296.53 173.401 297.788 173.257 299.184C173.546 299.545 173.853 299.896 174.183 300.235C173.724 302.835 173.181 305.423 172.921 308.056C172.382 308.168 171.843 308.291 171.312 308.418C171.272 309.936 171.221 311.454 171.276 312.973C167.18 312.93 163.083 313.078 158.991 313.024C158.112 312.81 157.229 312.594 156.322 312.59C152.211 312.539 148.097 312.662 143.983 312.666C143.166 312.652 142.37 312.868 141.601 313.114C132.996 313.244 124.392 313.266 115.787 313.252C108.086 313.422 100.378 313.313 92.6769 313.454C92.0046 313.439 91.2993 313.461 90.6888 313.147L90.5371 313.078C90.9816 310.836 91.8602 308.706 92.482 306.512C94.9804 299.097 95.9023 291.233 98.6712 283.902C99.6291 281.613 100.627 279.343 101.56 277.046C103.112 273.302 105.481 269.991 107.92 266.787Z" fill="#FDB301"/>
<path d="M315.097 279.445C318.116 278.314 320.834 276.502 323.911 275.53C323.918 276.55 323.788 277.562 323.662 278.574C323.366 278.751 323.069 278.932 322.78 279.116C321.825 282.23 320.22 285.079 319.121 288.133C314.996 289.019 310.853 289.8 306.71 290.577C303.565 291.05 300.488 292.125 297.27 291.893C295.289 291.868 293.282 291.463 291.579 290.417C291.065 290.1 290.573 289.748 290.1 289.38C287.493 287.222 286.072 284.029 284.67 281.032C285.256 281.259 285.889 281.512 286.247 282.076C287.617 283.793 288.82 286.025 291.124 286.592C293.669 287.351 296.261 286.465 298.731 285.854C304.486 284.561 309.645 281.582 315.097 279.445Z" fill="#FDB301"/>
<path d="M410.783 306.203C419.236 306.2 427.682 305.802 436.135 305.791C438.814 305.824 441.529 305.383 444.176 306C444.078 306.875 444.005 307.757 443.933 308.639C443.405 309.515 442.971 310.444 442.479 311.34C426.648 311.452 410.808 311.517 394.981 311.614C393.589 311.564 392.2 311.571 390.812 311.6C390.841 309.86 390.668 308.126 390.281 306.43C397.113 306.698 403.95 306.345 410.783 306.203Z" fill="#FDB301"/>
<path d="M39.1917 206.782C39.5207 206.634 40.327 206.823 40.0887 207.314C39.7012 207.939 38.2442 207.227 39.1917 206.782Z" fill="#9966B4"/>
<path d="M256.736 307.732C257.81 307.696 258.887 307.761 259.939 308.01C258.674 309.047 259.43 310.993 259.173 312.424C247.658 312.569 236.143 312.511 224.628 312.645C217.632 312.826 210.636 312.385 203.64 312.757C197.245 312.761 190.849 312.938 184.453 312.863C184.42 311.742 184.42 310.621 184.446 309.504C201.214 309.449 217.979 309.363 234.748 309.24C242.072 309.226 249.401 309.272 256.722 309.048C256.726 308.719 256.733 308.061 256.736 307.732Z" fill="#9966B4"/>
<path d="M172.582 312.964C172.637 311.836 172.698 310.708 172.767 309.584C176.19 309.594 179.614 309.641 183.038 309.529C183.089 310.639 183.143 311.756 183.194 312.87C179.655 312.927 176.118 312.84 172.582 312.964Z" fill="#9966B4"/>
<path d="M394.979 311.615C410.807 311.517 426.646 311.453 442.478 311.341C446.176 311.352 449.874 311.225 453.573 311.25C463.671 311.312 473.765 311.106 483.86 311.077C486.85 311.087 489.839 311.077 492.833 311.077C492.843 315.918 493.039 320.752 492.992 325.597C473.197 325.724 453.399 325.655 433.605 325.785C414.917 325.911 396.229 325.832 377.54 325.962C357.417 326.085 337.289 326.027 317.166 326.15C299.935 326.291 282.7 326.175 265.465 326.32C240.645 326.454 215.822 326.385 191.003 326.591C165.083 326.522 139.169 326.819 113.253 326.779C96.138 326.822 79.0226 326.978 61.9104 326.956C43.4391 326.949 24.9719 327.165 6.50456 327.133C6.51901 322.745 6.35613 318.359 6.3457 313.973C11.2303 313.941 16.1109 313.868 20.9915 313.858C28.2004 313.713 35.4134 313.876 42.6264 313.731C43.5122 313.721 44.3979 313.717 45.2837 313.713C50.4716 313.724 55.6563 313.576 60.8441 313.608C69.5246 313.63 78.209 313.515 86.8935 313.435C88.0793 313.399 89.3197 313.608 90.4623 313.218L90.5345 313.081L90.6861 313.15C91.2967 313.465 92.0019 313.443 92.6743 313.458C100.375 313.316 108.083 313.425 115.784 313.255C124.389 313.27 132.993 313.248 141.598 313.118C147.393 313.039 153.189 313.118 158.988 313.027C163.081 313.082 167.176 312.934 171.273 312.977C171.703 312.974 172.141 312.97 172.579 312.967C176.114 312.844 179.65 312.93 183.19 312.873C183.606 312.865 184.025 312.862 184.448 312.865C190.844 312.942 197.24 312.764 203.635 312.76C210.631 312.388 217.627 312.829 224.623 312.648C236.138 312.514 247.653 312.572 259.168 312.427C259.602 312.424 260.039 312.424 260.481 312.427C270.401 312.315 280.329 312.377 290.249 312.254C290.604 312.254 291.313 312.254 291.666 312.254C300.061 312.088 308.46 312.254 316.855 312.084C319.385 312.044 321.92 312.131 324.451 312.008C325.463 311.972 326.493 312.037 327.491 311.816C328.858 312.069 330.25 312.004 331.635 311.993C340.905 312.004 350.174 311.903 359.444 311.806C369.404 311.838 379.361 311.733 389.322 311.632C391.208 311.673 393.092 311.669 394.979 311.615Z" fill="#275070"/>
<path d="M439.795 232.872C439.795 232.872 438.722 255.897 451.779 267.815C451.779 267.815 445.947 235.85 439.795 232.872Z" fill="#538BBA"/>
<path d="M439.795 232.872C448.156 243.022 443.418 257.665 451.779 267.815C460.875 264.696 469.971 261.576 479.067 258.457C470.706 248.306 475.444 233.664 467.083 223.513C457.987 226.632 448.891 229.752 439.795 232.872ZM461.896 254.039C458.561 255.183 455.226 256.326 451.892 257.47C451.796 257.123 451.706 256.775 451.621 256.425C454.955 255.282 458.29 254.138 461.625 252.994C461.711 253.344 461.801 253.692 461.896 254.039ZM470.049 247.452C463.729 249.619 457.409 251.787 451.09 253.954C451.023 253.598 450.959 253.241 450.896 252.883C457.215 250.716 463.535 248.548 469.854 246.381C469.916 246.739 469.981 247.096 470.049 247.452ZM469.452 243.865C463.133 246.032 456.813 248.2 450.494 250.368C450.44 250.007 450.387 249.646 450.334 249.285C456.653 247.118 462.973 244.95 469.292 242.783C469.345 243.144 469.398 243.505 469.452 243.865ZM468.919 240.258C462.6 242.425 456.28 244.593 449.961 246.76C449.905 246.4 449.849 246.04 449.791 245.681C456.11 243.514 462.43 241.346 468.75 239.179C468.807 239.538 468.863 239.898 468.919 240.258ZM468.303 236.678C461.983 238.845 455.663 241.013 449.344 243.18C449.274 242.825 449.2 242.471 449.122 242.119C455.441 239.952 461.761 237.784 468.08 235.617C468.159 235.969 468.233 236.323 468.303 236.678ZM467.462 233.175C461.143 235.342 454.823 237.51 448.503 239.677C448.403 239.332 448.297 238.99 448.186 238.649C454.505 236.482 460.825 234.314 467.144 232.147C467.256 232.488 467.361 232.831 467.462 233.175ZM466.252 229.8C459.933 231.967 453.613 234.135 447.294 236.302C447.149 235.972 446.997 235.645 446.837 235.321C453.156 233.153 459.476 230.986 465.795 228.818C465.956 229.143 466.107 229.47 466.252 229.8Z" fill="#EAE1EE"/>
<path d="M270.402 90.8093C270.402 90.8093 269.147 117.758 284.428 131.705C284.428 131.705 277.602 94.2955 270.402 90.8093Z" fill="#538BBA"/>
<path d="M270.402 90.8087C280.188 102.688 274.643 119.825 284.428 131.704C295.073 128.054 305.719 124.402 316.365 120.752C306.58 108.872 312.124 91.7354 302.339 79.8552C291.694 83.5066 281.048 87.1581 270.402 90.8087ZM296.269 115.582C292.365 116.921 288.463 118.26 284.56 119.598C284.449 119.193 284.344 118.784 284.243 118.375C288.146 117.037 292.049 115.698 295.952 114.36C296.052 114.77 296.157 115.177 296.269 115.582ZM305.81 107.873C298.414 110.41 291.018 112.947 283.622 115.484C283.543 115.067 283.467 114.649 283.395 114.23C290.79 111.694 298.186 109.157 305.583 106.621C305.655 107.038 305.731 107.456 305.81 107.873ZM305.113 103.676C297.717 106.212 290.321 108.749 282.924 111.285C282.861 110.863 282.799 110.44 282.737 110.018C290.133 107.482 297.528 104.945 304.925 102.408C304.987 102.832 305.049 103.254 305.113 103.676ZM304.488 99.4538C297.092 101.99 289.696 104.527 282.299 107.063C282.235 106.641 282.169 106.22 282.101 105.799C289.497 103.263 296.893 100.726 304.29 98.1901C304.357 98.6106 304.423 99.0318 304.488 99.4538ZM303.767 95.2632C296.371 97.7994 288.976 100.336 281.579 102.873C281.496 102.457 281.41 102.043 281.319 101.631C288.715 99.0944 296.111 96.5574 303.507 94.0212C303.598 94.4336 303.685 94.8484 303.767 95.2632ZM302.783 91.1649C295.387 93.7019 287.991 96.2381 280.594 98.7742C280.477 98.3707 280.354 97.9695 280.222 97.5699C287.618 95.0338 295.014 92.4968 302.411 89.9606C302.542 90.3594 302.666 90.7613 302.783 91.1649ZM301.367 87.2134C293.971 89.7496 286.575 92.2866 279.178 94.8227C279.009 94.4368 278.832 94.0541 278.644 93.6746C286.04 91.1384 293.436 88.6015 300.832 86.0653C301.02 86.4448 301.198 86.8275 301.367 87.2134Z" fill="#EAE1EE"/>
<path d="M48.0509 349.141C48.0509 349.141 48.7962 365.143 39.7227 373.425C39.7227 373.425 43.7752 351.211 48.0509 349.141Z" fill="#538BBA"/>
<path d="M29.086 342.637C23.2755 349.692 26.5683 359.867 20.7578 366.921C27.0794 369.089 33.4002 371.257 39.7217 373.425C45.5322 366.37 42.2395 356.195 48.05 349.141C41.7284 346.973 35.4076 344.805 29.086 342.637ZM32.8787 363.125C35.1958 363.92 37.5137 364.714 39.8309 365.51C39.7715 365.753 39.7089 365.995 39.6423 366.236C37.3252 365.441 35.0072 364.646 32.6901 363.851C32.7567 363.61 32.8193 363.368 32.8787 363.125ZM27.1604 358.529C31.5524 360.035 35.9436 361.542 40.3355 363.048C40.2922 363.297 40.2481 363.545 40.2007 363.793C35.8088 362.287 31.4176 360.78 27.0256 359.274C27.0722 359.026 27.1171 358.778 27.1604 358.529ZM27.5512 356.028C31.9431 357.534 36.3343 359.04 40.7263 360.547C40.6894 360.798 40.6525 361.049 40.6147 361.3C36.2228 359.794 31.8316 358.287 27.4396 356.781C27.4774 356.531 27.5143 356.28 27.5512 356.028ZM27.9283 353.524C32.3202 355.03 36.7114 356.536 41.1034 358.043C41.0632 358.293 41.0239 358.543 40.9854 358.793C36.5934 357.287 32.2023 355.781 27.8103 354.274C27.8488 354.023 27.8881 353.774 27.9283 353.524ZM28.3928 351.048C32.7848 352.554 37.1759 354.061 41.5679 355.567C41.5142 355.812 41.4628 356.058 41.4139 356.304C37.0219 354.798 32.6307 353.292 28.2388 351.786C28.2869 351.539 28.3382 351.293 28.3928 351.048ZM29.0435 348.637C33.4355 350.143 37.8266 351.649 42.2186 353.156C42.1408 353.393 42.067 353.631 41.998 353.871C37.606 352.365 33.2148 350.859 28.8229 349.352C28.8927 349.112 28.9657 348.874 29.0435 348.637ZM29.9806 346.324C34.3726 347.83 38.7638 349.336 43.1557 350.843C43.0442 351.068 42.9383 351.295 42.838 351.525C38.446 350.019 34.0549 348.513 29.6629 347.006C29.764 346.777 29.8691 346.55 29.9806 346.324Z" fill="#EAE1EE"/>
</svg>
