<svg width="44" height="44" viewBox="0 0 44 44" fill="none" xmlns="http://www.w3.org/2000/svg">
<path d="M25.3911 23.4019C26.1911 23.8721 26.7131 24.3727 26.9841 25.2656C27.0365 25.4989 27.0716 25.7326 27.1033 25.9695C27.1125 26.0339 27.1216 26.0983 27.1311 26.1646C27.1502 26.2995 27.1688 26.4345 27.1872 26.5695C27.2151 26.7748 27.2443 26.9798 27.2737 27.1849C27.2921 27.3169 27.3106 27.4489 27.3289 27.5809C27.3375 27.6414 27.3461 27.7019 27.3549 27.7643C27.4058 28.1437 27.4138 28.4869 27.4138 28.875C28.0661 28.875 28.7183 28.875 29.3904 28.875C29.3372 28.5985 29.284 28.3219 29.2292 28.0371C29.1821 27.7888 29.1352 27.5404 29.0885 27.2921C29.0546 27.1126 29.0202 26.9333 28.9855 26.754C28.7293 25.3542 28.7293 25.3542 29.0037 24.8627C29.2994 24.7075 29.5799 24.6633 29.906 24.75C30.1952 24.9449 30.2767 25.1392 30.3495 25.4677C30.3767 25.6185 30.4025 25.7696 30.427 25.9209C30.4409 26.0004 30.4549 26.0799 30.4692 26.1619C30.4978 26.3263 30.5257 26.4908 30.5531 26.6554C30.5914 26.886 30.6316 27.1161 30.6724 27.3462C30.6963 27.4834 30.7202 27.6206 30.7439 27.7578C30.7549 27.8209 30.7658 27.884 30.7771 27.949C30.83 28.2665 30.8513 28.5504 30.8513 28.875C31.3334 28.875 31.8155 28.875 32.3123 28.875C32.3083 28.7549 32.3043 28.6348 32.3002 28.5111C32.2969 28.3531 32.2938 28.1951 32.2908 28.0371C32.2879 27.958 32.285 27.8789 32.282 27.7974C32.2809 27.7209 32.2798 27.6445 32.2787 27.5657C32.2769 27.4955 32.2751 27.4253 32.2732 27.353C32.3286 27.0736 32.4255 26.9769 32.656 26.8125C32.9158 26.7887 32.9158 26.7887 33.2223 26.8114C33.3376 26.8168 33.4529 26.8217 33.5682 26.826C33.6287 26.8285 33.6893 26.8309 33.7517 26.8335C35.4924 26.8876 36.5987 26.2525 37.9841 25.2656C38.1358 25.1596 38.2879 25.0542 38.4401 24.9489C38.5788 24.8529 38.7172 24.7564 38.8555 24.6598C39.6247 24.135 40.2188 23.9439 41.1638 24.0625C41.7366 24.211 42.1236 24.6159 42.4529 25.0937C42.6566 25.4884 42.6502 25.851 42.6497 26.2846C42.6503 26.3604 42.6509 26.4362 42.6515 26.5143C42.6531 26.7642 42.6534 27.014 42.6536 27.264C42.6542 27.4379 42.6547 27.6118 42.6554 27.7856C42.6564 28.1498 42.6567 28.514 42.6566 28.8781C42.6566 29.345 42.6589 29.8119 42.6619 30.2788C42.6638 30.6378 42.6641 30.9967 42.6641 31.3557C42.6643 31.5279 42.665 31.7 42.6663 31.8722C42.668 32.1127 42.6675 32.3531 42.6665 32.5936C42.6675 32.6648 42.6684 32.736 42.6694 32.8094C42.6661 33.1158 42.6527 33.3047 42.4717 33.5571C42.281 33.6875 42.281 33.6875 41.9372 33.7734C41.9372 35.7869 41.9372 37.8004 41.9372 39.875C42.1641 39.875 42.391 39.875 42.6247 39.875C42.6247 40.3287 42.6247 40.7825 42.6247 41.25C29.0123 41.25 15.3998 41.25 1.37476 41.25C1.37476 40.7962 1.37476 40.3425 1.37476 39.875C1.60163 39.875 1.82851 39.875 2.06226 39.875C2.06226 38.3152 2.06226 36.7554 2.06226 35.1484C1.8921 35.0917 1.72194 35.035 1.54663 34.9765C1.36775 34.7082 1.35309 34.6481 1.35177 34.3432C1.35104 34.2665 1.35031 34.1898 1.34955 34.1107C1.34963 34.0267 1.34971 33.9428 1.34979 33.8562C1.34921 33.7676 1.34864 33.679 1.34804 33.5877C1.3464 33.2939 1.34607 33.0001 1.34589 32.7062C1.34534 32.5021 1.34476 32.2979 1.34415 32.0938C1.34312 31.6653 1.34281 31.2368 1.34291 30.8084C1.34293 30.26 1.34058 29.7116 1.33762 29.1633C1.3357 28.7413 1.33536 28.3194 1.33545 27.8975C1.33525 27.6954 1.33449 27.4932 1.33316 27.2911C1.33147 27.0079 1.33197 26.7247 1.333 26.4414C1.33204 26.3583 1.33107 26.2752 1.33008 26.1896C1.33581 25.5703 1.47562 25.1131 1.88736 24.6432C1.9433 24.5969 1.99925 24.5506 2.05689 24.5029C2.14047 24.4314 2.14047 24.4314 2.22574 24.3585C2.78275 23.9747 3.38492 23.9937 4.03882 24.0625C4.50181 24.2079 4.88242 24.4768 5.27518 24.7557C5.35047 24.8084 5.42575 24.8611 5.50332 24.9153C5.63417 25.0071 5.76498 25.099 5.89516 25.1917C7.624 26.4213 8.94654 26.9763 11.0878 26.7915C11.3435 26.8125 11.3435 26.8125 11.5481 26.9584C11.7083 27.1861 11.7279 27.2907 11.7208 27.5657C11.7197 27.6422 11.7186 27.7186 11.7175 27.7974C11.7146 27.8765 11.7117 27.9556 11.7087 28.0371C11.7072 28.1175 11.7056 28.1979 11.704 28.2808C11.7 28.4789 11.6938 28.6769 11.6873 28.875C12.1694 28.875 12.6515 28.875 13.1482 28.875C13.1582 28.7461 13.1681 28.6173 13.1784 28.4845C13.2305 27.9139 13.3164 27.3503 13.41 26.7852C13.4384 26.6126 13.4655 26.4399 13.4926 26.2671C13.5108 26.1567 13.5289 26.0463 13.5477 25.9326C13.5638 25.8333 13.5799 25.734 13.5965 25.6317C13.6678 25.335 13.768 25.0991 13.9216 24.8359C14.198 24.6977 14.4813 24.7109 14.781 24.75C14.9958 24.8627 14.9958 24.8627 15.1248 25.0937C15.202 25.8003 15.0684 26.5038 14.9459 27.1977C14.9149 27.373 14.8851 27.5486 14.8554 27.7242C14.7093 28.5746 14.7093 28.5746 14.6091 28.875C15.2614 28.875 15.9137 28.875 16.5857 28.875C16.5967 28.7017 16.6076 28.5284 16.6189 28.3499C16.6648 27.7119 16.7386 27.0807 16.8274 26.4472C16.8405 26.3451 16.8536 26.2429 16.8672 26.1377C16.9898 25.2598 17.1225 24.5142 17.8479 23.9459C17.9463 23.876 17.9463 23.876 18.0466 23.8046C18.1503 23.7299 18.1503 23.7299 18.2561 23.6536C20.4168 22.1967 23.1249 22.193 25.3911 23.4019ZM18.6938 25.1676C18.295 25.7252 18.2998 26.5995 18.2078 27.2583C18.1921 27.3663 18.1765 27.4744 18.1604 27.5857C18.0986 28.0224 18.0466 28.4328 18.0466 28.875C18.4437 28.875 18.8407 28.875 19.2498 28.875C19.2516 28.7364 19.2516 28.7364 19.2536 28.595C19.2585 28.2524 19.2652 27.9099 19.2723 27.5673C19.2752 27.419 19.2776 27.2707 19.2795 27.1224C19.2824 26.9093 19.2869 26.6962 19.2917 26.4831C19.2923 26.4168 19.2928 26.3505 19.2934 26.2821C19.306 25.8238 19.306 25.8238 19.4377 25.6348C19.6518 25.4817 19.7984 25.4907 20.0605 25.49C20.156 25.4892 20.2514 25.4884 20.3498 25.4876C20.453 25.4881 20.5561 25.4886 20.6624 25.4892C20.7682 25.4889 20.874 25.4887 20.9831 25.4884C21.2644 25.4882 21.5457 25.4892 21.8271 25.4907C21.9996 25.4912 22.1721 25.4907 22.3446 25.4898C22.6755 25.4882 23.0063 25.4884 23.3372 25.4892C23.4918 25.4884 23.4918 25.4884 23.6497 25.4876C23.7929 25.4888 23.7929 25.4888 23.9391 25.49C24.0653 25.4903 24.0653 25.4903 24.194 25.4907C24.406 25.5234 24.406 25.5234 24.5618 25.6348C24.738 25.8876 24.7053 26.1853 24.7078 26.4831C24.7093 26.5514 24.7109 26.6197 24.7125 26.6901C24.7171 26.9081 24.72 27.1261 24.7229 27.3442C24.7257 27.4921 24.7287 27.6399 24.7318 27.7878C24.7391 28.1502 24.7448 28.5125 24.7498 28.875C25.1468 28.875 25.5438 28.875 25.9529 28.875C25.8974 28.1246 25.8108 27.3847 25.7004 26.6406C25.6859 26.5374 25.6713 26.4343 25.6563 26.328C25.6417 26.2291 25.6272 26.1302 25.6121 26.0283C25.5927 25.895 25.5927 25.895 25.5729 25.759C25.501 25.4183 25.4487 25.2446 25.1531 25.0473C25.0723 25.0065 24.9915 24.9656 24.9082 24.9235C24.8204 24.8785 24.7325 24.8334 24.642 24.787C24.5499 24.7411 24.4579 24.6952 24.363 24.6479C24.271 24.601 24.1789 24.5541 24.0841 24.5057C23.8481 24.3857 23.6116 24.2667 23.3748 24.1484C23.318 24.12 23.2613 24.0917 23.2029 24.0625C21.4795 23.8597 20.0892 24.1166 18.6938 25.1676ZM2.97534 25.6792C2.70047 26.0492 2.73809 26.4236 2.74 26.8642C2.73999 26.9397 2.73997 27.0152 2.73996 27.0929C2.74002 27.3426 2.74069 27.5923 2.74136 27.842C2.74152 28.0151 2.74165 28.1881 2.74173 28.3611C2.74206 28.8168 2.74291 29.2724 2.74386 29.728C2.74473 30.1929 2.74513 30.6577 2.74556 31.1226C2.74648 32.0348 2.74795 32.9471 2.74976 33.8593C2.8573 33.8949 2.96483 33.9304 3.07563 33.967C3.47483 34.0991 3.87391 34.2314 4.27296 34.3639C4.44565 34.4212 4.61836 34.4784 4.79111 34.5355C5.03949 34.6176 5.28776 34.7 5.53601 34.7825C5.61319 34.8079 5.69036 34.8333 5.76988 34.8595C5.84212 34.8836 5.91435 34.9077 5.98878 34.9325C6.05213 34.9535 6.11549 34.9745 6.18077 34.9961C6.6711 35.1785 6.6711 35.1785 6.79295 35.3926C7.08544 36.2652 7.33024 37.152 7.57837 38.038C7.64855 38.2883 7.71883 38.5386 7.78946 38.7887C7.83316 38.9435 7.87659 39.0983 7.91973 39.2532C7.9906 39.5908 7.9906 39.5908 8.16382 39.875C8.35171 39.8812 8.53979 39.8822 8.72778 39.8803C8.88215 39.8792 8.88215 39.8792 9.03964 39.878C9.15912 39.8765 9.15912 39.8765 9.28101 39.875C9.22103 39.2831 9.04944 38.7276 8.8822 38.1582C8.85092 38.0514 8.81963 37.9445 8.78739 37.8344C8.72127 37.6091 8.65474 37.3839 8.58801 37.1588C8.50289 36.8712 8.41946 36.5832 8.33642 36.2951C8.25637 36.0188 8.17438 35.7431 8.09265 35.4673C8.06318 35.3643 8.03371 35.2612 8.00335 35.1551C7.7541 34.3274 7.40676 33.9766 6.673 33.5582C6.61339 33.5234 6.55377 33.4886 6.49235 33.4527C6.30328 33.3423 6.11374 33.2328 5.92407 33.1235C5.73413 33.0138 5.54432 32.9039 5.35487 32.7934C5.23743 32.7248 5.1197 32.6568 5.00165 32.5893C4.38098 32.2274 4.38098 32.2274 4.21069 31.9687C4.16114 31.6596 4.16462 31.3543 4.16806 31.0419C4.16794 30.9514 4.16781 30.8609 4.16768 30.7677C4.16782 30.5767 4.16882 30.3856 4.1706 30.1945C4.17309 29.9016 4.17237 29.6088 4.17125 29.3159C4.17179 29.1303 4.17251 28.9447 4.17343 28.7591C4.17318 28.6713 4.17293 28.5835 4.17267 28.493C4.1743 28.3708 4.1743 28.3708 4.17597 28.2462C4.17643 28.1745 4.1769 28.1028 4.17738 28.029C4.21872 27.799 4.28235 27.7239 4.46851 27.5859C5.08434 27.4647 5.48161 27.7433 6.00258 28.0444C7.46858 28.8915 8.62895 29.0509 10.3123 28.875C10.3123 28.6481 10.3123 28.4212 10.3123 28.1875C10.2524 28.1925 10.1926 28.1975 10.1309 28.2027C8.21705 28.3311 7.09887 27.789 5.56254 26.7405C5.25153 26.5315 4.93376 26.3326 4.61664 26.133C4.39278 25.9906 4.18448 25.8453 3.98028 25.6755C3.78142 25.4979 3.78142 25.4979 3.47485 25.4804C3.17665 25.4994 3.17665 25.4994 2.97534 25.6792ZM39.812 25.8175C39.1933 26.2811 38.5326 26.6643 37.866 27.0542C37.7414 27.1275 37.6169 27.2008 37.4923 27.2742C37.2649 27.4082 37.0372 27.542 36.8094 27.6755C36.6384 27.776 36.4695 27.8804 36.3057 27.9922C36.0353 28.1315 35.8285 28.1386 35.5252 28.1455C35.3644 28.1501 35.3644 28.1501 35.2004 28.1547C35.0892 28.1567 34.9781 28.1586 34.8635 28.1606C34.7507 28.1635 34.6379 28.1665 34.5216 28.1695C34.2435 28.1766 33.9654 28.1825 33.6873 28.1875C33.6873 28.4143 33.6873 28.6412 33.6873 28.875C35.4572 29.0599 36.6194 28.8406 38.1525 27.9545C38.981 27.4777 38.981 27.4777 39.531 27.5859C39.6757 27.6971 39.6757 27.6971 39.7888 27.8437C39.8155 28.1047 39.827 28.3476 39.8261 28.6087C39.8265 28.6839 39.827 28.759 39.8274 28.8364C39.828 28.9952 39.8279 29.1541 39.8271 29.3129C39.8264 29.5559 39.8289 29.7987 39.8316 30.0417C39.8318 30.196 39.8317 30.3504 39.8314 30.5047C39.8324 30.5774 39.8334 30.65 39.8344 30.7248C39.8284 31.2263 39.8284 31.2263 39.6433 31.483C39.4262 31.6385 39.2088 31.7848 38.9801 31.9231C38.843 32.0066 38.843 32.0066 38.7032 32.0918C38.6049 32.151 38.5067 32.2103 38.4084 32.2695C38.2059 32.3926 38.0035 32.516 37.8012 32.6394C37.7508 32.6701 37.7004 32.7007 37.6485 32.7323C37.1986 33.0063 36.7529 33.2866 36.3083 33.5693C35.7829 33.9029 35.2555 34.2321 34.7185 34.5468C34.7667 34.8435 34.8373 35.0673 34.9901 35.3256C35.0489 35.4266 35.0489 35.4266 35.1089 35.5296C35.152 35.6023 35.1951 35.675 35.2395 35.75C35.5671 36.3113 35.8894 36.8748 36.2009 37.4452C36.2317 37.5015 36.2625 37.5577 36.2942 37.6157C36.4172 37.8409 36.5402 38.0661 36.6623 38.2917C36.7482 38.4502 36.8345 38.6084 36.921 38.7665C36.9707 38.8581 37.0204 38.9496 37.0716 39.044C37.1905 39.2402 37.2974 39.381 37.4685 39.5312C37.3798 38.9605 37.2552 38.4027 37.1107 37.844C37.0936 37.778 37.0766 37.712 37.0591 37.6441C36.9881 37.3693 36.9167 37.0947 36.8442 36.8204C36.7907 36.6175 36.7385 36.4144 36.6863 36.2112C36.67 36.1505 36.6536 36.0898 36.6367 36.0272C36.5291 35.6034 36.4436 35.154 36.5232 34.7187C36.7068 34.473 36.9332 34.3777 37.2112 34.2594C37.2987 34.2219 37.3861 34.1843 37.4762 34.1456C37.5705 34.1059 37.6648 34.0661 37.7619 34.0252C37.907 33.9631 37.907 33.9631 38.055 33.8997C38.3641 33.7675 38.6736 33.6361 38.9831 33.5048C39.2932 33.3728 39.6033 33.2406 39.9132 33.1081C40.1062 33.0257 40.2993 32.9435 40.4925 32.8616C40.5794 32.8246 40.6663 32.7876 40.7558 32.7495C40.8327 32.7169 40.9096 32.6842 40.9888 32.6506C41.1595 32.5845 41.1595 32.5845 41.2497 32.4843C41.2592 32.2894 41.2626 32.0942 41.2636 31.899C41.264 31.8378 41.2645 31.7766 41.2649 31.7135C41.2662 31.51 41.2667 31.3065 41.2672 31.103C41.2677 30.9617 41.2682 30.8205 41.2687 30.6793C41.2696 30.3826 41.2701 30.0859 41.2704 29.7892C41.2709 29.4095 41.2729 29.0299 41.2754 28.6503C41.277 28.3583 41.2774 28.0663 41.2776 27.7742C41.2778 27.6344 41.2785 27.4945 41.2796 27.3546C41.2811 27.1583 41.2809 26.9621 41.2804 26.7659C41.2807 26.6543 41.281 26.5428 41.2813 26.4278C41.247 26.0984 41.1652 25.89 40.9919 25.6093C40.5067 25.3667 40.2119 25.504 39.812 25.8175ZM20.6248 26.8125C20.6248 27.4931 20.6248 28.1737 20.6248 28.875C21.5323 28.875 22.4398 28.875 23.3748 28.875C23.3748 28.1943 23.3748 27.5137 23.3748 26.8125C22.4673 26.8125 21.5598 26.8125 20.6248 26.8125ZM5.49976 29.3906C5.33895 29.9906 5.23708 30.6135 5.49976 31.1953C6.09016 31.781 6.87296 32.1394 7.61028 32.5074C7.87803 32.6421 8.14135 32.7805 8.40182 32.9288C8.46794 32.966 8.53405 33.0032 8.60217 33.0415C8.93892 33.3104 9.00534 33.7159 9.10913 34.1171C9.14702 34.246 9.18544 34.3746 9.22427 34.5032C9.33202 34.8607 9.43613 35.2191 9.53882 35.5781C9.56718 35.5781 9.59554 35.5781 9.62476 35.5781C9.62476 33.8198 9.62476 32.0615 9.62476 30.25C8.43366 30.2074 8.43366 30.2074 7.21851 30.164C6.64271 29.9168 6.1883 29.7079 5.67163 29.3906C5.61491 29.3906 5.55819 29.3906 5.49976 29.3906ZM38.0573 29.5567C36.8463 30.2906 35.781 30.2568 34.3748 30.25C34.3748 31.1858 34.3748 32.1217 34.3748 33.0859C35.0596 32.6864 35.7372 32.2862 36.4024 31.8566C36.7524 31.6311 37.1028 31.415 37.4685 31.2157C38.1883 30.8502 38.1883 30.8502 38.5904 30.2003C38.591 29.915 38.5671 29.6673 38.4998 29.3906C38.2994 29.3756 38.2994 29.3756 38.0573 29.5567ZM10.9998 30.25C10.9998 30.7037 10.9998 31.1575 10.9998 31.625C18.2598 31.625 25.5198 31.625 32.9998 31.625C32.9998 31.1712 32.9998 30.7175 32.9998 30.25C25.7398 30.25 18.4798 30.25 10.9998 30.25ZM10.9998 33C10.9998 35.2687 10.9998 37.5375 10.9998 39.875C11.4535 39.875 11.9073 39.875 12.3748 39.875C12.3748 37.6062 12.3748 35.3375 12.3748 33C11.921 33 11.4673 33 10.9998 33ZM13.7498 33C13.7498 35.2687 13.7498 37.5375 13.7498 39.875C15.7349 39.875 17.7201 39.875 19.7654 39.875C19.7051 38.9711 19.6431 38.0757 19.5366 37.1773C19.5207 37.038 19.5064 36.8984 19.4934 36.7587C19.3988 35.733 19.3988 35.733 18.8201 34.9033C18.7457 34.8422 18.6714 34.7811 18.5948 34.7182C18.0179 34.2347 17.9565 33.7358 17.8748 33C16.5135 33 15.1523 33 13.7498 33ZM19.2498 33C19.3849 33.4661 19.3849 33.4661 19.658 33.7764C19.7032 33.8193 19.7484 33.8623 19.7949 33.9065C19.8419 33.9494 19.8889 33.9923 19.9373 34.0366C20.4181 34.4794 20.6203 34.8125 20.6981 35.4657C20.7099 35.5617 20.7216 35.6578 20.7337 35.7567C20.7457 35.8595 20.7577 35.9623 20.7701 36.0682C20.783 36.1742 20.7959 36.2802 20.8092 36.3894C20.8434 36.6702 20.877 36.951 20.9104 37.2319C20.9576 37.6289 21.0053 38.0259 21.0535 38.4228C21.0791 38.634 21.1044 38.8452 21.1293 39.0566C21.1408 39.1515 21.1522 39.2465 21.1641 39.3443C21.174 39.4283 21.184 39.5123 21.1943 39.5989C21.207 39.7863 21.207 39.7863 21.3123 39.875C21.5423 39.8835 21.7697 39.8869 21.9998 39.8857C22.0965 39.8862 22.0965 39.8862 22.1951 39.8867C22.5099 39.9159 22.5099 39.9159 22.7732 39.789C22.7976 39.6419 22.8169 39.4938 22.8341 39.3457C22.8509 39.2037 22.8509 39.2037 22.868 39.0588C22.8859 38.904 22.8859 38.904 22.9041 38.746C22.93 38.5293 22.956 38.3126 22.982 38.0959C23.0227 37.753 23.0633 37.4099 23.103 37.0668C23.1415 36.7366 23.1812 36.4066 23.221 36.0766C23.2326 35.9742 23.2441 35.8719 23.256 35.7665C23.3305 35.1573 23.407 34.6328 23.8803 34.2001C23.9256 34.1571 23.9709 34.1142 24.0176 34.07C24.1124 33.9828 24.2072 33.8957 24.3023 33.8088C24.6034 33.5228 24.6642 33.4278 24.7498 33C22.9348 33 21.1198 33 19.2498 33ZM26.1248 33C26.0964 33.2552 26.068 33.5104 26.0388 33.7734C25.842 34.2684 25.5457 34.6196 25.1338 34.949C24.5656 35.5091 24.5655 36.2079 24.4919 36.9638C24.4758 37.1026 24.4593 37.2414 24.4426 37.3801C24.3457 38.2109 24.2899 39.039 24.2341 39.875C26.2193 39.875 28.2044 39.875 30.2498 39.875C30.2498 37.6062 30.2498 35.3375 30.2498 33C28.8885 33 27.5273 33 26.1248 33ZM31.6248 33C31.6248 35.2687 31.6248 37.5375 31.6248 39.875C32.0785 39.875 32.5323 39.875 32.9998 39.875C32.9998 37.6062 32.9998 35.3375 32.9998 33C32.546 33 32.0923 33 31.6248 33ZM39.4465 34.8014C39.3311 34.85 39.2156 34.8983 39.0999 34.9462C38.9335 35.015 38.7676 35.0851 38.6018 35.1554C38.4521 35.2182 38.4521 35.2182 38.2993 35.2823C38.044 35.3865 38.044 35.3865 37.9841 35.664C38.0103 35.8578 38.0103 35.8578 38.0677 36.0706C38.088 36.1529 38.1084 36.2352 38.1294 36.3199C38.1521 36.4086 38.1749 36.4972 38.1983 36.5885C38.2211 36.6795 38.2439 36.7705 38.2674 36.8642C38.3158 37.0566 38.3645 37.2489 38.4135 37.4411C38.4888 37.7365 38.563 38.0321 38.637 38.3277C38.6841 38.5143 38.7312 38.7008 38.7784 38.8873C38.8008 38.9763 38.8231 39.0653 38.8462 39.157C38.8671 39.2387 38.888 39.3205 38.9096 39.4047C38.928 39.477 38.9464 39.5493 38.9653 39.6238C39.0009 39.7881 39.0009 39.7881 39.1013 39.875C39.5834 39.875 40.0655 39.875 40.5623 39.875C40.5623 38.06 40.5623 36.245 40.5623 34.375C40.2102 34.375 39.7762 34.6618 39.4465 34.8014ZM3.43726 35.664C3.43726 37.0536 3.43726 38.4432 3.43726 39.875C4.48655 39.875 5.53585 39.875 6.61694 39.875C6.39469 39.0457 6.39469 39.0457 6.17047 38.217C6.08179 37.8898 5.99491 37.5626 5.914 37.2334C5.88719 37.1285 5.86038 37.0236 5.83276 36.9155C5.81127 36.827 5.78978 36.7385 5.76764 36.6473C5.61703 36.3181 5.39423 36.2384 5.06625 36.1119C4.86449 36.0395 4.66163 35.972 4.45776 35.9057C4.38808 35.8823 4.3184 35.8589 4.24661 35.8347C3.85062 35.7025 3.85062 35.7025 3.43726 35.664ZM34.3748 37.2109C34.3748 38.09 34.3748 38.9692 34.3748 39.875C34.8569 39.875 35.339 39.875 35.8357 39.875C35.7048 39.4824 35.5837 39.1915 35.3838 38.839C35.3301 38.7437 35.2764 38.6485 35.221 38.5503C35.1651 38.4522 35.1091 38.354 35.0515 38.2529C34.9943 38.1518 34.9371 38.0506 34.88 37.9494C34.7406 37.703 34.6008 37.4569 34.4607 37.2109C34.4323 37.2109 34.404 37.2109 34.3748 37.2109Z" fill="white"/>
<path d="M24.928 3.41253C25.0058 3.41196 25.0835 3.41138 25.1636 3.41078C25.4202 3.40915 25.6768 3.40882 25.9335 3.40863C26.1123 3.40808 26.2912 3.4075 26.47 3.4069C26.8449 3.40587 27.2197 3.40555 27.5946 3.40565C28.074 3.40567 28.5533 3.40332 29.0327 3.40036C29.4022 3.39845 29.7716 3.3981 30.1411 3.39819C30.3177 3.39799 30.4944 3.39723 30.6711 3.3959C30.9188 3.39421 31.1663 3.39472 31.4139 3.39575C31.5225 3.3943 31.5225 3.3943 31.6333 3.39282C32.2178 3.39899 32.665 3.56289 33.1069 3.9501C33.1532 4.00605 33.1995 4.06199 33.2472 4.11963C33.2949 4.17535 33.3425 4.23107 33.3916 4.28848C33.6773 4.70314 33.7107 5.07644 33.6984 5.56983C33.6976 5.62937 33.6968 5.68891 33.696 5.75026C33.694 5.89602 33.6909 6.04176 33.6876 6.1875C33.7856 6.1857 33.8835 6.1839 33.9844 6.18205C34.3502 6.17579 34.716 6.17187 35.0818 6.16862C35.2397 6.1669 35.3976 6.16456 35.5554 6.16157C35.7833 6.15737 36.011 6.15544 36.2389 6.15393C36.3087 6.15216 36.3784 6.15038 36.4503 6.14856C37.0343 6.14833 37.4783 6.3136 37.9194 6.7001C37.9657 6.75605 38.012 6.81199 38.0597 6.86963C38.1074 6.92535 38.155 6.98107 38.2041 7.03848C38.4589 7.40829 38.5219 7.73027 38.5251 8.17541C38.5262 8.27984 38.5273 8.38426 38.5284 8.49184C38.5286 8.60401 38.5288 8.71619 38.529 8.83176C38.5296 8.94895 38.5301 9.06615 38.5308 9.18335C38.5318 9.42874 38.5321 9.67412 38.532 9.91951C38.532 10.2325 38.5343 10.5453 38.5373 10.8583C38.5392 11.1003 38.5395 11.3423 38.5395 11.5844C38.5398 11.7554 38.5416 11.9264 38.5435 12.0973C38.5399 12.8169 38.4726 13.304 37.9845 13.8598C37.9278 13.9069 37.8711 13.9539 37.8126 14.0024C37.7559 14.0511 37.6992 14.0997 37.6408 14.1498C37.4643 14.2687 37.3304 14.3061 37.1251 14.3516C37.1269 14.4253 37.1287 14.499 37.1306 14.5749C37.1365 14.8491 37.1408 15.1232 37.144 15.3975C37.1458 15.516 37.1481 15.6345 37.1511 15.753C37.1553 15.9237 37.157 16.0943 37.1587 16.265C37.1605 16.3676 37.1623 16.4702 37.1642 16.576C37.1251 16.8438 37.1251 16.8438 36.9941 17.0518C36.755 17.2043 36.5736 17.2483 36.2896 17.2327C35.8793 17.138 35.5509 16.8842 35.2087 16.6484C35.1263 16.5935 35.044 16.5386 34.9591 16.482C34.6972 16.3068 34.4368 16.1295 34.1764 15.9521C33.9997 15.8334 33.8228 15.7148 33.6459 15.5963C33.2572 15.3357 32.8695 15.0738 32.4826 14.8106C32.0894 14.5438 31.8435 14.4993 31.3771 14.4999C31.2401 14.4982 31.103 14.4964 30.966 14.4946C30.7509 14.4926 30.5357 14.4912 30.3206 14.4907C30.1123 14.4899 29.9042 14.487 29.6959 14.4838C29.6326 14.4843 29.5693 14.4847 29.5041 14.4851C28.9475 14.4748 28.504 14.2953 28.0839 13.9279C28.0384 13.8728 27.9929 13.8176 27.9459 13.7607C27.876 13.6787 27.876 13.6787 27.8046 13.5949C27.6475 13.3713 27.5344 13.1357 27.4142 12.8906C27.3475 12.9375 27.2808 12.9843 27.2121 13.0326C26.9625 13.2069 26.7119 13.3797 26.4606 13.5515C26.3524 13.626 26.2445 13.701 26.1371 13.7766C25.9819 13.8857 25.8255 13.9925 25.6686 14.0991C25.6214 14.133 25.5742 14.1668 25.5256 14.2017C25.1313 14.4648 24.8647 14.4968 24.4064 14.4375C24.1937 14.3018 24.1937 14.3018 24.0626 14.0938C24.0236 13.826 24.0236 13.826 24.0291 13.515C24.0307 13.348 24.0307 13.348 24.0324 13.1776C24.0353 13.0605 24.0382 12.9433 24.0412 12.8262C24.0429 12.7077 24.0445 12.5892 24.0459 12.4707C24.0499 12.1809 24.0556 11.8913 24.0626 11.6016C23.9811 11.5758 23.8996 11.5501 23.8156 11.5236C23.5495 11.4306 23.4244 11.3537 23.2301 11.1558C23.1819 11.1085 23.1338 11.0612 23.0841 11.0124C22.6173 10.3919 22.6487 9.77788 22.6504 9.02646C22.65 8.90951 22.6495 8.79256 22.649 8.67561C22.6483 8.43124 22.6485 8.18689 22.6493 7.94253C22.6503 7.63093 22.6486 7.31942 22.6461 7.00784C22.6445 6.76652 22.6445 6.52522 22.645 6.2839C22.645 6.11368 22.6436 5.94347 22.6421 5.77326C22.6476 5.05867 22.7161 4.57078 23.2003 4.01825C23.2562 3.97194 23.3121 3.92564 23.3698 3.87793C23.4255 3.8303 23.4812 3.78266 23.5386 3.73358C23.9908 3.42203 24.3966 3.41197 24.928 3.41253ZM24.2345 5.07031C24.0734 5.35304 24.0408 5.59732 24.039 5.91926C24.0382 6.00015 24.0374 6.08104 24.0366 6.16438C24.0366 6.25077 24.0367 6.33717 24.0368 6.42618C24.0364 6.51591 24.0361 6.60563 24.0357 6.69808C24.0352 6.88755 24.0351 7.07702 24.0355 7.26648C24.0358 7.5558 24.0338 7.84504 24.0316 8.13435C24.0314 8.31871 24.0313 8.50306 24.0314 8.68741C24.0306 8.77363 24.0298 8.85985 24.029 8.94868C24.0321 9.40786 24.0525 9.7485 24.3205 10.1406C24.5472 10.2686 24.5472 10.2686 24.8039 10.334C24.959 10.3804 25.1133 10.4298 25.2658 10.4844C25.3667 10.6863 25.3689 10.8239 25.3789 11.049C25.3825 11.126 25.3861 11.203 25.3898 11.2823C25.3932 11.3629 25.3966 11.4434 25.4001 11.5264C25.4038 11.6076 25.4075 11.6888 25.4113 11.7724C25.4204 11.9733 25.4292 12.1741 25.4376 12.375C25.6131 12.2847 25.7844 12.1902 25.9549 12.0907C26.1472 11.9816 26.3358 11.8861 26.5351 11.7919C27.172 11.4694 27.172 11.4694 27.5694 10.9042C27.6666 10.3918 27.6311 9.87423 27.6022 9.35645C27.5943 9.1241 27.5883 8.89185 27.584 8.6594C27.5808 8.51566 27.5753 8.37194 27.5671 8.22839C27.5457 7.65539 27.7037 7.22297 28.0799 6.78705C28.1279 6.74872 28.1758 6.71039 28.2252 6.6709C28.273 6.63124 28.3207 6.59158 28.3699 6.55072C28.8144 6.26059 29.221 6.24505 29.7362 6.23785C29.81 6.23619 29.8838 6.23453 29.9598 6.23281C30.1944 6.22769 30.4291 6.22369 30.6637 6.21973C30.8232 6.21644 30.9827 6.21309 31.1423 6.20966C31.5324 6.20142 31.9225 6.19419 32.3126 6.1875C32.3158 6.02632 32.3158 6.02632 32.319 5.86188C32.3202 5.80143 32.3214 5.74099 32.3226 5.67872C32.3069 5.39661 32.2137 5.21441 32.0548 4.98438C31.6972 4.79132 31.3505 4.78753 30.9534 4.7889C30.854 4.78824 30.854 4.78824 30.7526 4.78757C30.5342 4.78638 30.3158 4.78645 30.0974 4.78665C29.9451 4.78632 29.7928 4.78595 29.6405 4.78554C29.3216 4.7849 29.0027 4.78492 28.6837 4.78537C28.2756 4.78587 27.8675 4.78442 27.4594 4.78242C27.145 4.78115 26.8305 4.78108 26.5161 4.78135C26.3656 4.7813 26.2152 4.78085 26.0648 4.77999C25.8541 4.77893 25.6436 4.77951 25.433 4.78051C25.3403 4.77952 25.3403 4.77952 25.2458 4.77851C24.8471 4.78266 24.5657 4.84487 24.2345 5.07031ZM29.047 7.82031C28.8683 8.12565 28.8546 8.39403 28.8584 8.74313C28.8589 8.8348 28.8595 8.92647 28.86 9.02092C28.8615 9.11569 28.8629 9.21046 28.8644 9.30811C28.8652 9.40454 28.866 9.50097 28.8668 9.60033C28.8688 9.83774 28.8716 10.0751 28.8751 10.3125C29.2573 10.3189 29.6395 10.3236 30.0218 10.3267C30.1516 10.328 30.2815 10.3297 30.4113 10.332C30.5986 10.3351 30.7859 10.3365 30.9732 10.3377C31.0857 10.339 31.1983 10.3404 31.3142 10.3418C31.6558 10.3096 31.857 10.2468 32.1408 10.0547C32.3195 9.74935 32.3332 9.48097 32.3294 9.13187C32.3286 8.99436 32.3286 8.99436 32.3278 8.85408C32.3263 8.75931 32.3249 8.66454 32.3234 8.5669C32.3226 8.47046 32.3218 8.37403 32.321 8.27467C32.319 8.03726 32.3162 7.79989 32.3126 7.5625C31.9305 7.5561 31.5483 7.55144 31.166 7.54834C31.0362 7.54705 30.9063 7.54529 30.7765 7.54305C30.5892 7.5399 30.4019 7.53846 30.2146 7.53732C30.1021 7.53597 29.9895 7.53462 29.8736 7.53323C29.532 7.56538 29.3308 7.62823 29.047 7.82031ZM33.6876 7.5625C33.6868 7.6396 33.686 7.71671 33.6852 7.79614C33.6814 8.08513 33.6761 8.37401 33.6698 8.66295C33.6674 8.78745 33.6656 8.91197 33.6644 9.03649C33.6562 9.8221 33.648 10.4621 33.1079 11.088C33.0599 11.1263 33.012 11.1646 32.9626 11.2041C32.9148 11.2438 32.8671 11.2834 32.8179 11.3243C32.3991 11.5976 32.0067 11.6277 31.5171 11.6311C31.4159 11.633 31.4159 11.633 31.3127 11.6349C31.0253 11.6402 30.738 11.6437 30.4506 11.6473C30.2403 11.6502 30.0301 11.654 29.8198 11.658C29.7223 11.6586 29.7223 11.6586 29.6228 11.6593C29.2998 11.6655 29.1506 11.6758 28.8751 11.8594C28.8909 12.3879 28.8909 12.3879 29.1222 12.8477C29.4767 13.0979 29.7408 13.0563 30.1588 13.0202C32.3796 12.8869 33.6989 13.5958 35.4274 14.9449C35.626 15.1337 35.626 15.1337 35.7501 15.125C35.7514 15.0743 35.7527 15.0236 35.7539 14.9713C35.7603 14.7414 35.7687 14.5116 35.777 14.2817C35.7789 14.2019 35.7809 14.1221 35.7829 14.0399C35.7874 13.9248 35.7874 13.9248 35.7921 13.8074C35.7944 13.7367 35.7966 13.6661 35.7989 13.5933C35.844 13.3663 35.9136 13.2895 36.0939 13.1484C36.2882 13.0819 36.4822 13.0353 36.682 12.9883C36.9659 12.8387 37.01 12.6738 37.1251 12.375C37.1623 12.0633 37.1613 11.7541 37.1594 11.4404C37.1596 11.3508 37.1599 11.2612 37.1601 11.1689C37.1603 10.9799 37.1598 10.791 37.1588 10.602C37.1574 10.3135 37.1587 10.025 37.1604 9.73645C37.1602 9.55249 37.1599 9.36853 37.1594 9.18457C37.1599 9.09862 37.1604 9.01267 37.161 8.92412C37.1564 8.47049 37.1449 8.1141 36.8673 7.73438C36.5252 7.52428 36.188 7.54258 35.7941 7.54572C35.7337 7.54596 35.6733 7.5462 35.611 7.54645C35.4192 7.54741 35.2275 7.54957 35.0358 7.55176C34.9053 7.55262 34.7747 7.55341 34.6442 7.55411C34.3253 7.556 34.0065 7.55896 33.6876 7.5625Z" fill="white"/>
<path d="M5.11647 5.47503C5.20763 5.47446 5.29879 5.47388 5.39271 5.47328C5.69398 5.47165 5.99523 5.47132 6.2965 5.47113C6.50618 5.47058 6.71586 5.47 6.92554 5.4694C7.36512 5.46837 7.80471 5.46805 8.24429 5.46815C8.80693 5.46817 9.36953 5.46582 9.93215 5.46286C10.3653 5.46095 10.7984 5.4606 11.2316 5.46069C11.4389 5.46049 11.6463 5.45973 11.8537 5.4584C12.1442 5.45671 12.4345 5.45721 12.725 5.45825C12.8102 5.45728 12.8955 5.45632 12.9833 5.45532C13.6094 5.46097 14.0689 5.59615 14.5441 6.0126C14.5905 6.06855 14.6368 6.12449 14.6845 6.18213C14.7321 6.23785 14.7797 6.29357 14.8288 6.35098C15.0836 6.72079 15.1467 7.04277 15.1499 7.48791C15.151 7.59234 15.1521 7.69676 15.1532 7.80434C15.1534 7.91652 15.1536 8.02869 15.1538 8.14426C15.1543 8.26145 15.1549 8.37865 15.1555 8.49585C15.1565 8.74124 15.1568 8.98662 15.1567 9.23201C15.1567 9.54495 15.1591 9.85783 15.162 10.1708C15.164 10.4128 15.1643 10.6548 15.1642 10.8969C15.1645 11.0679 15.1664 11.2389 15.1682 11.4098C15.1646 12.1271 15.0983 12.6147 14.6123 13.1693C14.5563 13.2156 14.5004 13.2619 14.4428 13.3096C14.387 13.3572 14.3313 13.4048 14.2739 13.4539C13.8216 13.7656 13.4589 13.7517 12.9278 13.698C10.1096 13.4994 8.42502 14.4945 6.25057 16.2134C5.93163 16.4588 5.73416 16.5225 5.33104 16.5396C5.07141 16.4808 4.97712 16.3628 4.8124 16.1563C4.77337 15.8963 4.77337 15.8963 4.77883 15.5963C4.77994 15.4889 4.78104 15.3814 4.78218 15.2707C4.78506 15.1588 4.78794 15.0469 4.79091 14.9316C4.79246 14.8184 4.79401 14.7052 4.79561 14.5886C4.79966 14.309 4.80532 14.0295 4.8124 13.75C4.72023 13.7527 4.62806 13.7553 4.5331 13.7581C4.03767 13.7457 3.7125 13.5839 3.35213 13.2455C2.92484 12.7765 2.72954 12.4074 2.72493 11.7621C2.72383 11.6577 2.72274 11.5532 2.72161 11.4457C2.72142 11.3335 2.72122 11.2213 2.72103 11.1057C2.72047 10.9885 2.7199 10.8714 2.71929 10.7542C2.71827 10.5088 2.71795 10.2634 2.71805 10.018C2.71807 9.70505 2.71572 9.39217 2.71276 9.07924C2.71084 8.83719 2.7105 8.59515 2.71059 8.35309C2.71029 8.18211 2.70843 8.01114 2.70654 7.84017C2.71015 7.12293 2.77651 6.63534 3.2625 6.08075C3.31844 6.03444 3.37439 5.98814 3.43203 5.94043C3.48775 5.8928 3.54347 5.84516 3.60088 5.79608C4.08828 5.46026 4.54329 5.47451 5.11647 5.47503ZM4.29677 7.13281C4.13565 7.41554 4.10309 7.65982 4.10129 7.98176C4.10047 8.06265 4.09966 8.14354 4.09881 8.22688C4.09889 8.31327 4.09897 8.39967 4.09905 8.48868C4.09868 8.57841 4.09831 8.66813 4.09793 8.76058C4.09744 8.95005 4.0974 9.13952 4.09777 9.32898C4.09804 9.6183 4.09602 9.90755 4.09385 10.1969C4.09365 10.3812 4.09359 10.5656 4.09368 10.7499C4.09289 10.8361 4.09209 10.9224 4.09128 11.0112C4.09431 11.4713 4.11666 11.8089 4.38271 12.2031C4.76513 12.4267 5.17544 12.4063 5.60799 12.423C5.87818 12.4665 5.93765 12.5064 6.10146 12.7188C6.13862 12.9058 6.13862 12.9058 6.14543 13.1199C6.15 13.235 6.15 13.235 6.15467 13.3524C6.15661 13.4322 6.15854 13.512 6.16054 13.5942C6.16494 13.7155 6.16494 13.7155 6.16944 13.8391C6.17652 14.0386 6.18247 14.238 6.1874 14.4375C6.64197 14.2151 7.02746 13.9614 7.411 13.6305C9.00345 12.3221 10.4692 12.2566 12.4867 12.3778C12.9169 12.3982 13.2136 12.3777 13.578 12.1172C13.7214 11.8272 13.7717 11.5899 13.7735 11.2682C13.7743 11.1874 13.7751 11.1065 13.776 11.0231C13.7759 10.9367 13.7758 10.8503 13.7757 10.7613C13.7763 10.6267 13.7763 10.6267 13.7769 10.4894C13.7774 10.3 13.7774 10.1105 13.777 9.92102C13.7768 9.6317 13.7788 9.34246 13.7809 9.05315C13.7811 8.8688 13.7812 8.68444 13.7811 8.50009C13.7819 8.41387 13.7827 8.32765 13.7835 8.23882C13.7805 7.7841 13.7709 7.42742 13.4921 7.04688C13.0989 6.82711 12.7022 6.85015 12.2645 6.8514C12.1449 6.85074 12.1449 6.85074 12.023 6.85007C11.7599 6.84887 11.4969 6.84895 11.2339 6.84915C11.0508 6.84882 10.8676 6.84845 10.6845 6.84804C10.3009 6.8474 9.91719 6.84742 9.53352 6.84787C9.04217 6.84837 8.55084 6.84692 8.05948 6.84492C7.68135 6.84365 7.30322 6.84358 6.92509 6.84385C6.74394 6.8438 6.56279 6.84335 6.38165 6.84249C6.12823 6.84143 5.87486 6.84201 5.62144 6.84301C5.50952 6.84202 5.50952 6.84202 5.39533 6.84101C4.96986 6.8447 4.65612 6.87934 4.29677 7.13281Z" fill="white"/>
<path d="M5.49042 18.1107C6.20754 18.5383 6.65349 19.1302 6.87482 19.9375C6.96063 20.8914 6.90485 21.7194 6.29474 22.4996C5.80853 23.0201 5.20297 23.3399 4.4914 23.4039C3.56933 23.4247 2.80934 23.3171 2.10797 22.662C1.47258 21.9553 1.32481 21.2065 1.34796 20.2803C1.38873 19.5596 1.69921 18.9576 2.2342 18.4766C3.15705 17.7826 4.43133 17.6025 5.49042 18.1107ZM2.97541 19.9053C2.78599 20.2987 2.76725 20.6255 2.83576 21.0547C3.03597 21.4705 3.27932 21.7139 3.69513 21.9141C4.12435 21.9826 4.45115 21.9639 4.84455 21.7745C5.15255 21.4958 5.37911 21.2726 5.44678 20.8486C5.46878 20.3602 5.40841 20.0536 5.07013 19.6797C4.69625 19.3415 4.3897 19.2811 3.90125 19.3031C3.47726 19.3708 3.25408 19.5973 2.97541 19.9053Z" fill="white"/>
<path d="M23.3654 16.7357C24.0825 17.1633 24.5285 17.7552 24.7498 18.5625C24.8356 19.5164 24.7799 20.3444 24.1697 21.1246C23.6835 21.6451 23.078 21.9649 22.3664 22.0289C21.4443 22.0497 20.6843 21.9421 19.983 21.287C19.3476 20.5803 19.1998 19.8315 19.223 18.9053C19.2637 18.1846 19.5742 17.5826 20.1092 17.1016C21.032 16.4076 22.3063 16.2275 23.3654 16.7357ZM20.8504 18.5303C20.661 18.9237 20.6423 19.2505 20.7108 19.6797C20.911 20.0955 21.1543 20.3389 21.5701 20.5391C21.9993 20.6076 22.3262 20.5889 22.7195 20.3995C23.0276 20.1208 23.2541 19.8976 23.3218 19.4736C23.3438 18.9852 23.2834 18.6786 22.9451 18.3047C22.5713 17.9665 22.2647 17.9061 21.7762 17.9281C21.3523 17.9958 21.1291 18.2223 20.8504 18.5303Z" fill="white"/>
<path d="M41.2404 18.1107C41.9575 18.5383 42.4035 19.1302 42.6248 19.9375C42.7106 20.8914 42.6549 21.7194 42.0447 22.4996C41.5585 23.0201 40.953 23.3399 40.2414 23.4039C39.3193 23.4247 38.5593 23.3171 37.858 22.662C37.2226 21.9553 37.0748 21.2065 37.098 20.2803C37.1387 19.5596 37.4492 18.9576 37.9842 18.4766C38.907 17.7826 40.1813 17.6025 41.2404 18.1107ZM38.7254 19.9053C38.536 20.2987 38.5173 20.6255 38.5858 21.0547C38.786 21.4705 39.0293 21.7139 39.4451 21.9141C39.8743 21.9826 40.2012 21.9639 40.5945 21.7745C40.9026 21.4958 41.1291 21.2726 41.1968 20.8486C41.2188 20.3602 41.1584 20.0536 40.8201 19.6797C40.4463 19.3415 40.1397 19.2811 39.6512 19.3031C39.2273 19.3708 39.0041 19.5973 38.7254 19.9053Z" fill="white"/>
<path d="M11 8.9375C11.4538 8.9375 11.9075 8.9375 12.375 8.9375C12.375 9.39125 12.375 9.845 12.375 10.3125C11.9212 10.3125 11.4675 10.3125 11 10.3125C11 9.85875 11 9.405 11 8.9375Z" fill="white"/>
<path d="M8.25 8.9375C8.70375 8.9375 9.1575 8.9375 9.625 8.9375C9.625 9.39125 9.625 9.845 9.625 10.3125C9.17125 10.3125 8.7175 10.3125 8.25 10.3125C8.25 9.85875 8.25 9.405 8.25 8.9375Z" fill="white"/>
<path d="M5.5 8.9375C5.95375 8.9375 6.4075 8.9375 6.875 8.9375C6.875 9.39125 6.875 9.845 6.875 10.3125C6.42125 10.3125 5.9675 10.3125 5.5 10.3125C5.5 9.85875 5.5 9.405 5.5 8.9375Z" fill="white"/>
</svg>
