<svg width="43" height="44" viewBox="0 0 43 44" fill="none" xmlns="http://www.w3.org/2000/svg">
<path d="M17.6208 7.67531C17.74 7.77866 17.8571 7.88449 17.9725 7.99221C18.0834 8.09241 18.0834 8.09241 18.1966 8.19463C19.3816 9.32697 20.0672 10.8095 20.2401 12.461C20.2462 12.6949 20.2494 12.927 20.2483 13.1609C20.2482 13.2519 20.2482 13.2519 20.2481 13.3447C20.2476 13.5954 20.2469 13.8459 20.2404 14.0965C20.1999 14.8461 20.1999 14.8461 20.4887 15.5019C20.6875 15.6591 20.6875 15.6591 20.8983 15.7854C21.1333 15.9317 21.2238 16.0885 21.3319 16.3443C21.363 16.4146 21.3942 16.4849 21.4263 16.5574C21.6634 17.2039 21.6687 17.8933 21.4303 18.5424C21.1075 19.172 20.5831 19.6871 19.9146 19.9023C19.7045 19.9438 19.5091 19.9458 19.2952 19.9429C19.2203 19.9421 19.1454 19.9413 19.0682 19.9405C18.9831 19.939 18.9831 19.939 18.8963 19.9375C18.8931 20.0391 18.8931 20.0391 18.8898 20.1426C18.8102 21.706 18.2338 22.9732 17.1326 24.0625C16.4561 24.6641 16.4561 24.6641 16.2088 24.6641C16.2088 25.3447 16.2088 26.0253 16.2088 26.7266C16.469 26.7236 16.7291 26.7206 16.9971 26.7175C17.2526 26.7155 17.5081 26.7139 17.7635 26.7124C17.9394 26.7111 18.1152 26.7094 18.2911 26.7071C20.0303 26.6855 21.4301 26.8355 22.7596 28.1016C23.8801 29.3485 24.0037 31.0359 24.2451 32.6348C24.2722 32.8123 24.2994 32.9897 24.3266 33.1672C24.3926 33.5984 24.4581 34.0296 24.5233 34.461C24.5498 34.1333 24.5759 33.8057 24.602 33.478C24.6093 33.3878 24.6166 33.2976 24.6241 33.2046C24.7212 31.9792 24.7864 30.7592 24.7945 29.5299C24.7959 29.3236 24.7979 29.1172 24.8 28.9109C24.8058 28.3256 24.811 27.7402 24.8153 27.1549C24.8179 26.7938 24.8214 26.4327 24.8254 26.0717C24.8267 25.935 24.8277 25.7983 24.8285 25.6616C24.8295 25.4717 24.8315 25.2818 24.8338 25.0918C24.8346 24.984 24.8355 24.8762 24.8364 24.7651C24.8583 24.5035 24.8772 24.359 25.0272 24.1485C25.3284 23.9132 25.6876 23.9512 26.0499 23.9516C26.1534 23.9508 26.1534 23.9508 26.259 23.9499C26.4869 23.9482 26.7148 23.9479 26.9427 23.9477C27.1013 23.9472 27.2599 23.9466 27.4184 23.946C27.7507 23.945 28.083 23.9446 28.4154 23.9447C28.8411 23.9448 29.2667 23.9424 29.6924 23.9394C30.0199 23.9375 30.3473 23.9372 30.6748 23.9373C30.8317 23.9371 30.9887 23.9363 31.1456 23.935C31.3651 23.9333 31.5846 23.9338 31.8041 23.9348C31.8688 23.9339 31.9336 23.9329 32.0002 23.9319C32.3114 23.9356 32.486 23.9662 32.7501 24.1403C33.2262 24.6397 33.0715 25.5913 33.0646 26.2585C33.0454 27.0113 32.9477 27.4027 32.4227 27.9415C32.3812 27.9799 32.3398 28.0184 32.297 28.0581C32.0407 28.3111 31.8298 28.6056 31.6094 28.8911C31.5172 29.0078 31.4247 29.1243 31.3319 29.2406C31.2881 29.2956 31.2443 29.3505 31.1991 29.4071C31.0868 29.5467 30.9726 29.6848 30.8582 29.8227C30.7676 29.9332 30.7676 29.9332 30.6751 30.0459C30.6236 30.1073 30.5721 30.1687 30.519 30.2319C30.2293 30.7032 30.2858 31.3761 30.256 31.9185C30.2504 32.0166 30.2448 32.1148 30.239 32.2159C30.2205 32.5402 30.2024 32.8644 30.1843 33.1887C30.1715 33.4148 30.1586 33.6408 30.1458 33.8669C30.1153 34.4016 30.0851 34.9363 30.0551 35.4711C29.9981 36.4832 29.9408 37.4953 29.8832 38.5074C29.8645 38.8387 29.8459 39.17 29.8273 39.5013C29.8157 39.7063 29.8041 39.9114 29.7925 40.1164C29.7874 40.2075 29.7823 40.2986 29.7771 40.3925C29.7673 40.5646 29.7568 40.7367 29.7456 40.9087C29.7349 41.0867 29.7275 41.2649 29.7225 41.4432C29.7186 41.534 29.7147 41.6248 29.7107 41.7183C29.7083 41.7996 29.7059 41.8809 29.7035 41.9646C29.6176 42.3113 29.5175 42.4225 29.2264 42.625C28.8802 42.689 28.5381 42.6829 28.1871 42.6796C28.0804 42.6803 27.9737 42.6809 27.8637 42.6816C27.5677 42.6834 27.2717 42.6825 26.9756 42.6812C26.6563 42.6802 26.3369 42.6817 26.0176 42.6829C25.3921 42.6848 24.7666 42.6844 24.1411 42.6832C23.6327 42.6822 23.1244 42.6821 22.6161 42.6825C22.5438 42.6826 22.4715 42.6826 22.397 42.6827C22.2501 42.6829 22.1032 42.683 21.9563 42.6831C20.5785 42.6844 19.2007 42.683 17.8228 42.6806C16.6403 42.6787 15.4577 42.6791 14.2752 42.681C12.9023 42.6833 11.5295 42.6842 10.1566 42.6829C10.0102 42.6828 9.86387 42.6827 9.71752 42.6825C9.6455 42.6825 9.57349 42.6824 9.49929 42.6823C8.99152 42.6819 8.48375 42.6826 7.97597 42.6836C7.35726 42.6848 6.73857 42.6845 6.11986 42.6822C5.80411 42.681 5.48839 42.6806 5.17263 42.682C4.83056 42.6835 4.48858 42.6817 4.1465 42.6796C4.04638 42.6805 3.94627 42.6815 3.84311 42.6825C3.1782 42.6744 3.1782 42.6744 2.83563 42.4362C2.67212 42.1706 2.63476 42.0361 2.63457 41.7249C2.63351 41.6315 2.63244 41.538 2.63135 41.4418C2.63233 41.3401 2.63331 41.2384 2.63432 41.1336C2.63372 41.0258 2.63312 40.918 2.6325 40.8069C2.63133 40.5115 2.63203 40.2163 2.63369 39.9209C2.63507 39.6106 2.63432 39.3003 2.63389 38.9899C2.63351 38.4679 2.63485 37.9459 2.63719 37.4239C2.63987 36.8234 2.63989 36.223 2.63844 35.6225C2.63709 35.0423 2.63768 34.4622 2.6391 33.8821C2.63967 33.6366 2.6396 33.3911 2.63897 33.1456C2.63519 31.2507 2.6624 29.6033 4.02058 28.1553C5.15104 27.0698 6.40368 26.7094 7.92848 26.7182C8.00955 26.7183 8.09062 26.7184 8.17415 26.7186C8.43082 26.719 8.68749 26.7201 8.94416 26.7212C9.11913 26.7216 9.2941 26.722 9.46907 26.7224C9.89599 26.7233 10.3229 26.7249 10.7498 26.7266C10.7498 26.046 10.7498 25.3653 10.7498 24.6641C10.6113 24.6074 10.4727 24.5506 10.3299 24.4922C9.12027 23.5291 8.31145 22.2779 8.06233 20.711C8.05698 20.5732 8.05507 20.4352 8.05708 20.2974C8.05784 20.2295 8.05859 20.1616 8.05937 20.0916C8.06035 20.0408 8.06132 19.9899 8.06233 19.9375C7.76635 20.089 7.56204 20.2742 7.33796 20.5176C6.67228 21.2141 5.65399 21.8901 4.7082 22.0591C4.45031 21.9999 4.30073 21.9341 4.11905 21.7361C3.90703 21.3367 3.97408 20.8359 3.97807 20.3927C3.97764 20.2714 3.97703 20.1501 3.97625 20.0288C3.9747 19.6997 3.97578 19.3707 3.97744 19.0417C3.97881 18.6965 3.97807 18.3514 3.97764 18.0063C3.97726 17.4262 3.9786 16.8461 3.98094 16.266C3.98363 15.5971 3.98364 14.9283 3.98219 14.2595C3.98085 13.6146 3.98142 12.9697 3.98285 12.3248C3.98343 12.0512 3.98335 11.7775 3.98272 11.5039C3.98207 11.1807 3.98311 10.8575 3.9854 10.5343C3.98624 10.3606 3.98546 10.1868 3.98461 10.013C3.99416 9.0708 4.1596 8.31086 4.81023 7.61825C5.40885 7.03209 6.04088 6.7591 6.87244 6.77666C7.81267 6.8408 8.44112 7.29905 9.07014 7.99221C9.13726 7.94236 9.20438 7.89251 9.27354 7.84115C11.8087 5.98354 15.0308 5.71008 17.6208 7.67531ZM9.37589 9.86001C8.69713 10.7634 8.28886 11.8133 8.29788 12.9578C8.29811 13.0179 8.29835 13.0779 8.2986 13.1398C8.29953 13.3289 8.30163 13.518 8.30378 13.7071C8.30463 13.8364 8.30539 13.9658 8.30608 14.0951C8.30792 14.4098 8.31081 14.7244 8.31428 15.0391C8.96954 14.9118 9.58786 14.7905 10.1777 14.4644C10.2337 14.4344 10.2896 14.4044 10.3473 14.3735C11.4624 13.7614 12.2319 12.9441 12.9912 11.9208C13.1014 11.7735 13.1014 11.7735 13.1854 11.6875C13.8118 11.6565 13.8118 11.6565 14.1092 11.8594C14.205 12.0904 14.205 12.0904 14.2982 12.375C14.6947 13.4723 15.3212 14.2279 16.3558 14.7276C16.7828 14.9212 17.1307 15.0507 17.5985 15.0475C17.6694 15.0472 17.7403 15.0469 17.8134 15.0466C17.8867 15.0459 17.96 15.0452 18.0355 15.0445C18.1101 15.0441 18.1847 15.0437 18.2615 15.0433C18.4451 15.0423 18.6287 15.0409 18.8123 15.0391C18.8664 12.9404 18.8314 11.1757 17.4371 9.50149C16.4685 8.46443 15.2114 7.83063 13.8107 7.78557C11.9791 7.76318 10.5712 8.44255 9.37589 9.86001ZM5.67402 8.81399C5.43306 9.19863 5.44732 9.5476 5.44928 9.98898C5.44926 10.0611 5.44925 10.1332 5.44924 10.2075C5.4493 10.4461 5.44995 10.6846 5.45061 10.9231C5.45077 11.0885 5.45089 11.2538 5.45097 11.4191C5.45129 11.8544 5.45212 12.2897 5.45304 12.725C5.4539 13.1691 5.45429 13.6132 5.45471 14.0573C5.45561 14.9289 5.45704 15.8004 5.45881 16.6719C5.58341 16.503 5.70638 16.3348 5.82198 16.1593C5.85976 16.1033 5.89754 16.0474 5.93647 15.9898C5.97317 15.934 6.00987 15.8783 6.04769 15.8209C6.21467 15.6406 6.21467 15.6406 6.37965 15.5754C6.60587 15.4792 6.72806 15.4047 6.88655 15.211C6.97961 14.7163 6.96184 14.2251 6.94953 13.7232C6.92858 12.436 6.98986 11.234 7.61616 10.0816C7.86807 9.61956 7.86807 9.61956 7.97834 9.1094C7.78338 8.68439 7.54143 8.4927 7.13358 8.30977C6.57331 8.10445 6.06324 8.39529 5.67402 8.81399ZM13.081 14.0119C12.9716 14.1269 12.9716 14.1269 12.8599 14.2442C12.7874 14.3199 12.7149 14.3957 12.6401 14.4738C12.5706 14.5469 12.5011 14.62 12.4295 14.6953C12.3187 14.8088 12.2078 14.9222 12.0936 15.0391C12.8142 15.0391 13.5347 15.0391 14.2772 15.0391C14.1109 14.8122 13.9446 14.5853 13.7733 14.3516C13.7109 14.2523 13.6485 14.1531 13.5843 14.0508C13.5358 13.9799 13.4873 13.909 13.4373 13.836C13.2475 13.8166 13.2475 13.8166 13.081 14.0119ZM7.05451 16.8438C6.87283 17.0793 6.80898 17.2293 6.76582 17.5259C6.82004 17.9143 6.98431 18.185 7.29072 18.4229C7.5368 18.5041 7.5368 18.5041 8.06233 18.4766C8.06233 17.8243 8.06233 17.1721 8.06233 16.5C7.54076 16.5 7.43709 16.5219 7.05451 16.8438ZM9.49006 16.5C9.49006 17.3792 9.49006 18.2583 9.49006 19.1641C10.8858 19.342 10.8858 19.342 12.2074 18.9435C12.3842 18.7715 12.5287 18.5862 12.6706 18.3836C12.8588 18.1198 12.9736 17.9949 13.2694 17.875C13.56 17.8639 13.56 17.8639 13.8572 17.961C13.9893 18.0965 14.0931 18.2421 14.2035 18.3965C14.5157 18.8207 14.8009 19.1191 15.3252 19.2207C16.0498 19.2717 16.7381 19.2121 17.4686 19.1641C17.4686 18.2849 17.4686 17.4058 17.4686 16.5C14.8357 16.5 12.2028 16.5 9.49006 16.5ZM18.8963 16.5C18.8963 17.1523 18.8963 17.8046 18.8963 18.4766C19.5258 18.4826 19.5258 18.4826 19.9881 18.1328C20.1499 17.8664 20.1566 17.7176 20.1456 17.4024C20.0503 17.0125 19.9003 16.7894 19.5787 16.5591C19.3516 16.4736 19.3516 16.4736 18.8963 16.5ZM5.45881 18.3047C5.45881 18.8719 5.45881 19.4391 5.45881 20.0235C5.86004 19.8592 6.01539 19.7366 6.29865 19.4219C6.25816 19.3773 6.21768 19.3326 6.17596 19.2866C5.64907 18.6914 5.64907 18.6914 5.5428 18.3047C5.51508 18.3047 5.48737 18.3047 5.45881 18.3047ZM13.2513 19.7787C13.0991 19.9381 12.9469 20.0974 12.7946 20.2568C12.4744 20.5758 12.2158 20.5563 11.7885 20.5663C11.7253 20.5681 11.6622 20.5698 11.5971 20.5717C11.3952 20.5773 11.1932 20.5824 10.9913 20.5874C10.8545 20.5911 10.7177 20.5949 10.5809 20.5987C10.2453 20.6079 9.90966 20.6166 9.57405 20.625C9.7496 21.6762 10.2065 22.5274 11.0382 23.1954C11.9838 23.8569 12.9705 24.0968 14.1092 23.9766C14.8193 23.8332 15.3853 23.5663 15.9569 23.1172C16.0296 23.0676 16.1024 23.018 16.1773 22.9668C16.7652 22.3969 17.1326 21.6634 17.3846 20.8828C17.3846 20.7978 17.3846 20.7127 17.3846 20.625C17.3004 20.6274 17.2162 20.6297 17.1294 20.6321C16.8127 20.6397 16.4962 20.6408 16.1795 20.6402C16.0432 20.6408 15.9069 20.6431 15.7707 20.6471C14.5761 20.6807 14.5761 20.6807 14.1465 20.3218C13.9156 20.0978 13.7182 19.8493 13.5213 19.5938C13.4041 19.5838 13.4041 19.5838 13.2513 19.7787ZM12.1776 25.3516C11.9801 27.3991 12.6775 28.9934 13.4373 30.8516C13.8395 30.44 14.003 29.7049 14.2037 29.1651C14.2311 29.0915 14.2585 29.0179 14.2868 28.9421C14.7506 27.678 14.9022 26.7146 14.7811 25.3516C13.9219 25.3516 13.0628 25.3516 12.1776 25.3516ZM26.2869 25.4375C26.2869 26.7704 26.2869 28.1033 26.2869 29.4766C28.0258 29.7116 28.0258 29.7116 29.7218 29.2127C29.9633 28.9344 30.1373 28.6231 30.3011 28.292C30.4686 27.9764 30.6934 27.7112 30.9166 27.4356C31.5011 26.6785 31.578 26.5622 31.578 25.4375C29.8319 25.4375 28.0859 25.4375 26.2869 25.4375ZM4.95228 29.3165C4.42209 29.9751 4.10406 30.6827 4.10496 31.5428C4.10485 31.628 4.10473 31.7132 4.10461 31.8009C4.10491 31.8934 4.10522 31.9859 4.10553 32.0812C4.10551 32.1793 4.1055 32.2774 4.10549 32.3785C4.10555 32.7026 4.1062 33.0267 4.10686 33.3508C4.10702 33.5756 4.10714 33.8005 4.10722 34.0253C4.10748 34.5564 4.10817 35.0874 4.10901 35.6185C4.10995 36.2233 4.11041 36.8281 4.11083 37.4329C4.11171 38.6766 4.11325 39.9203 4.11506 41.1641C4.97422 41.1641 5.83338 41.1641 6.71858 41.1641C6.81493 39.7989 6.81493 39.7989 6.40692 38.5356C6.116 37.9781 6.0982 37.3833 6.09919 36.7652C6.09921 36.6466 6.09921 36.6466 6.09923 36.5257C6.11062 35.8267 6.2139 35.1733 6.55735 34.5556C6.80865 33.9681 6.43239 33.094 6.27585 32.5089C6.16834 32.0913 6.09125 31.7173 6.13069 31.2813C6.3039 31.0664 6.3039 31.0664 6.55061 30.9375C6.85505 30.9375 6.85505 30.9375 7.1385 31.0235C7.40181 31.2981 7.47616 31.6204 7.56203 31.9842C7.57659 32.0435 7.59114 32.1029 7.60614 32.164C7.63665 32.2892 7.66676 32.4144 7.69651 32.5397C7.7419 32.7305 7.78875 32.9208 7.8358 33.1111C7.86536 33.2332 7.89483 33.3553 7.92421 33.4774C7.93812 33.5338 7.95202 33.5902 7.96635 33.6483C8.10603 34.2441 8.10258 34.6189 7.81562 35.1592C7.40128 35.947 7.31134 36.8605 7.56236 37.7286C7.74185 38.2488 7.74185 38.2488 7.98294 38.7407C8.08522 38.9842 8.08949 39.1874 8.0971 39.452C8.10009 39.5419 8.10308 39.6318 8.10616 39.7244C8.10902 39.8379 8.11187 39.9514 8.11482 40.0684C8.12521 40.43 8.1356 40.7915 8.14631 41.1641C9.19948 41.1641 10.2526 41.1641 11.3377 41.1641C11.3122 40.7746 11.2866 40.3851 11.2603 39.9838C11.2062 39.1382 11.1623 38.2939 11.1416 37.4467C11.1288 36.9272 11.11 36.4081 11.0875 35.8889C11.0734 35.5576 11.063 35.2269 11.0594 34.8953C11.0969 33.4433 11.0969 33.4433 10.5554 32.1763C10.1039 31.8261 9.61539 31.6068 9.07632 31.4354C8.90217 31.3672 8.90217 31.3672 8.81819 31.1953C8.76129 30.7088 8.92324 30.4218 9.15937 30.0191C9.19336 29.9591 9.22735 29.8992 9.26236 29.8374C9.51542 29.3946 9.78199 28.9615 10.0599 28.5346C10.1763 28.3688 10.1763 28.3688 10.1619 28.1875C9.73939 28.1789 9.31689 28.1727 8.89428 28.1686C8.75101 28.1669 8.60776 28.1646 8.46451 28.1616C7.12809 28.1343 5.92445 28.27 4.95228 29.3165ZM16.7967 28.1875C16.9111 28.5008 17.0493 28.7798 17.217 29.0667C17.2653 29.1498 17.3136 29.233 17.3634 29.3186C17.4389 29.4473 17.4389 29.4473 17.5158 29.5786C17.6157 29.7499 17.7155 29.9212 17.8153 30.0926C17.8596 30.1682 17.9038 30.2437 17.9494 30.3216C18.1307 30.637 18.1767 30.8241 18.1405 31.1953C17.9425 31.4795 17.7254 31.579 17.4146 31.6941C16.6041 31.9832 16.6041 31.9832 16.0197 32.5863C15.8434 33.1381 15.8453 33.7154 15.8322 34.2908C15.8221 34.4754 15.8113 34.6601 15.7999 34.8447C15.7717 35.3285 15.7533 35.8123 15.737 36.2966C15.7186 36.7899 15.6908 37.2826 15.6639 37.7754C15.6258 38.4948 15.5916 39.2142 15.5642 39.934C15.5614 40.0091 15.5585 40.0841 15.5556 40.1615C15.5434 40.4963 15.5369 40.8287 15.5369 41.1641C16.6178 41.1641 17.6987 41.1641 18.8123 41.1641C18.8158 40.8202 18.8193 40.4764 18.8228 40.1221C18.8455 39.1956 18.9712 38.5373 19.4002 37.7266C19.6887 36.8807 19.4968 35.8522 19.1483 35.0625C19.1029 34.9945 19.0575 34.9265 19.0108 34.8564C18.7003 34.2501 19.0029 33.4957 19.1603 32.8713C19.2059 32.6887 19.2492 32.5057 19.2924 32.3226C19.3216 32.2053 19.3508 32.088 19.3802 31.9708C19.4062 31.8653 19.4321 31.7597 19.4588 31.651C19.5848 31.3241 19.7207 31.1559 19.9881 30.9375C20.2926 30.9321 20.2926 30.9321 20.576 31.0235C20.7456 31.2029 20.8235 31.3068 20.8419 31.558C20.7641 32.1629 20.6251 32.7373 20.4618 33.3235C20.2961 33.9547 20.3415 34.4181 20.576 35.0303C21.0278 36.2166 20.9419 37.5831 20.492 38.7578C20.4089 38.928 20.3257 39.0981 20.2401 39.2735C20.2401 39.8974 20.2401 40.5213 20.2401 41.1641C21.4872 41.1641 22.7344 41.1641 24.0194 41.1641C23.9647 40.4926 23.9014 39.8404 23.7988 39.1774C23.7785 39.0435 23.7785 39.0435 23.7578 38.9068C23.7135 38.6152 23.6686 38.3236 23.6237 38.0321C23.5924 37.8275 23.5611 37.623 23.5299 37.4184C23.4644 36.9912 23.3988 36.564 23.3329 36.1369C23.2487 35.591 23.1655 35.0451 23.0824 34.4991C23.0181 34.0772 22.9533 33.6553 22.8883 33.2335C22.8574 33.0323 22.8267 32.8311 22.7961 32.6298C22.7533 32.348 22.7097 32.0664 22.666 31.7848C22.6537 31.7027 22.6413 31.6206 22.6287 31.5361C22.4505 30.4036 22.1481 29.4954 21.26 28.7464C20.5891 28.265 19.9153 28.1735 19.1096 28.1791C19.01 28.1793 19.01 28.1793 18.9084 28.1795C18.6979 28.18 18.4874 28.1811 18.2769 28.1822C18.1336 28.1826 17.9902 28.183 17.8468 28.1833C17.4968 28.1843 17.1467 28.1858 16.7967 28.1875ZM11.2537 29.2188C11.1273 29.4298 11.0014 29.6411 10.8758 29.8526C10.8217 29.9426 10.8217 29.9426 10.7666 30.0345C10.5684 30.3354 10.5684 30.3354 10.4979 30.6797C11.0245 30.9349 11.551 31.1902 12.0936 31.4531C12.0068 31.0093 11.8738 30.6138 11.7209 30.1909C11.6815 30.0792 11.6815 30.0792 11.6413 29.9652C11.6029 29.8584 11.6029 29.8584 11.5638 29.7495C11.5405 29.6847 11.5173 29.62 11.4934 29.5532C11.426 29.3747 11.426 29.3747 11.2537 29.2188ZM15.6209 29.2188C15.5098 29.4941 15.3999 29.77 15.2902 30.0459C15.2432 30.1624 15.2432 30.1624 15.1953 30.2812C15.1652 30.3571 15.1352 30.433 15.1042 30.5112C15.0765 30.5805 15.0488 30.6498 15.0203 30.7212C14.928 30.9826 14.928 30.9826 14.8651 31.4531C15.6549 31.0703 15.6549 31.0703 16.4608 30.6797C16.3238 30.3292 16.1787 30.0314 15.9936 29.7075C15.9415 29.6157 15.8895 29.5239 15.8358 29.4293C15.7926 29.3598 15.7494 29.2903 15.7049 29.2188C15.6772 29.2188 15.6495 29.2188 15.6209 29.2188ZM26.203 30.9375C26.1368 32.0552 26.071 33.1728 26.0059 34.2905C25.9756 34.8096 25.9451 35.3288 25.9143 35.8479C25.8846 36.3499 25.8552 36.8519 25.8261 37.354C25.815 37.5445 25.8038 37.7349 25.7924 37.9253C25.7277 39.0064 25.6821 40.0809 25.699 41.1641C26.0563 41.1661 26.4136 41.1678 26.7709 41.1688C26.8925 41.1692 27.0142 41.1698 27.1358 41.1706C27.3103 41.1716 27.4847 41.1721 27.6592 41.1725C27.7643 41.1729 27.8695 41.1734 27.9778 41.1738C28.21 41.1923 28.21 41.1923 28.3026 41.0781C28.3257 40.8137 28.3437 40.5506 28.3584 40.2856C28.3633 40.2023 28.3682 40.119 28.3733 40.0331C28.3896 39.7556 28.4053 39.4781 28.421 39.2006C28.4321 39.0075 28.4433 38.8144 28.4545 38.6213C28.478 38.2149 28.5012 37.8085 28.5242 37.4021C28.5535 36.8846 28.5835 36.3671 28.6137 35.8497C28.637 35.4499 28.6599 35.05 28.6827 34.6502C28.6936 34.4596 28.7046 34.2691 28.7157 34.0786C28.7768 33.0295 28.8191 31.9886 28.8065 30.9375C27.9473 30.9375 27.0881 30.9375 26.203 30.9375ZM12.1776 33.1719C12.2415 34.1378 12.3057 35.1038 12.3703 36.0696C12.4003 36.5182 12.4302 36.9667 12.4598 37.4152C12.4885 37.8482 12.5174 38.2811 12.5464 38.7141C12.5575 38.8792 12.5684 39.0442 12.5793 39.2093C12.5945 39.4408 12.6101 39.6722 12.6257 39.9036C12.6323 40.0057 12.6323 40.0057 12.639 40.1098C12.6434 40.1734 12.6478 40.2371 12.6522 40.3026C12.6559 40.3573 12.6595 40.4119 12.6633 40.4682C12.6868 40.7016 12.7278 40.9327 12.7655 41.1641C13.2089 41.1641 13.6523 41.1641 14.1092 41.1641C14.2759 39.5986 14.3793 38.0299 14.4834 36.459C14.5074 36.0971 14.5317 35.7353 14.556 35.3734C14.6033 34.6682 14.6503 33.963 14.6971 33.2578C14.3484 33.3718 14.3484 33.3718 14.015 33.524C13.715 33.6715 13.4252 33.6483 13.1014 33.6016C12.9364 33.5351 12.7737 33.4624 12.6136 33.3844C12.5316 33.3448 12.4496 33.3053 12.3651 33.2646C12.3032 33.234 12.2413 33.2034 12.1776 33.1719Z" fill="white"/>
<path d="M29.6465 10.0547C29.8835 10.2267 30.1151 10.4049 30.3469 10.5841C30.871 10.955 31.4511 11.0923 32.082 11C32.7224 10.8471 33.1482 10.5561 33.6449 10.1269C34.2189 9.67493 34.9067 9.62661 35.6094 9.71098C36.2879 9.89262 36.8148 10.2182 37.1788 10.8443C37.8814 12.2335 37.8666 13.9049 37.457 15.3829C37.1204 16.362 37.1204 16.362 36.8131 16.7734C36.2647 17.5314 36.2194 18.3018 36.1343 19.2124C36.1044 19.5081 36.0731 19.8036 36.0411 20.099C36.0336 20.169 36.026 20.2389 36.0182 20.311C35.9198 21.1719 35.7636 21.8435 35.1055 22.4297C34.608 22.7492 34.0806 22.7642 33.5098 22.6875C32.9573 22.5234 32.5624 22.239 32.2654 21.7328C32.0584 21.2155 31.9894 20.6604 31.9141 20.1094C31.7478 20.0811 31.5815 20.0527 31.4102 20.0235C31.3978 20.12 31.3855 20.2165 31.3728 20.3159C31.1535 21.8745 31.1535 21.8745 30.4703 22.3992C29.9357 22.7179 29.4147 22.7786 28.8067 22.6875C28.2868 22.5358 27.9237 22.2012 27.6309 21.7422C27.4432 21.3433 27.3914 20.9325 27.3268 20.4992C27.3017 20.3384 27.2766 20.1777 27.2515 20.0169C27.2127 19.7649 27.1741 19.5127 27.136 19.2606C27.0988 19.0162 27.0606 18.7721 27.0223 18.528C27.0113 18.453 27.0003 18.3781 26.9889 18.3009C26.8969 17.7198 26.6894 17.2855 26.3816 16.7901C25.4772 15.2492 25.236 13.5656 25.6175 11.8151C25.8329 11.0258 26.1933 10.3774 26.8872 9.9416C27.7495 9.52161 28.8245 9.5594 29.6465 10.0547ZM27.2949 11.5157C26.7595 12.5254 26.7706 13.6686 27.0394 14.7585C27.2357 15.3875 27.5491 15.9432 27.8986 16.4947C28.4513 17.4265 28.5031 18.6969 28.6702 19.7624C28.7008 19.9563 28.7326 20.15 28.7647 20.3437C28.7736 20.4028 28.7825 20.4619 28.7917 20.5228C28.8319 20.7606 28.8691 20.9392 29.0114 21.1348C29.2047 21.2701 29.334 21.2617 29.5625 21.2266C29.7837 21.046 29.8505 20.9055 29.8978 20.6234C29.9102 20.5567 29.9227 20.4901 29.9355 20.4214C29.9596 20.2826 29.9832 20.1436 30.0064 20.0045C30.0979 19.5208 30.2267 19.2552 30.5703 18.9063C31.0871 18.5934 31.5676 18.4697 32.1677 18.5991C32.6302 18.7467 32.9136 19.0063 33.1738 19.4219C33.3686 19.8389 33.402 20.2598 33.4543 20.7143C33.5117 20.9776 33.5438 21.0788 33.7617 21.2266C34.0627 21.2338 34.0627 21.2338 34.3496 21.1407C34.4934 20.915 34.5428 20.7121 34.5699 20.4467C34.5772 20.3787 34.5845 20.3107 34.592 20.2406C34.6029 20.1313 34.6029 20.1313 34.614 20.0198C34.6311 19.8639 34.6481 19.7079 34.6652 19.552C34.6913 19.3075 34.717 19.0629 34.742 18.8183C34.7665 18.5813 34.7925 18.3445 34.8188 18.1077C34.8257 18.0357 34.8326 17.9637 34.8397 17.8895C34.9247 17.138 35.2388 16.5388 35.6146 15.8985C36.2676 14.759 36.4661 13.5445 36.1763 12.2408C36.0541 11.7998 35.91 11.5043 35.5412 11.231C35.2678 11.1431 35.0547 11.1417 34.7695 11.1719C34.5171 11.3106 34.5171 11.3106 34.2656 11.5157C33.2805 12.2435 32.3765 12.5408 31.1582 12.461C30.2972 12.3056 29.6409 11.9507 28.973 11.3858C28.4597 10.9911 27.7394 11.0714 27.2949 11.5157Z" fill="white"/>
<path d="M24.4279 3.40357C24.6076 3.43748 24.6076 3.43748 24.7914 3.59324C24.9736 3.92111 25.1475 4.25328 25.3225 4.58521C25.7206 5.30913 26.3508 5.77089 27.0799 6.11228C27.2969 6.2188 27.3869 6.28231 27.5523 6.47214C27.6644 6.80088 27.6569 6.9736 27.5471 7.30466C27.3439 7.48627 27.1121 7.60439 26.8752 7.73435C25.9662 8.31282 25.3581 9.00235 24.8744 9.9788C24.7756 10.1406 24.7756 10.1406 24.5237 10.3125C24.2402 10.3501 24.2402 10.3501 23.9358 10.3125C23.6085 10.0256 23.4033 9.71542 23.1904 9.33494C22.6718 8.44484 22.0653 8.01631 21.1912 7.52085C20.9963 7.3906 20.9963 7.3906 20.8283 7.13279C20.7885 6.82005 20.7948 6.66947 20.9655 6.40333C21.1906 6.15887 21.3938 6.04712 21.6892 5.90281C22.5732 5.42981 22.9947 4.83769 23.4519 3.95948C23.7236 3.47424 23.8868 3.37946 24.4279 3.40357ZM24.1877 5.67185C24.1371 5.7309 24.0864 5.78994 24.0342 5.85078C23.9671 5.92821 23.8999 6.00564 23.8308 6.08543C23.7314 6.20058 23.7314 6.20058 23.63 6.31806C23.4605 6.5004 23.2976 6.6466 23.0959 6.78904C23.2068 7.09541 23.3868 7.24546 23.6336 7.44465C23.8478 7.63277 24.0129 7.85189 24.1877 8.0781C24.2414 8.02138 24.2951 7.96466 24.3504 7.90623C24.6734 7.5748 25.0199 7.26957 25.3635 6.96091C25.2691 6.67104 25.1894 6.60417 24.9646 6.41306C24.6919 6.1767 24.4364 5.93426 24.1877 5.67185Z" fill="white"/>
<path d="M38.4687 1.33768C38.7662 1.40526 38.8742 1.55796 39.0526 1.80463C39.1212 1.94142 39.1875 2.0794 39.2521 2.2182C39.7065 3.18542 40.4378 3.64234 41.3307 4.1518C41.5722 4.29682 41.5722 4.29682 41.6561 4.46869C41.7054 5.09411 41.7054 5.09411 41.5141 5.33512C41.3109 5.50788 41.1157 5.62172 40.8793 5.74164C39.9507 6.25144 39.4035 6.95009 38.9654 7.92936C38.8847 8.07807 38.8847 8.07807 38.6327 8.24994C38.3736 8.28415 38.2089 8.30403 37.9608 8.24994C37.7056 8.02068 37.5767 7.80115 37.4143 7.49765C36.9142 6.56587 36.3195 5.99457 35.3865 5.52478C35.1951 5.41722 35.0698 5.33317 34.9374 5.15619C34.8861 4.68395 34.8861 4.68395 34.9374 4.46869C35.1597 4.19062 35.3967 4.04541 35.709 3.88861C36.5022 3.45256 36.9832 2.95183 37.395 2.14183C37.6588 1.62409 37.8529 1.29918 38.4687 1.33768ZM38.2968 3.60932C38.2054 3.71306 38.1167 3.81916 38.0291 3.92621C37.7741 4.22964 37.5128 4.48066 37.205 4.7265C37.3129 4.97289 37.4209 5.15414 37.6249 5.32807C37.6803 5.32807 37.7357 5.32807 37.7929 5.32807C37.8154 5.3777 37.8379 5.42733 37.8611 5.47846C37.9623 5.67462 38.0791 5.84144 38.2128 6.01557C38.4979 5.9183 38.5616 5.83479 38.7482 5.60199C38.9709 5.33148 39.2006 5.11759 39.4725 4.89838C39.4725 4.84166 39.4725 4.78494 39.4725 4.7265C39.3364 4.58895 39.3364 4.58895 39.1628 4.44721C38.8642 4.18878 38.6253 3.92026 38.3807 3.60932C38.353 3.60932 38.3253 3.60932 38.2968 3.60932Z" fill="white"/>
<path d="M30.8905 13.8413C31.4934 14.0227 31.9999 13.9373 32.5771 13.7167C32.8535 13.6344 33.0685 13.6717 33.3418 13.75C33.5618 13.8926 33.5894 13.9933 33.6672 14.2495C33.681 14.6089 33.64 14.7509 33.4258 15.039C32.4553 15.5811 31.3338 15.6009 30.2859 15.2942C29.9529 15.1678 29.7868 15.0681 29.5625 14.7812C29.4881 14.4545 29.5153 14.1834 29.6727 13.8842C30.0304 13.5454 30.4723 13.6796 30.8905 13.8413Z" fill="white"/>
</svg>
