<svg width="44" height="44" viewBox="0 0 44 44" fill="none" xmlns="http://www.w3.org/2000/svg">
<path d="M7.03788 13.0049C7.25493 13.074 7.36859 13.1689 7.53687 13.3218C7.59691 13.3764 7.65695 13.431 7.71881 13.4872C8.03851 13.7888 8.35108 14.0969 8.66145 14.4081C8.73349 14.48 8.80554 14.5519 8.87977 14.6259C9.11578 14.8616 9.35147 15.0975 9.58714 15.3335C9.75162 15.4979 9.91615 15.6623 10.0807 15.8268C10.4243 16.1702 10.7677 16.5139 11.1111 16.8576C11.5081 17.2551 11.9054 17.6523 12.3029 18.0493C12.6449 18.3909 12.9868 18.7327 13.3285 19.0747C13.5323 19.2786 13.7362 19.4825 13.9402 19.6862C14.1669 19.9127 14.3933 20.1395 14.6197 20.3663C14.6874 20.4338 14.7551 20.5014 14.8249 20.571C14.8862 20.6325 14.9475 20.6941 15.0107 20.7575C15.0642 20.8111 15.1177 20.8646 15.1729 20.9198C15.3527 21.1153 15.3831 21.228 15.4259 21.4951C15.3809 21.8435 15.3618 21.8845 15.1372 22.1229C14.9029 22.3774 14.6839 22.6379 14.4711 22.9107C13.0869 24.6552 13.0869 24.6552 12.032 24.789C11.2274 24.8469 10.4222 24.7764 9.62508 24.6641C9.59855 24.7313 9.57203 24.7984 9.5447 24.8676C9.4405 25.1251 9.31594 25.3667 9.187 25.6124C8.86388 26.316 8.92854 27.2468 9.18465 27.9619C9.70333 29.1494 10.4197 30.2125 11.2579 31.1953C11.2956 31.2399 11.3334 31.2845 11.3723 31.3305C12.6598 32.8361 14.8219 34.8063 16.8851 35.0054C17.6808 35.0138 18.3007 34.9143 19.0016 34.5347C19.1901 34.3809 19.1901 34.3809 19.2083 34.108C19.209 34.0005 19.2097 33.893 19.2105 33.7822C19.2115 33.7244 19.2125 33.6667 19.2135 33.6072C19.2166 33.4227 19.2174 33.2383 19.2178 33.0537C19.2193 32.8698 19.2212 32.686 19.224 32.5021C19.2265 32.3348 19.2273 32.1675 19.2281 32.0002C19.2751 31.3806 19.5708 31.096 19.9967 30.6784C20.0532 30.6219 20.1098 30.5655 20.1681 30.5074C20.2874 30.3887 20.4071 30.2702 20.527 30.1521C20.711 29.9708 20.894 29.7886 21.0769 29.6061C21.193 29.4908 21.3092 29.3756 21.4254 29.2604C21.4803 29.2058 21.5353 29.1512 21.5919 29.0949C21.643 29.0447 21.694 28.9945 21.7466 28.9427C21.7915 28.8984 21.8364 28.8541 21.8827 28.8085C22.0688 28.6415 22.1891 28.6144 22.4405 28.5742C22.7908 28.6194 22.8448 28.649 23.0909 28.8742C23.151 28.9291 23.2112 28.984 23.2731 29.0405C23.5923 29.3433 23.9055 29.6513 24.2161 29.9628C24.2882 30.0347 24.3602 30.1066 24.4345 30.1806C24.6705 30.4163 24.9062 30.6522 25.1418 30.8882C25.3063 31.0526 25.4708 31.217 25.6354 31.3814C25.979 31.7249 26.3224 32.0686 26.6658 32.4123C27.0628 32.8098 27.4601 33.207 27.8576 33.604C28.1996 33.9456 28.5415 34.2874 28.8832 34.6294C29.087 34.8333 29.2908 35.0372 29.4949 35.2409C29.7216 35.4674 29.948 35.6941 30.1744 35.921C30.2421 35.9885 30.3098 36.0561 30.3796 36.1257C30.4409 36.1872 30.5022 36.2488 30.5654 36.3122C30.6189 36.3657 30.6724 36.4193 30.7276 36.4745C30.9584 36.7254 30.9719 36.9543 30.9664 37.2914C30.9162 37.6004 30.7358 37.7481 30.5133 37.9575C30.4676 38.0006 30.4219 38.0437 30.3749 38.0881C29.9986 38.4346 29.6011 38.7556 29.1973 39.0693C29.1163 39.1324 29.1163 39.1324 29.0335 39.1968C28.404 39.6705 27.7451 40.0549 27.0704 40.4766C28.3466 40.5049 29.6227 40.5333 30.9376 40.5625C30.9376 41.0163 30.9376 41.47 30.9376 41.9375C30.6088 41.938 30.6088 41.938 30.2734 41.9386C29.5414 41.9401 28.8094 41.9439 28.0775 41.9489C27.6345 41.9518 27.1917 41.954 26.7488 41.9543C26.3197 41.9547 25.8906 41.9572 25.4616 41.961C25.2996 41.9621 25.1375 41.9625 24.9755 41.9621C23.8292 41.9599 22.7955 42.121 21.6857 42.4048C20.6783 42.6467 19.6465 42.6598 18.6163 42.6572C18.545 42.6572 18.4738 42.6571 18.4004 42.6571C16.5203 42.6515 14.7634 42.3525 12.9766 41.7656C12.8859 41.7361 12.8859 41.7361 12.7934 41.706C9.53575 40.6227 6.66295 38.4207 4.6407 35.6641C4.58753 35.5933 4.53435 35.5225 4.47957 35.4496C3.14178 33.6132 2.25931 31.5099 1.74568 29.3047C1.72826 29.2303 1.71084 29.1559 1.69289 29.0793C1.42294 27.8669 1.33987 26.6801 1.34285 25.4429C1.3429 25.3694 1.34294 25.296 1.34299 25.2203C1.34654 24.0033 1.43669 22.8438 1.71883 21.6563C1.73633 21.5786 1.75383 21.501 1.77187 21.421C2.43899 18.5131 3.86632 15.9629 5.84383 13.75C5.90575 13.6769 5.96768 13.6038 6.03148 13.5285C6.32644 13.1996 6.5703 12.939 7.03788 13.0049ZM6.87508 14.8672C6.73411 15.0092 6.59691 15.1549 6.4615 15.3023C6.34901 15.4234 6.34901 15.4234 6.23424 15.547C5.97076 15.8519 5.97076 15.8519 5.67195 16.4141C6.69289 17.435 7.71383 18.4559 8.7657 19.5078C8.6081 19.823 8.48635 19.9778 8.23933 20.2168C8.17708 20.2775 8.11482 20.3382 8.05067 20.4008C7.97922 20.4692 7.97922 20.4692 7.90633 20.5391C7.49805 20.1984 7.1126 19.8432 6.73845 19.4655C6.6878 19.4148 6.63715 19.364 6.58496 19.3117C6.42544 19.1517 6.26622 18.9914 6.10701 18.8311C5.99799 18.7216 5.88894 18.6122 5.77988 18.5028C5.51451 18.2364 5.2494 17.9699 4.98445 17.7031C4.6958 17.7678 4.6958 17.7678 4.55644 18.0821C4.49187 18.2148 4.42875 18.3481 4.36678 18.4819C4.33313 18.5542 4.29949 18.6264 4.26483 18.7008C2.51126 22.5771 2.29829 26.9749 3.77193 30.9733C4.45153 32.754 5.39272 34.4192 6.69716 35.8168C6.85757 35.989 7.00881 36.1657 7.15974 36.3462C9.57931 39.0957 13.3912 40.8513 17.0157 41.1641C20.2785 41.3615 23.4376 40.8341 26.297 39.1875C26.1576 38.8351 25.9036 38.6004 25.6383 38.3402C25.5909 38.293 25.5434 38.2458 25.4946 38.1972C25.3435 38.0471 25.1918 37.8976 25.0401 37.7481C24.9374 37.6462 24.8346 37.5442 24.7319 37.4422C24.4806 37.1928 24.2288 36.9439 23.9766 36.6953C24.1146 36.4022 24.2693 36.2125 24.503 35.9863C24.5653 35.9256 24.6275 35.8649 24.6917 35.8024C24.7631 35.7339 24.7631 35.7339 24.836 35.6641C25.4478 36.1631 25.9939 36.7265 26.5494 37.2861C26.6501 37.3873 26.7509 37.4885 26.8517 37.5896C27.0967 37.8356 27.3414 38.0818 27.586 38.3281C27.7267 38.2499 27.7267 38.2499 27.8702 38.1701C27.9493 38.1261 27.9493 38.1261 28.0301 38.0812C28.2823 37.9262 28.4817 37.736 28.6978 37.5332C28.8213 37.4182 28.8213 37.4182 28.9473 37.3009C29.0085 37.2429 29.0698 37.1848 29.1329 37.125C28.7724 36.6948 28.3965 36.2907 27.9986 35.8951C27.939 35.8355 27.8794 35.7759 27.8181 35.7144C27.623 35.5194 27.4276 35.3247 27.2322 35.13C27.0961 34.9941 26.9601 34.8581 26.824 34.7222C26.4673 34.3658 26.1104 34.0097 25.7534 33.6537C25.3886 33.2898 25.024 32.9256 24.6594 32.5614C23.9451 31.848 23.2305 31.1349 22.5157 30.4219C22.2659 30.5419 22.0885 30.6565 21.894 30.8549C21.8447 30.9048 21.7954 30.9546 21.7446 31.006C21.6942 31.0578 21.6438 31.1097 21.5919 31.1631C21.5143 31.2419 21.5143 31.2419 21.4351 31.3222C21.3079 31.4514 21.1813 31.5811 21.0548 31.7109C21.5055 32.258 22.0019 32.7539 22.505 33.2525C22.5896 33.3366 22.6742 33.4208 22.7587 33.5051C22.964 33.7093 23.1694 33.9133 23.3751 34.1172C23.2371 34.4103 23.0824 34.6 22.8487 34.8262C22.7865 34.8869 22.7242 34.9476 22.66 35.0101C22.5886 35.0786 22.5886 35.0786 22.5157 35.1484C22.0359 34.7579 21.6037 34.3283 21.1714 33.8868C21.048 33.7616 20.9227 33.6384 20.797 33.5156C20.7686 33.5156 20.7402 33.5156 20.711 33.5156C20.7138 33.6193 20.7166 33.723 20.7194 33.8298C20.7225 34.8955 20.7225 34.8955 20.4864 35.3002C19.4804 36.2345 18.1407 36.4942 16.8213 36.463C15.22 36.3858 13.6961 35.33 12.461 34.375C12.3832 34.3164 12.3055 34.2578 12.2254 34.1974C10.2669 32.6661 7.99713 30.1411 7.56258 27.5859C7.47346 26.6379 7.49505 25.7082 7.90633 24.8359C7.93845 24.7667 7.97058 24.6975 8.00368 24.6261C8.10414 24.4295 8.21598 24.2477 8.33601 24.0625C8.37124 23.9974 8.40647 23.9322 8.44276 23.8651C8.62582 23.5861 8.77801 23.4086 9.116 23.3374C9.57181 23.2835 10.026 23.2813 10.4845 23.2891C9.98375 22.6739 9.41553 22.1267 8.85164 21.5703C9.12782 21.2436 9.40222 20.9219 9.71101 20.625C10.0635 20.7644 10.2981 21.0183 10.5583 21.2836C10.6055 21.3311 10.6527 21.3785 10.7013 21.4274C10.8515 21.5785 11.001 21.7302 11.1505 21.8818C11.2524 21.9846 11.3543 22.0873 11.4563 22.19C11.7057 22.4413 11.9546 22.6932 12.2032 22.9453C12.5591 22.6462 12.9026 22.3423 13.2291 22.0108C13.2954 21.9436 13.3618 21.8765 13.4302 21.8073C13.479 21.7575 13.5279 21.7076 13.5782 21.6563C13.4636 21.402 13.3385 21.2232 13.1415 21.0265C13.0872 20.9718 13.0329 20.9171 12.9769 20.8607C12.9174 20.8017 12.8578 20.7426 12.7965 20.6818C12.7338 20.6189 12.671 20.556 12.6064 20.4912C12.3989 20.2834 12.1908 20.0762 11.9827 19.869C11.8386 19.725 11.6945 19.581 11.5505 19.437C11.2487 19.1353 10.9466 18.834 10.6443 18.5328C10.2559 18.1458 9.86797 17.7583 9.48026 17.3705C9.18297 17.0732 8.88546 16.7762 8.58787 16.4792C8.44469 16.3363 8.30156 16.1933 8.15849 16.0503C7.95911 15.8511 7.75945 15.6522 7.5597 15.4534C7.50001 15.3937 7.44032 15.3339 7.37882 15.2724C7.32472 15.2187 7.27062 15.1649 7.21488 15.1096C7.14404 15.0389 7.14404 15.0389 7.07177 14.9669C6.9752 14.8576 6.9752 14.8576 6.87508 14.8672Z" fill="white"/>
<path d="M31.6252 6.53128C31.6806 6.55015 31.7359 6.56903 31.793 6.58847C32.9792 7.00235 34.0827 7.61382 34.9768 8.50784C34.9862 8.454 34.9956 8.40016 35.0053 8.34469C35.0189 8.27446 35.0325 8.20423 35.0466 8.13187C35.0595 8.06207 35.0725 7.99228 35.0859 7.92038C35.1486 7.7344 35.1486 7.7344 35.4064 7.56253C36.0193 7.50416 36.0193 7.50416 36.2744 7.70358C36.4847 7.96463 36.4783 8.10684 36.475 8.43902C36.4762 8.59497 36.4762 8.59497 36.4775 8.75407C36.476 8.97138 36.4742 9.18869 36.4721 9.40599C36.4782 10.0774 36.5518 10.538 36.9533 11.086C37.1091 10.9302 37.0523 10.6871 37.0544 10.4774C37.0564 10.3706 37.0585 10.2639 37.0606 10.1539C37.0642 9.92767 37.0669 9.70141 37.0686 9.47514C37.0722 9.31454 37.0722 9.31454 37.0758 9.15069C37.0771 9.05223 37.0784 8.95377 37.0796 8.85233C37.1342 8.54249 37.2239 8.44098 37.4689 8.25003C37.6408 8.20437 37.6408 8.20437 37.8127 8.20706C37.8694 8.20617 37.9261 8.20529 37.9846 8.20437C38.2431 8.27304 38.3365 8.38262 38.5002 8.59378C38.5345 8.83217 38.5485 9.03575 38.5458 9.27389C38.5462 9.34004 38.5465 9.40618 38.5468 9.47433C38.5471 9.61432 38.5464 9.75432 38.545 9.8943C38.5432 10.106 38.545 10.3174 38.5472 10.5291C38.5485 11.2526 38.5379 11.9063 38.1564 12.5469C38.0906 12.6106 38.0906 12.6106 38.0233 12.6756C37.8253 13.0172 37.8638 13.3593 37.8669 13.7471C37.8666 13.834 37.8663 13.921 37.8659 14.0106C37.8654 14.1994 37.8654 14.3883 37.866 14.5771C37.8667 14.8762 37.8659 15.1753 37.8645 15.4744C37.8611 16.3249 37.861 17.1754 37.8612 18.0259C37.8612 18.5462 37.8595 19.0664 37.8569 19.5867C37.856 19.8809 37.8571 20.1751 37.8581 20.4693C37.8574 20.6506 37.8565 20.8319 37.8555 21.0132C37.8564 21.0945 37.8572 21.1759 37.8581 21.2597C37.8514 21.8732 37.7078 22.329 37.3001 22.7943C37.2441 22.8406 37.1882 22.8869 37.1306 22.9346C37.0748 22.9822 37.0191 23.0299 36.9617 23.0789C36.404 23.4632 35.8033 23.4351 35.1486 23.375C34.6627 23.2335 34.3251 22.9231 33.9455 22.6016C33.8235 22.6764 33.8235 22.6764 33.6991 22.7527C33.076 23.1245 32.4605 23.4421 31.7702 23.6704C31.6796 23.7006 31.6796 23.7006 31.5871 23.7314C30.6953 24.0113 29.829 24.0938 28.8967 24.0894C28.7902 24.0889 28.6838 24.0884 28.5742 24.0879C26.7962 24.0643 25.3048 23.525 23.8049 22.6016C23.7684 22.6358 23.732 22.6701 23.6944 22.7053C23.046 23.2911 22.5628 23.4274 21.6887 23.4042C21.017 23.3366 20.6625 23.0256 20.2338 22.524C19.917 22.0643 19.914 21.6538 19.9185 21.1137C19.9184 20.9938 19.9184 20.9938 19.9184 20.8714C19.9184 20.6979 19.9187 20.5245 19.9194 20.3511C19.9202 20.0762 19.9198 19.8012 19.9189 19.5262C19.9165 18.7444 19.9154 17.9627 19.9179 17.1809C19.9194 16.7023 19.9183 16.2237 19.9157 15.7451C19.9151 15.5633 19.9155 15.3815 19.9169 15.1997C19.9623 13.9637 19.9623 13.9637 19.4551 12.8738C19.1126 12.4274 19.2278 11.7575 19.2248 11.2214C19.2238 11.0962 19.2221 10.971 19.2195 10.8459C19.1998 9.8778 19.2715 9.03633 19.9632 8.29568C20.5538 7.76471 21.1847 7.53045 21.9787 7.53567C22.0397 7.53522 22.1007 7.53477 22.1635 7.53431C22.5265 7.53832 22.7949 7.58881 23.1228 7.73978C23.4381 7.85369 23.5287 7.82892 23.8405 7.68338C24.0646 7.54928 24.2816 7.40518 24.4994 7.26108C25.0055 6.92889 25.5531 6.72159 26.1252 6.53128C26.2292 6.49572 26.3332 6.46016 26.4404 6.42352C28.0538 5.93306 30.0329 5.98531 31.6252 6.53128ZM24.4924 9.1094C24.5201 9.18166 24.5479 9.25392 24.5765 9.32836C24.7185 9.80855 24.6962 10.295 24.6961 10.7916C24.6965 10.9769 24.6996 11.1619 24.7029 11.3471C24.7087 12.0546 24.7082 12.8288 24.1878 13.3732C24.0091 13.666 24.024 13.9464 24.0239 14.2795C24.0229 14.35 24.0219 14.4205 24.0208 14.4931C24.018 14.7259 24.017 14.9587 24.0164 15.1915C24.0153 15.3535 24.0142 15.5156 24.0131 15.6776C24.0112 16.0173 24.0104 16.357 24.0102 16.6967C24.0097 17.1315 24.0053 17.5662 23.9999 18.0011C23.9964 18.3358 23.9956 18.6705 23.9956 19.0052C23.9951 19.1655 23.9937 19.3258 23.9912 19.486C23.9881 19.7105 23.9887 19.9347 23.9903 20.1592C23.9886 20.2251 23.9868 20.291 23.985 20.3589C23.9905 20.6409 24.0053 20.8144 24.1902 21.035C25.5522 22.2277 27.5298 22.7813 29.3116 22.6684C30.443 22.574 31.4844 22.2741 32.4899 21.7476C32.5411 21.7208 32.5922 21.6941 32.6449 21.6665C33.3221 21.3081 33.3221 21.3081 33.7433 20.7103C33.7647 20.5052 33.7671 20.3077 33.7628 20.1016C33.7636 20.0246 33.7644 19.9477 33.7652 19.8685C33.7669 19.615 33.7643 19.3618 33.7615 19.1084C33.7615 18.9316 33.7617 18.7548 33.7621 18.578C33.7622 18.2076 33.7602 17.8374 33.7567 17.4671C33.7523 16.9935 33.7525 16.5201 33.7542 16.0466C33.755 15.6815 33.7538 15.3164 33.7519 14.9513C33.7512 14.7768 33.751 14.6022 33.7515 14.4277C33.7518 14.1831 33.7493 13.9387 33.746 13.6942C33.7466 13.6227 33.7472 13.5513 33.7478 13.4777C33.7378 13.0142 33.6298 12.729 33.3609 12.3507C33.0724 11.9371 33.0675 11.5209 33.0747 11.0319C33.0746 10.9063 33.0744 10.7807 33.074 10.6551C33.0742 10.4591 33.0754 10.2633 33.0793 10.0673C33.123 9.33049 33.123 9.33049 32.8624 8.67712C32.6822 8.56178 32.515 8.49023 32.3127 8.4219C32.2166 8.37383 32.1206 8.32575 32.0216 8.27621C29.811 7.3187 26.272 7.1225 24.4924 9.1094ZM21.0549 9.36722C20.5137 10.0547 20.5792 10.8532 20.6252 11.6875C20.6957 12.0688 20.7799 12.3583 21.0578 12.6351C21.2949 12.9937 21.2742 13.2834 21.2696 13.7044C21.2701 13.7857 21.2705 13.8671 21.271 13.951C21.2718 14.1273 21.2718 14.3037 21.2711 14.48C21.27 14.7593 21.271 15.0384 21.2725 15.3177C21.2748 15.8099 21.2753 16.302 21.2752 16.7942C21.275 17.5816 21.2762 18.3691 21.2799 19.1565C21.2808 19.4314 21.28 19.7062 21.2792 19.9811C21.2797 20.15 21.2803 20.3188 21.281 20.4877C21.2803 20.5639 21.2797 20.6402 21.279 20.7187C21.2825 21.1516 21.3272 21.4541 21.5705 21.8282C21.8146 21.9502 21.9877 21.9411 22.258 21.9141C22.5027 21.7223 22.5889 21.609 22.6877 21.3125C22.6952 21.1975 22.698 21.0822 22.6978 20.967C22.6979 20.8969 22.698 20.8268 22.6981 20.7546C22.6978 20.678 22.6975 20.6014 22.6972 20.5224C22.6972 20.3547 22.6973 20.1869 22.6973 20.0191C22.6971 19.8855 22.6971 19.8855 22.6969 19.7492C22.6966 19.2774 22.6988 18.8057 22.7006 18.3339C22.7027 17.7336 22.7041 17.1334 22.7027 16.5331C22.7017 16.048 22.7032 15.5629 22.7064 15.0778C22.7071 14.8933 22.7069 14.7088 22.7058 14.5242C22.7044 14.2653 22.7061 14.0065 22.7086 13.7475C22.7074 13.6719 22.7062 13.5963 22.705 13.5185C22.7144 13.0014 22.8516 12.7051 23.1704 12.2982C23.5427 11.7313 23.4392 10.7114 23.3356 10.0658C23.2027 9.60224 22.9978 9.37902 22.6018 9.1094C22.0781 8.84756 21.4712 8.99053 21.0549 9.36722ZM34.3752 10.0547C34.3453 10.6468 34.3266 11.2453 34.633 11.7735C34.8498 11.9656 34.8498 11.9656 35.0627 12.1172C35.1532 11.1837 35.1532 11.1837 34.7673 10.3609C34.6109 10.1828 34.6109 10.1828 34.4611 10.0547C34.4328 10.0547 34.4044 10.0547 34.3752 10.0547ZM35.0627 13.75C35.0567 14.7271 35.0521 15.7043 35.0493 16.6814C35.048 17.1351 35.0462 17.5889 35.0432 18.0426C35.0404 18.4806 35.0389 18.9185 35.0382 19.3565C35.0378 19.5235 35.0368 19.6905 35.0354 19.8575C35.0336 20.0916 35.0333 20.3257 35.0334 20.5598C35.0325 20.6286 35.0316 20.6975 35.0306 20.7685C35.0329 21.1838 35.0909 21.468 35.3205 21.8282C35.5646 21.9502 35.7377 21.9411 36.008 21.9141C36.2209 21.7944 36.2209 21.7944 36.3518 21.5703C36.4313 21.0932 36.4479 20.6326 36.4396 20.15C36.4387 20.0804 36.4379 20.0107 36.4371 19.9389C36.4342 19.7111 36.4308 19.4832 36.4273 19.2554C36.4252 19.0965 36.4231 18.9375 36.4211 18.7786C36.4158 18.3621 36.4098 17.9456 36.4038 17.5291C36.3977 17.1034 36.3921 16.6777 36.3865 16.252C36.3754 15.418 36.3637 14.584 36.3518 13.75C35.9264 13.75 35.501 13.75 35.0627 13.75Z" fill="white"/>
<path d="M28.0179 1.3575C28.1131 1.35659 28.1131 1.35659 28.2104 1.35566C30.8518 1.33615 30.8518 1.33615 31.969 1.63277C32.071 1.65907 32.071 1.65907 32.1752 1.68589C34.4301 2.28011 36.4238 3.31333 38.1414 4.8994C38.2914 5.0365 38.4429 5.16474 38.6023 5.29048C40.9025 7.28406 42.3228 10.6013 42.6252 13.5781C42.6356 13.8046 42.6431 14.029 42.6457 14.2555C42.647 14.3494 42.647 14.3494 42.6483 14.4451C42.6634 15.8467 42.6567 17.2011 42.2815 18.5625C42.2475 18.6859 42.2475 18.6859 42.2129 18.8117C41.6127 20.9162 40.6168 22.7825 39.1169 24.378C38.9712 24.5339 38.836 24.69 38.7043 24.8574C38.4327 25.1719 38.1335 25.4319 37.8127 25.6953C37.7331 25.761 37.6534 25.8267 37.5713 25.8943C35.9207 27.2251 34.0165 28.0964 31.969 28.6171C31.9107 28.6326 31.8524 28.648 31.7924 28.6638C29.1962 29.3201 25.4825 29.0687 23.1475 27.7113C22.8095 27.564 22.5212 27.5504 22.1596 27.5542C22.0914 27.5539 22.0231 27.5535 21.9528 27.5532C21.8054 27.5527 21.6579 27.5527 21.5105 27.5532C21.2772 27.554 21.0439 27.5531 20.8105 27.5518C20.1474 27.5484 19.4842 27.5482 18.8211 27.5484C18.4148 27.5484 18.0086 27.5468 17.6023 27.5442C17.3725 27.5433 17.1427 27.5443 16.9128 27.5454C16.772 27.5446 16.6312 27.5438 16.4904 27.5428C16.4266 27.5436 16.3627 27.5445 16.297 27.5453C15.9999 27.5412 15.8416 27.5223 15.6035 27.338C15.4413 27.1188 15.39 27 15.383 26.7265C15.4809 26.4642 15.4809 26.4642 15.6335 26.1743C15.6607 26.1221 15.688 26.0698 15.7161 26.016C16.0243 25.4332 16.3629 24.868 16.7043 24.3042C16.7977 24.1495 16.8909 23.9948 16.9838 23.8398C17.0666 23.7018 17.1499 23.564 17.2332 23.4263C17.3684 23.2042 17.3684 23.2042 17.4455 22.9453C17.3396 22.7469 17.2294 22.5639 17.1071 22.3759C16.4319 21.2928 15.888 20.1414 15.5549 18.9062C15.5353 18.8355 15.5156 18.7648 15.4954 18.6919C15.1789 17.5069 15.0839 16.3507 15.0822 15.1303C15.0819 15.0646 15.0815 14.9988 15.0811 14.9311C15.078 13.6499 15.2321 12.3863 15.6194 11.1611C15.6414 11.0899 15.6635 11.0187 15.6862 10.9453C16.2975 9.02972 17.2858 7.33576 18.6497 5.85881C18.7868 5.70878 18.915 5.55729 19.0407 5.39791C21.1423 2.97302 24.8425 1.37778 28.0179 1.3575ZM19.9166 6.60288C17.4119 9.23734 16.5009 12.5006 16.5658 16.0576C16.5866 16.8347 16.7141 17.5601 16.9299 18.3046C16.9575 18.403 16.9575 18.403 16.9857 18.5032C17.3875 19.9008 18.0298 21.145 18.8514 22.342C19.0423 22.6381 19.1097 22.8435 19.0495 23.1921C18.9224 23.5991 18.6778 23.9544 18.4553 24.3149C18.406 24.3966 18.3567 24.4783 18.3059 24.5625C18.0499 24.9855 17.7889 25.4049 17.5191 25.8193C17.4317 25.9527 17.4317 25.9527 17.4455 26.125C17.5512 26.1243 17.5512 26.1243 17.6591 26.1236C18.3314 26.1199 19.0036 26.1196 19.6759 26.1229C20.0213 26.1245 20.3667 26.1249 20.7121 26.1223C22.2148 26.1118 23.5473 26.1074 24.9144 26.8153C27.3029 27.9204 30.5339 27.6522 32.9635 26.8059C34.1411 26.3576 35.2725 25.7857 36.2658 25.0078C36.3463 24.9462 36.4267 24.8846 36.5096 24.8211C37.9389 23.692 39.0382 22.3233 39.8752 20.7109C39.9272 20.6125 39.9791 20.5141 40.0327 20.4128C40.345 19.7981 40.5696 19.1708 40.7614 18.5087C40.7927 18.4012 40.7927 18.4012 40.8246 18.2915C41.1114 17.2491 41.1969 16.2251 41.1911 15.1464C41.191 15.086 41.1908 15.0255 41.1907 14.9633C41.1867 14.0471 41.1391 13.1795 40.9065 12.289C40.8913 12.2288 40.8761 12.1686 40.8604 12.1065C40.6448 11.2646 40.3567 10.487 39.9611 9.71089C39.936 9.65974 39.9109 9.60859 39.885 9.55589C39.3036 8.3735 38.5438 7.40482 37.6408 6.44527C37.5904 6.38933 37.54 6.33338 37.4881 6.27574C35.4551 4.10925 32.3283 2.88779 29.3905 2.75199C25.7953 2.66389 22.4354 4.04309 19.9166 6.60288Z" fill="white"/>
<path d="M30.8399 12.0051C31.6797 12.5664 32.2809 13.3495 32.4845 14.3515C32.6184 15.5917 32.4211 16.5709 31.6476 17.5732C31.0278 18.2615 30.2049 18.7026 29.278 18.7669C28.113 18.813 27.1957 18.5666 26.297 17.789C25.439 16.89 25.2223 15.9507 25.2419 14.7436C25.2796 13.8295 25.7296 12.9825 26.3937 12.3589C27.6747 11.3329 29.4297 11.17 30.8399 12.0051ZM27.0385 13.8947C26.6401 14.4612 26.6681 15.0562 26.7267 15.7265C26.8752 16.3417 27.3506 16.7379 27.8439 17.1015C28.3123 17.3514 28.8724 17.3361 29.3908 17.2734C30.1239 17.0434 30.5464 16.615 30.9269 15.9682C31.1119 15.3411 31.1211 14.7487 30.8463 14.1474C30.5108 13.5587 30.0449 13.1696 29.3908 12.9765C28.3501 12.8586 27.716 13.1078 27.0385 13.8947Z" fill="white"/>
<path d="M37.8125 40.5625C38.2663 40.5625 38.72 40.5625 39.1875 40.5625C39.1875 41.0163 39.1875 41.47 39.1875 41.9375C38.7337 41.9375 38.28 41.9375 37.8125 41.9375C37.8125 41.4837 37.8125 41.03 37.8125 40.5625Z" fill="white"/>
<path d="M35.0625 40.5625C35.5163 40.5625 35.97 40.5625 36.4375 40.5625C36.4375 41.0163 36.4375 41.47 36.4375 41.9375C35.9837 41.9375 35.53 41.9375 35.0625 41.9375C35.0625 41.4837 35.0625 41.03 35.0625 40.5625Z" fill="white"/>
<path d="M32.3125 40.5625C32.7663 40.5625 33.22 40.5625 33.6875 40.5625C33.6875 41.0163 33.6875 41.47 33.6875 41.9375C33.2337 41.9375 32.78 41.9375 32.3125 41.9375C32.3125 41.4837 32.3125 41.03 32.3125 40.5625Z" fill="white"/>
</svg>
