<svg width="44" height="44" viewBox="0 0 44 44" fill="none" xmlns="http://www.w3.org/2000/svg">
<path d="M9.81861 3.26594C10.4162 3.70029 10.7686 4.17391 11.0805 4.83934C11.1147 4.90896 11.1488 4.97859 11.184 5.05032C11.4296 5.55792 11.4296 5.55792 11.4296 5.7578C11.5003 5.75381 11.571 5.74982 11.6438 5.74571C12.551 5.71638 13.3298 5.89893 14.0077 6.53123C14.4535 7.0944 14.7647 7.74675 15.0763 8.39003C15.1575 8.55683 15.2407 8.72254 15.324 8.88831C15.8493 9.95338 15.8493 9.95338 15.7265 10.4844C15.3253 10.9541 14.7194 11.1723 14.1689 11.4297C14.0666 11.4782 13.9643 11.5267 13.859 11.5767C13.0425 11.9638 12.2223 12.3432 11.4015 12.721C10.8643 12.9689 10.3306 13.2219 9.79981 13.4831C9.71486 13.5248 9.71486 13.5248 9.62819 13.5673C9.35451 13.7015 9.08127 13.8365 8.80871 13.973C8.71061 14.0213 8.6125 14.0695 8.51142 14.1192C8.42547 14.1621 8.33953 14.2049 8.25098 14.2491C7.88445 14.3942 7.56241 14.505 7.18309 14.356C6.86405 14.1029 6.72519 13.794 6.54727 13.4331C6.51232 13.3646 6.47737 13.2961 6.44136 13.2255C6.35565 13.0571 6.27105 12.8882 6.18741 12.7187C5.7417 13.532 5.3036 14.3489 4.87444 15.171C4.67484 15.5528 4.47299 15.933 4.26515 16.3104C3.16137 18.0977 3.16137 18.0977 3.02107 20.0849C3.15271 20.4053 3.30816 20.7029 3.48417 21.0011C3.69898 21.3882 3.8308 21.8043 3.9762 22.2212C4.03949 22.3917 4.10325 22.5619 4.16748 22.732C4.37771 23.2917 4.5872 23.8516 4.7963 24.4116C4.83273 24.5092 4.86917 24.6068 4.90671 24.7073C5.3884 25.9993 5.86014 27.295 6.33186 28.5907C6.38031 28.7237 6.38031 28.7237 6.42974 28.8594C6.49209 29.0306 6.55439 29.2018 6.61666 29.373C6.75442 29.751 6.89327 30.1284 7.03583 30.5047C7.06027 30.5691 7.0847 30.6336 7.10988 30.7001C7.15473 30.818 7.19983 30.9357 7.24525 31.0534C7.39054 31.4345 7.39054 31.4345 7.39054 31.625C7.52894 31.6209 7.52894 31.6209 7.67015 31.6168C8.01559 31.6074 8.36102 31.6015 8.70656 31.5967C8.85551 31.5941 9.00446 31.5906 9.15337 31.5861C10.6397 31.5424 10.6397 31.5424 11.1985 31.9702C11.9111 32.8067 11.6874 33.1248 11.6874 34.375C13.077 34.375 14.4666 34.375 15.8983 34.375C15.9267 34.063 15.9551 33.7511 15.9843 33.4297C16.0089 33.2668 16.036 33.1042 16.0679 32.9426C16.0831 32.8642 16.0983 32.7858 16.114 32.7051C16.1297 32.6269 16.1454 32.5488 16.1615 32.4682C16.1775 32.3864 16.1935 32.3046 16.21 32.2203C16.2489 32.0218 16.2883 31.8234 16.328 31.625C16.2639 31.6258 16.1997 31.6265 16.1336 31.6273C15.5268 31.6342 14.92 31.6394 14.3132 31.6428C14.0012 31.6446 13.6893 31.647 13.3774 31.6509C13.076 31.6547 12.7745 31.6567 12.4731 31.6576C12.303 31.6585 12.133 31.6612 11.963 31.6639C11.2451 31.6641 10.7608 31.5989 10.2057 31.1124C10.1594 31.0564 10.113 31.0005 10.0653 30.9429C10.0177 30.8871 9.97007 30.8314 9.92099 30.774C9.64507 30.3735 9.6032 30.0311 9.60193 29.5493C9.60154 29.4884 9.60115 29.4274 9.60075 29.3646C9.59966 29.1609 9.5998 28.9572 9.59994 28.7535C9.59943 28.6073 9.59884 28.461 9.59819 28.3147C9.59668 27.9177 9.59627 27.5207 9.59616 27.1237C9.59604 26.8755 9.59568 26.6273 9.59522 26.3791C9.59363 25.513 9.59293 24.6469 9.59306 23.7807C9.59317 22.974 9.59135 22.1672 9.58864 21.3604C9.58639 20.6673 9.58547 19.9742 9.58558 19.281C9.58562 18.8672 9.58513 18.4535 9.58331 18.0397C9.58165 17.6504 9.58164 17.2612 9.58289 16.8719C9.58307 16.7293 9.58266 16.5867 9.58162 16.4441C9.5716 14.9765 9.5716 14.9765 10.1375 14.3307C10.1935 14.2844 10.2494 14.2381 10.307 14.1904C10.3906 14.119 10.3906 14.119 10.4759 14.0461C10.9413 13.7254 11.3624 13.7251 11.9094 13.727C11.9928 13.7266 12.0762 13.7262 12.1621 13.7258C12.4418 13.7247 12.7215 13.7249 13.0013 13.725C13.2017 13.7245 13.4022 13.7239 13.6026 13.7233C14.1474 13.7217 14.6921 13.7213 15.2369 13.7212C15.6915 13.7211 16.1462 13.7204 16.6009 13.7198C17.6123 13.7185 18.6237 13.718 19.6352 13.7181C19.6958 13.7181 19.7565 13.7181 19.819 13.7181C19.8798 13.7181 19.9405 13.7181 20.0031 13.7182C20.9873 13.7182 21.9716 13.7166 22.9558 13.7142C23.9669 13.7117 24.9781 13.7105 25.9892 13.7107C26.5567 13.7107 27.1241 13.7102 27.6916 13.7084C28.2253 13.7067 28.7591 13.7067 29.2928 13.708C29.4886 13.7081 29.6844 13.7077 29.8802 13.7067C30.1478 13.7054 30.4152 13.7062 30.6827 13.7075C30.76 13.7066 30.8373 13.7057 30.9169 13.7048C31.5151 13.7113 31.9661 13.8656 32.4192 14.2626C32.4655 14.3185 32.5118 14.3745 32.5595 14.4321C32.6071 14.4878 32.6548 14.5436 32.7038 14.601C32.9693 14.9863 33.0216 15.3178 33.0238 15.7813C33.0243 15.8375 33.0248 15.8937 33.0254 15.9515C33.0268 16.139 33.0271 16.3265 33.0273 16.514C33.0281 16.6487 33.029 16.7834 33.0299 16.9181C33.0323 17.2833 33.0336 17.6485 33.0347 18.0137C33.036 18.3955 33.0383 18.7773 33.0405 19.1591C33.0446 19.8819 33.0477 20.6048 33.0506 21.3276C33.0538 22.1506 33.0581 22.9736 33.0624 23.7966C33.0713 25.4894 33.0789 27.1822 33.0858 28.875C33.6814 28.875 34.2769 28.875 34.8905 28.875C34.8533 28.6388 34.8161 28.4026 34.7777 28.1593C34.7417 27.9272 34.706 27.6951 34.6702 27.463C34.6455 27.3033 34.6205 27.1436 34.5952 26.9839C34.2664 24.9061 34.2664 24.9061 34.3749 24.4062C34.5277 24.2078 34.5277 24.2078 34.7187 24.0625C34.8321 24.0625 34.9455 24.0625 35.0624 24.0625C35.0615 23.9826 35.0605 23.9027 35.0595 23.8203C35.0508 23.0643 35.0444 22.3083 35.0401 21.5523C35.0379 21.1637 35.0349 20.7751 35.03 20.3865C35.0253 20.011 35.0228 19.6354 35.0216 19.2598C35.0209 19.1171 35.0193 18.9744 35.017 18.8317C35.003 17.9417 35.0219 17.1747 35.6631 16.4889C36.2458 15.9297 36.8341 15.7638 37.6346 15.7712C38.3671 15.7969 38.8582 16.0466 39.3539 16.5752C39.9127 17.2869 39.9082 17.8442 39.8749 18.7344C39.9197 18.7068 39.9644 18.6792 40.0105 18.6508C40.4933 18.446 41.1529 18.463 41.6413 18.6437C42.0858 18.9104 42.4345 19.2794 42.6249 19.7656C42.7642 21.2027 42.7642 21.2027 42.3312 21.7814C41.9017 22.2003 41.4237 22.4469 40.89 22.709C40.8115 22.7484 40.7329 22.7878 40.6519 22.8285C40.0698 23.1172 40.0698 23.1172 39.8749 23.1172C39.8749 23.4291 39.8749 23.7411 39.8749 24.0625C39.9454 24.0585 40.0158 24.0545 40.0884 24.0504C40.181 24.0473 40.2736 24.0442 40.3691 24.041C40.4608 24.037 40.5525 24.033 40.647 24.0289C40.9707 24.0709 41.0481 24.1554 41.2499 24.4062C41.4392 25.2783 41.13 26.3502 40.9921 27.2207C40.9672 27.3816 40.9423 27.5425 40.9176 27.7034C40.8573 28.0941 40.7961 28.4846 40.7343 28.875C40.842 28.871 40.9496 28.867 41.0606 28.8629C41.2025 28.8597 41.3444 28.8565 41.4862 28.8535C41.5571 28.8506 41.628 28.8477 41.7011 28.8448C41.7698 28.8437 41.8384 28.8426 41.9092 28.8414C41.9722 28.8396 42.0352 28.8378 42.1001 28.836C42.3796 28.8962 42.4637 28.9812 42.6249 29.2187C42.6762 29.5032 42.6718 29.7844 42.6694 30.0727C42.6703 30.2027 42.6703 30.2027 42.6712 30.3354C42.6727 30.622 42.6717 30.9086 42.6706 31.1953C42.6708 31.3944 42.6711 31.5934 42.6716 31.7925C42.6721 32.2098 42.6713 32.627 42.6697 33.0443C42.6678 33.5795 42.6689 34.1147 42.671 34.6499C42.6722 35.061 42.6718 35.4721 42.6709 35.8831C42.6707 36.0805 42.671 36.2779 42.6718 36.4752C42.6726 36.7509 42.6713 37.0265 42.6694 37.3022C42.6701 37.384 42.6708 37.4658 42.6715 37.5501C42.6644 38.1007 42.6644 38.1007 42.4665 38.3791C42.2093 38.5469 42.0267 38.5391 41.7212 38.5336C41.6138 38.5325 41.5063 38.5313 41.3956 38.5302C41.2278 38.5259 41.2278 38.5259 41.0566 38.5215C40.9433 38.5199 40.8301 38.5184 40.7135 38.5168C40.4339 38.5127 40.1544 38.5071 39.8749 38.5C39.8767 38.6127 39.8785 38.7255 39.8804 38.8416C39.8866 39.26 39.8905 39.6783 39.8938 40.0966C39.8955 40.2777 39.8979 40.4587 39.9008 40.6398C39.905 40.9 39.907 41.1602 39.9085 41.4205C39.9103 41.5015 39.912 41.5824 39.9139 41.6658C39.914 41.9938 39.9121 42.2152 39.7493 42.5041C39.4221 42.6855 39.1263 42.6742 38.7577 42.6706C38.6827 42.671 38.6077 42.6713 38.5305 42.6716C38.3721 42.6719 38.2138 42.6712 38.0555 42.6698C37.8132 42.668 37.5712 42.6698 37.329 42.672C37.175 42.6718 37.0211 42.6713 36.8671 42.6706C36.7948 42.6713 36.7224 42.672 36.6479 42.6728C36.5802 42.6717 36.5125 42.6706 36.4428 42.6695C36.3835 42.6692 36.3242 42.6689 36.2632 42.6686C36.0937 42.625 36.0937 42.625 35.7499 42.2812C35.7499 41.0334 35.7499 39.7856 35.7499 38.5C26.6749 38.5 17.5999 38.5 8.24991 38.5C8.24991 39.7478 8.24991 40.9956 8.24991 42.2812C7.86309 42.6681 7.86309 42.6681 7.55704 42.6695C7.45551 42.6711 7.45551 42.6711 7.35193 42.6728C7.24342 42.6717 7.24342 42.6717 7.13272 42.6706C7.05773 42.671 6.98273 42.6713 6.90546 42.6716C6.74712 42.6719 6.58878 42.6712 6.43045 42.6698C6.18823 42.668 5.94623 42.6698 5.70401 42.672C5.55004 42.6718 5.39607 42.6713 5.2421 42.6706C5.16976 42.6713 5.09742 42.672 5.02289 42.6728C4.71846 42.6679 4.51955 42.6532 4.25054 42.5041C4.05253 42.1529 4.08266 41.8166 4.09134 41.4205C4.09183 41.3371 4.09231 41.2536 4.09282 41.1677C4.09474 40.9014 4.09905 40.6353 4.10343 40.3691C4.10515 40.1885 4.10672 40.0079 4.10813 39.8273C4.11191 39.3848 4.11785 38.9424 4.12491 38.5C4.05382 38.5018 3.98273 38.5036 3.90948 38.5054C3.58742 38.5126 3.26538 38.5171 2.94327 38.5215C2.77544 38.5258 2.77544 38.5258 2.60422 38.5302C2.49676 38.5313 2.38931 38.5324 2.2786 38.5336C2.17959 38.5354 2.08058 38.5372 1.97857 38.539C1.71866 38.5 1.71866 38.5 1.51464 38.3744C1.30689 38.0501 1.32562 37.7607 1.32926 37.3828C1.32893 37.3078 1.3286 37.2328 1.32826 37.1555C1.32803 36.9972 1.32866 36.8389 1.3301 36.6805C1.33194 36.4383 1.33011 36.1963 1.32791 35.9541C1.32814 35.8001 1.32858 35.6461 1.32926 35.4922C1.32821 35.3837 1.32821 35.3837 1.32715 35.273C1.33238 34.9464 1.33799 34.7718 1.52816 34.4985C1.71866 34.375 1.71866 34.375 2.06241 34.375C2.05643 34.2661 2.05045 34.1572 2.04428 34.045C1.99033 32.6543 1.99033 32.6543 2.4065 32.1141C3.06309 31.5577 3.67814 31.5688 4.50626 31.5605C4.62773 31.5581 4.74919 31.5555 4.87065 31.5528C5.16633 31.5465 5.462 31.5422 5.75772 31.5391C5.24243 30.1353 4.7268 28.7316 4.21085 27.3281C4.17231 27.2233 4.13378 27.1185 4.09407 27.0105C3.86025 26.3744 3.62627 25.7385 3.39217 25.1026C3.27667 24.7887 3.16135 24.4747 3.04603 24.1607C2.72357 23.2836 2.40003 22.4072 2.06275 21.5357C2.0131 21.4067 1.96346 21.2777 1.91383 21.1487C1.82724 20.9239 1.73907 20.6998 1.64972 20.4761C1.61254 20.3799 1.57536 20.2837 1.53705 20.1846C1.50533 20.1046 1.47362 20.0246 1.44094 19.9422C1.26215 19.2313 1.40747 18.7303 1.74432 18.096C1.80321 17.9805 1.80321 17.9805 1.86328 17.8627C1.94827 17.6965 2.03397 17.5307 2.1203 17.3652C2.25726 17.1024 2.39212 16.8387 2.52649 16.5745C2.90876 15.8241 3.29508 15.0758 3.68182 14.3277C3.91871 13.8691 4.15354 13.4095 4.38724 12.9493C4.51936 12.6907 4.65384 12.4335 4.78842 12.1762C5.18558 11.4025 5.5158 10.7555 5.49778 9.86903C5.50241 9.33846 5.7331 8.86853 6.08536 8.48094C6.2963 8.27537 6.2963 8.27537 6.26093 8.06367C6.16313 7.73993 6.02765 7.43975 5.88663 7.1328C5.50193 6.29541 5.3733 5.57989 5.66877 4.68526C5.9974 3.88536 6.51246 3.41988 7.26163 3.01854C8.1281 2.73711 9.02853 2.84281 9.81861 3.26594ZM7.18643 4.96824C6.99511 5.34353 6.8971 5.62934 7.02094 6.04582C7.10829 6.26886 7.20412 6.48568 7.3046 6.70311C7.36909 6.8499 7.43355 6.99671 7.49796 7.14354C7.54792 7.25462 7.59799 7.36565 7.64835 7.47655C8.20459 7.26881 8.74692 7.03087 9.28653 6.78367C9.35205 6.75443 9.41757 6.72518 9.48507 6.69505C9.64963 6.61865 9.80963 6.53261 9.96866 6.4453C10.0756 6.12441 9.99193 5.99412 9.85268 5.69754C9.49613 4.93637 9.49613 4.93637 8.85181 4.43147C8.16073 4.23614 7.63953 4.43169 7.18643 4.96824ZM10.5111 7.72362C10.4086 7.77489 10.3061 7.82603 10.2034 7.87705C10.0475 7.9546 9.89154 8.03224 9.73588 8.11042C9.40781 8.27484 9.0772 8.43169 8.74304 8.58333C8.6612 8.62073 8.57936 8.65813 8.49503 8.69667C8.34316 8.7657 8.1909 8.83387 8.03819 8.90102C7.52865 9.13589 7.22937 9.37718 6.95514 9.87843C6.68451 10.8267 7.48272 11.8996 7.90616 12.7187C9.06777 12.2157 10.2063 11.6679 11.3437 11.1128C11.4164 11.0773 11.4891 11.0418 11.564 11.0053C12.3806 10.6065 13.196 10.2055 14.0077 9.79686C13.8562 9.32021 13.6532 8.89619 13.4223 8.45409C13.3857 8.38141 13.349 8.30874 13.3113 8.23387C13.0568 7.74553 12.8341 7.40044 12.289 7.21873C11.5998 7.1315 11.1151 7.41529 10.5111 7.72362ZM11.1718 15.3828C10.9933 15.6882 10.9786 15.9588 10.9792 16.3079C10.979 16.4066 10.9788 16.5053 10.9785 16.607C10.9791 16.715 10.9798 16.8229 10.9804 16.9341C10.9805 17.0512 10.9804 17.1683 10.9803 17.2854C10.9803 17.5983 10.9813 17.9113 10.9825 18.2243C10.9835 18.5182 10.9835 18.8121 10.9837 19.106C10.9846 19.965 10.987 20.8241 10.9892 21.6831C10.9927 23.6027 10.9963 25.5222 10.9999 27.5C17.8062 27.5 24.6124 27.5 31.6249 27.5C31.6302 25.5822 31.6355 23.6644 31.641 21.6885C31.6434 21.083 31.6457 20.4775 31.6481 19.8537C31.649 19.3108 31.649 19.3108 31.6495 18.7679C31.6498 18.5261 31.6507 18.2844 31.6521 18.0426C31.6539 17.7341 31.6544 17.4255 31.6541 17.1169C31.6542 16.9505 31.6556 16.7841 31.657 16.6177C31.6678 15.9143 31.6678 15.9143 31.3671 15.2969C30.9764 15.0815 30.5922 15.1007 30.1584 15.1026C30.0798 15.1023 30.0012 15.1019 29.9202 15.1016C29.6567 15.1007 29.3932 15.101 29.1297 15.1014C28.9408 15.101 28.752 15.1006 28.5631 15.1001C28.05 15.0989 27.5368 15.0988 27.0237 15.0991C26.5955 15.0992 26.1673 15.0987 25.7391 15.0983C24.6712 15.0973 23.6034 15.0974 22.5355 15.0979C21.6084 15.0984 20.6813 15.0974 19.7542 15.0958C18.8019 15.0941 17.8496 15.0934 16.8973 15.0937C16.3628 15.0939 15.8283 15.0937 15.2938 15.0925C14.7912 15.0914 14.2887 15.0916 13.7861 15.0927C13.6016 15.0929 13.4171 15.0926 13.2326 15.0919C12.9808 15.091 12.7291 15.0917 12.4773 15.0928C12.4042 15.0922 12.3311 15.0916 12.2558 15.0909C11.8353 15.0947 11.5274 15.1333 11.1718 15.3828ZM36.6093 17.7031C36.4505 18.0824 36.4164 18.4046 36.4179 18.8137C36.4179 18.8708 36.4178 18.9279 36.4178 18.9867C36.4179 19.1736 36.4193 19.3605 36.4206 19.5474C36.4209 19.6777 36.4212 19.808 36.4214 19.9383C36.422 20.2799 36.4237 20.6215 36.4256 20.9631C36.4274 21.3122 36.4282 21.6613 36.429 22.0104C36.4309 22.6944 36.4339 23.3785 36.4374 24.0625C37.118 24.0625 37.7987 24.0625 38.4999 24.0625C38.5179 23.5085 38.5179 23.5085 38.5332 22.9544C38.5361 22.8853 38.5389 22.8161 38.5419 22.7449C38.5441 22.6742 38.5464 22.6036 38.5487 22.5308C38.5953 22.2959 38.6543 22.2306 38.8437 22.0859C38.9958 22.0023 39.151 21.9244 39.3079 21.8503C39.3986 21.8065 39.4893 21.7628 39.5827 21.7177C39.7734 21.6268 39.9643 21.5364 40.1554 21.4464C40.2462 21.4024 40.3369 21.3585 40.4305 21.3132C40.5135 21.2738 40.5964 21.2345 40.6819 21.194C40.9389 21.0343 41.0848 20.8778 41.2499 20.625C41.2425 20.2944 41.2425 20.2944 41.078 20.0234C40.6571 19.9844 40.4202 20.0734 40.0575 20.2812C39.6149 20.5138 39.3393 20.6201 38.8437 20.539C38.6985 20.4356 38.6985 20.4356 38.5858 20.2812C38.5528 20.0722 38.5528 20.0722 38.5509 19.826C38.5491 19.7365 38.5472 19.647 38.5452 19.5548C38.5445 19.4613 38.5437 19.3678 38.5429 19.2715C38.5462 18.2606 38.5462 18.2606 38.0541 17.4077C37.468 17.0821 37.0428 17.2283 36.6093 17.7031ZM35.9218 25.4375C35.9895 26.2706 35.9895 26.2706 36.0913 27.0958C36.1051 27.1909 36.1188 27.2861 36.133 27.3841C36.1501 27.5003 36.1673 27.6166 36.185 27.7363C36.2399 28.1121 36.2949 28.4878 36.3515 28.875C37.3157 28.875 38.2799 28.875 39.2733 28.875C39.3348 28.4545 39.3961 28.0341 39.4569 27.6135C39.4777 27.4705 39.4985 27.3276 39.5195 27.1847C39.5496 26.9788 39.5794 26.773 39.609 26.5671C39.6231 26.4717 39.6231 26.4717 39.6375 26.3744C39.6831 26.0554 39.703 25.7616 39.703 25.4375C38.4552 25.4375 37.2074 25.4375 35.9218 25.4375ZM10.9999 28.875C10.9782 29.5459 10.9782 29.5459 11.2577 30.0781C11.6458 30.2957 12.0342 30.2743 12.4664 30.2724C12.545 30.2727 12.6236 30.273 12.7046 30.2734C12.9681 30.2743 13.2316 30.2739 13.4951 30.2736C13.684 30.274 13.8729 30.2744 14.0617 30.2749C14.5749 30.2761 15.088 30.2761 15.6011 30.2759C16.0293 30.2758 16.4575 30.2762 16.8858 30.2766C17.9536 30.2777 19.0214 30.2776 20.0893 30.277C21.0164 30.2766 21.9435 30.2775 22.8706 30.2792C23.8229 30.2808 24.7752 30.2815 25.7275 30.2812C26.262 30.2811 26.7965 30.2813 27.331 30.2825C27.8336 30.2836 28.3361 30.2834 28.8387 30.2823C29.0232 30.2821 29.2077 30.2823 29.3923 30.283C29.644 30.2839 29.8957 30.2832 30.1475 30.2821C30.2206 30.2828 30.2937 30.2834 30.369 30.2841C30.7931 30.2802 31.0858 30.2281 31.453 29.9922C31.692 29.612 31.6249 29.3596 31.6249 28.875C24.8187 28.875 18.0124 28.875 10.9999 28.875ZM33.1718 30.5078C33.0497 30.7519 33.0588 30.925 33.0858 31.1953C33.2777 31.44 33.3909 31.5262 33.6874 31.625C33.9293 31.6328 34.169 31.6358 34.4109 31.6347C34.4847 31.6348 34.5585 31.6348 34.6345 31.6348C34.8786 31.6347 35.1228 31.6341 35.3669 31.6334C35.5361 31.6332 35.7053 31.6331 35.8744 31.633C36.3199 31.6327 36.7653 31.6318 37.2108 31.6309C37.6653 31.63 38.1198 31.6296 38.5743 31.6292C39.4661 31.6283 40.358 31.6268 41.2499 31.625C41.2499 31.1712 41.2499 30.7175 41.2499 30.25C40.2728 30.2442 39.2957 30.2394 38.3185 30.2366C37.8648 30.2353 37.4111 30.2335 36.9574 30.2305C36.5194 30.2277 36.0814 30.2262 35.6435 30.2255C35.4765 30.2251 35.3095 30.2241 35.1425 30.2227C34.9084 30.2209 34.6743 30.2206 34.4402 30.2207C34.3713 30.2198 34.3024 30.2189 34.2315 30.2179C33.8162 30.2202 33.5319 30.2782 33.1718 30.5078ZM17.789 31.625C17.7276 31.9752 17.6663 32.3254 17.6054 32.6756C17.5846 32.7947 17.5638 32.9138 17.5429 33.0329C17.5128 33.2042 17.483 33.3755 17.4533 33.5468C17.4353 33.6499 17.4173 33.753 17.3987 33.8591C17.3528 34.1161 17.3528 34.1161 17.3593 34.375C19.9683 34.375 22.5774 34.375 25.2655 34.375C25.0733 32.9942 25.0733 32.9942 24.8358 31.625C24.3537 31.625 23.8716 31.625 23.3749 31.625C23.343 31.8217 23.343 31.8217 23.3105 32.0224C23.1783 32.673 22.8668 33.0453 22.3437 33.4297C21.7873 33.704 21.0922 33.7018 20.4977 33.5455C19.9954 33.3191 19.6482 32.9238 19.3949 32.4414C19.3216 32.1749 19.289 31.8986 19.2499 31.625C18.7678 31.625 18.2857 31.625 17.789 31.625ZM20.7108 31.625C20.7392 31.7668 20.7676 31.9086 20.7968 32.0547C21.0968 32.2547 21.2172 32.2698 21.5702 32.2266C21.7798 32.0815 21.7798 32.0815 21.914 31.8828C21.914 31.7977 21.914 31.7126 21.914 31.625C21.5169 31.625 21.1199 31.625 20.7108 31.625ZM31.0382 31.5469C30.8808 31.5495 30.8808 31.5495 30.7202 31.5522C30.6053 31.5541 30.4904 31.556 30.3755 31.5578C30.2582 31.5598 30.1409 31.5617 30.0236 31.5636C29.7148 31.5687 29.4059 31.5738 29.0971 31.5789C28.782 31.5841 28.4669 31.5893 28.1518 31.5944C27.5335 31.6046 26.9151 31.6148 26.2968 31.625C26.3359 31.9061 26.3754 32.1872 26.415 32.4682C26.4258 32.5464 26.4367 32.6246 26.4478 32.7051C26.4589 32.7835 26.47 32.8618 26.4814 32.9426C26.4913 33.0132 26.5012 33.0839 26.5114 33.1567C26.5758 33.564 26.6527 33.9693 26.7265 34.375C28.3713 34.375 30.0162 34.375 31.7108 34.375C31.7108 33.9496 31.7108 33.5242 31.7108 33.0859C31.8935 32.6885 31.8935 32.6885 32.0546 32.3984C32.0124 32.1639 32.0124 32.1639 31.8827 31.9687C31.8254 31.8255 31.7681 31.6823 31.7108 31.5391C31.4866 31.5391 31.2625 31.5432 31.0382 31.5469ZM3.43741 33.3437C3.43741 33.6841 3.43741 34.0244 3.43741 34.375C5.70616 34.375 7.97491 34.375 10.3124 34.375C10.3124 34.0347 10.3124 33.6944 10.3124 33.3437C9.92451 32.9558 9.88249 32.9568 9.3671 32.9555C9.27733 32.9546 9.27733 32.9546 9.18574 32.9537C8.98835 32.9522 8.79106 32.9532 8.59366 32.9543C8.45625 32.9541 8.31884 32.9538 8.18143 32.9533C7.89362 32.9528 7.60584 32.9536 7.31803 32.9552C6.94927 32.9571 6.58059 32.956 6.21183 32.9539C5.92814 32.9527 5.64446 32.9531 5.36077 32.954C5.22481 32.9542 5.08885 32.9539 4.9529 32.9531C4.76279 32.9523 4.57282 32.9536 4.38272 32.9555C4.22054 32.9559 4.22054 32.9559 4.05509 32.9563C3.73384 32.98 3.73384 32.98 3.43741 33.3437ZM33.1718 33.2578C33.0497 33.5019 33.0588 33.675 33.0858 33.9453C33.2777 34.19 33.3909 34.2762 33.6874 34.375C33.9293 34.3828 34.169 34.3858 34.4109 34.3847C34.4847 34.3848 34.5585 34.3848 34.6345 34.3848C34.8786 34.3847 35.1228 34.3841 35.3669 34.3834C35.5361 34.3832 35.7053 34.3831 35.8744 34.383C36.3199 34.3827 36.7653 34.3818 37.2108 34.3809C37.6653 34.38 38.1198 34.3796 38.5743 34.3792C39.4661 34.3783 40.358 34.3768 41.2499 34.375C41.2499 33.9212 41.2499 33.4675 41.2499 33C40.2728 32.9942 39.2957 32.9894 38.3185 32.9866C37.8648 32.9853 37.4111 32.9835 36.9574 32.9805C36.5194 32.9777 36.0814 32.9762 35.6435 32.9755C35.4765 32.9751 35.3095 32.9741 35.1425 32.9727C34.9084 32.9709 34.6743 32.9706 34.4402 32.9707C34.3713 32.9698 34.3024 32.9689 34.2315 32.9679C33.8162 32.9702 33.5319 33.0282 33.1718 33.2578ZM2.74991 35.75C2.74991 36.2037 2.74991 36.6575 2.74991 37.125C15.4549 37.125 28.1599 37.125 41.2499 37.125C41.2499 36.6712 41.2499 36.2175 41.2499 35.75C28.5449 35.75 15.8399 35.75 2.74991 35.75ZM5.49991 38.5C5.49991 39.4075 5.49991 40.315 5.49991 41.25C5.95366 41.25 6.40741 41.25 6.87491 41.25C6.87491 40.3425 6.87491 39.435 6.87491 38.5C6.42116 38.5 5.96741 38.5 5.49991 38.5ZM37.1249 38.5C37.1249 39.4075 37.1249 40.315 37.1249 41.25C37.5787 41.25 38.0324 41.25 38.4999 41.25C38.4999 40.3425 38.4999 39.435 38.4999 38.5C38.0462 38.5 37.5924 38.5 37.1249 38.5Z" fill="white"/>
<path d="M40.6807 2.54224C41.6602 3.37281 42.4076 4.56532 42.625 5.84379C42.7638 7.60634 42.5104 9.18945 41.3419 10.5675C40.4564 11.5508 39.1837 12.287 37.8477 12.3926C36.11 12.4549 34.6241 12.1647 33.3008 10.9732C32.3096 10.0354 31.6527 8.72041 31.5962 7.35172C31.5817 6.41863 31.5882 5.59264 31.9688 4.7266C32.0155 4.61394 32.0155 4.61394 32.0631 4.499C32.725 3.04054 33.9492 2.12274 35.3942 1.53248C37.1809 0.982535 39.231 1.38944 40.6807 2.54224ZM34.5147 3.72758C34.3805 3.85834 34.2478 3.9907 34.1172 4.12504C34.0416 4.19799 34.0416 4.19799 33.9645 4.27241C33.1822 5.08654 33.0447 6.17608 33.0622 7.25068C33.1072 8.35038 33.6646 9.23751 34.4442 9.98155C35.4278 10.8111 36.4634 11.0068 37.7154 10.9319C38.7202 10.8342 39.5731 10.2528 40.2537 9.53373C41.0996 8.50544 41.29 7.39699 41.1641 6.1016C40.9714 5.08096 40.343 4.16458 39.5313 3.52348C37.934 2.56512 35.9849 2.43569 34.5147 3.72758Z" fill="white"/>
<path d="M37.1251 3.39453C37.1819 3.39365 37.2386 3.39276 37.297 3.39185C37.5523 3.45964 37.6507 3.57444 37.8126 3.78125C37.8295 4.04437 37.8295 4.04437 37.7985 4.35226C37.675 5.58213 37.675 5.58213 38.0853 6.69373C38.5411 7.09646 39.0568 7.38438 39.6073 7.63881C39.7892 7.73438 39.7892 7.73438 39.8751 7.90625C39.924 8.51229 39.924 8.51229 39.7462 8.80859C39.4499 8.9864 39.1779 8.98348 38.8439 8.9375C38.5542 8.79823 38.5542 8.79823 38.2722 8.60516C38.2219 8.57124 38.1715 8.53731 38.1197 8.50236C38.0144 8.43099 37.9097 8.35887 37.8054 8.28605C37.6454 8.17431 37.4841 8.06479 37.3224 7.9556C36.5391 7.42167 36.5391 7.42167 36.4376 7.21875C36.426 6.96586 36.4194 6.71511 36.4172 6.4621C36.4165 6.38686 36.4158 6.31162 36.4151 6.2341C36.4139 6.07474 36.4129 5.91537 36.4123 5.75601C36.4108 5.51229 36.407 5.26868 36.4032 5.02499C36.4024 4.87024 36.4016 4.71549 36.401 4.56073C36.3988 4.45141 36.3988 4.45141 36.3965 4.33989C36.3983 3.83359 36.3983 3.83359 36.6011 3.56351C36.7959 3.42733 36.8899 3.39086 37.1251 3.39453Z" fill="white"/>
<path d="M29.5626 20.582C29.6193 20.5811 29.6761 20.5803 29.7345 20.5793C29.9853 20.646 30.0862 20.7703 30.2501 20.9688C30.2946 21.1917 30.2946 21.1917 30.2958 21.4414C30.2962 21.5318 30.2967 21.6222 30.2971 21.7153C30.2958 21.8093 30.2945 21.9032 30.2931 22C30.2944 22.0939 30.2957 22.1879 30.2971 22.2847C30.2967 22.3751 30.2962 22.4655 30.2958 22.5586C30.2954 22.641 30.295 22.7234 30.2946 22.8083C30.2379 23.0925 30.1289 23.1953 29.9064 23.375C29.7345 23.4207 29.7345 23.4207 29.5626 23.418C29.4775 23.4193 29.4775 23.4193 29.3907 23.4207C29.14 23.354 29.039 23.2297 28.8751 23.0312C28.8306 22.8083 28.8306 22.8083 28.8295 22.5586C28.829 22.4682 28.8286 22.3778 28.8281 22.2847C28.8295 22.1907 28.8308 22.0968 28.8322 22C28.8308 21.9061 28.8295 21.8121 28.8281 21.7153C28.8288 21.5797 28.8288 21.5797 28.8295 21.4414C28.8299 21.359 28.8302 21.2766 28.8306 21.1917C28.9092 20.7979 29.1609 20.5758 29.5626 20.582Z" fill="white"/>
<path d="M29.5626 24.0195C29.6193 24.0186 29.6761 24.0178 29.7345 24.0168C29.9964 24.0864 30.0917 24.1867 30.2501 24.4062C30.2846 24.6495 30.2984 24.8517 30.2931 25.0938C30.2944 25.1549 30.2957 25.216 30.2971 25.2791C30.2949 25.5753 30.272 25.751 30.097 25.9934C29.8961 26.1321 29.8035 26.1717 29.5626 26.168C29.5059 26.1689 29.4492 26.1697 29.3907 26.1707C29.1288 26.1011 29.0335 26.0008 28.8751 25.7812C28.8407 25.538 28.8269 25.3358 28.8322 25.0938C28.8308 25.0326 28.8295 24.9715 28.8281 24.9084C28.8303 24.6122 28.8533 24.4365 29.0282 24.1941C29.2292 24.0554 29.3217 24.0158 29.5626 24.0195Z" fill="white"/>
</svg>
