<svg width="44" height="44" viewBox="0 0 44 44" fill="none" xmlns="http://www.w3.org/2000/svg">
<g clip-path="url(#clip0_191_1312)">
<path d="M16.4962 2.30819C16.5967 2.3077 16.6971 2.30721 16.8006 2.30671C16.9096 2.30661 17.0187 2.30651 17.131 2.30642C17.2479 2.30602 17.3649 2.30559 17.4818 2.30512C17.7986 2.304 18.1154 2.30344 18.4322 2.30306C18.6305 2.30281 18.8289 2.30245 19.0272 2.30207C19.6491 2.3009 20.2709 2.30007 20.8927 2.29973C21.6082 2.29935 22.3237 2.29784 23.0391 2.29535C23.5937 2.29349 24.1482 2.29263 24.7028 2.29251C25.0333 2.29242 25.3637 2.29192 25.6942 2.29038C26.0056 2.28895 26.3169 2.28878 26.6283 2.28953C26.7954 2.28963 26.9625 2.28846 27.1295 2.28723C28.3909 2.29316 29.4262 2.60862 30.3712 3.46464C31.0506 4.18415 31.4653 5.14051 31.4629 6.13082C31.4629 6.22026 31.4629 6.30969 31.4629 6.40184C31.4624 6.49737 31.462 6.5929 31.4615 6.69133C31.4614 6.8392 31.4614 6.8392 31.4612 6.99006C31.4607 7.30439 31.4596 7.61872 31.4585 7.93306C31.4581 8.14639 31.4577 8.35972 31.4573 8.57306C31.4564 9.09556 31.455 9.61807 31.4531 10.1406C31.5323 10.1402 31.6115 10.1398 31.693 10.1394C32.4438 10.136 33.1947 10.1333 33.9455 10.1317C34.3314 10.1308 34.7173 10.1296 35.1032 10.1276C35.4765 10.1257 35.8498 10.1247 36.2232 10.1243C36.3647 10.124 36.5061 10.1233 36.6476 10.1224C38.7417 10.1091 40.6287 10.4728 42.2074 11.9469C42.8917 12.6758 43.4053 13.496 43.7422 14.4375C43.7758 14.5308 43.7758 14.5308 43.81 14.6261C44.0904 15.5585 44.0368 16.518 44.0347 17.4823C44.0352 17.6861 44.0358 17.8899 44.0365 18.0937C44.0381 18.645 44.038 19.1963 44.0375 19.7477C44.0372 20.0926 44.0375 20.4376 44.0379 20.7826C44.0379 20.8401 44.038 20.8975 44.0381 20.9567C44.0382 21.0734 44.0383 21.1902 44.0385 21.3069C44.0396 22.3994 44.0392 23.4918 44.0382 24.5842C44.0373 25.5811 44.0384 26.578 44.0405 27.5748C44.0426 28.6012 44.0434 29.6276 44.0428 30.654C44.0425 31.2291 44.0428 31.8042 44.0442 32.3793C44.0456 32.9204 44.0452 33.4615 44.0436 34.0026C44.0433 34.2004 44.0436 34.3981 44.0445 34.5959C44.0528 36.5618 43.7288 38.1918 42.3672 39.7031C42.3207 39.7566 42.2742 39.8101 42.2262 39.8652C41.2221 40.9498 39.6782 41.6153 38.2062 41.6957C37.8551 41.7023 37.5043 41.7034 37.1531 41.7026C37.0172 41.7029 36.8814 41.7033 36.7455 41.7038C36.3738 41.7048 36.0022 41.7048 35.6305 41.7046C35.229 41.7046 34.8275 41.7055 34.4259 41.7064C33.6399 41.7078 32.8538 41.7083 32.0678 41.7084C31.4285 41.7084 30.7893 41.7088 30.15 41.7093C28.3359 41.7108 26.5218 41.7116 24.7077 41.7115C24.5611 41.7115 24.5611 41.7115 24.4116 41.7115C24.2648 41.7115 24.2648 41.7115 24.1151 41.7115C22.5301 41.7114 20.945 41.713 19.36 41.7155C17.7308 41.7179 16.1017 41.7191 14.4725 41.719C13.5585 41.7189 12.6446 41.7194 11.7306 41.7212C10.9523 41.7228 10.174 41.7232 9.39571 41.722C8.99905 41.7214 8.60241 41.7214 8.20575 41.7229C7.84176 41.7243 7.4778 41.724 7.1138 41.7225C6.98299 41.7223 6.85217 41.7226 6.72137 41.7235C4.89178 41.7361 3.14573 41.187 1.79397 39.9125C0.632847 38.6942 -0.0287045 37.1606 -0.0229597 35.4744C-0.023349 35.3894 -0.0237386 35.3043 -0.0241398 35.2167C-0.0252225 34.9335 -0.0250872 34.6504 -0.024945 34.3672C-0.0254596 34.1634 -0.0260445 33.9597 -0.0266942 33.7559C-0.0282102 33.2035 -0.0286157 32.6511 -0.0287254 32.0987C-0.0288106 31.7531 -0.0292034 31.4076 -0.0296696 31.0621C-0.0311821 29.9176 -0.0319767 28.7731 -0.0318477 27.6285C-0.0318408 27.5669 -0.0318338 27.5053 -0.0318267 27.4419C-0.0318197 27.3802 -0.0318129 27.3185 -0.0318057 27.255C-0.0317359 26.2564 -0.0333792 25.2579 -0.0358039 24.2594C-0.0382791 23.2318 -0.0394584 22.2043 -0.0393103 21.1767C-0.0392534 20.6007 -0.039751 20.0247 -0.0415762 19.4488C-0.0432474 18.9066 -0.0432481 18.3645 -0.0420024 17.8223C-0.0418235 17.6241 -0.0422238 17.4259 -0.0432678 17.2278C-0.0530677 15.2375 0.315187 13.6217 1.65902 12.093C2.98046 10.76 4.67184 10.1483 6.52459 10.1315C6.85916 10.1303 7.19371 10.1311 7.52828 10.1322C7.67349 10.1323 7.81869 10.1325 7.96389 10.1326C8.34336 10.1329 8.72283 10.1337 9.10229 10.1347C9.4906 10.1356 9.8789 10.1359 10.2672 10.1364C11.0271 10.1373 11.787 10.1388 12.5469 10.1406C12.5461 10.0871 12.5454 10.0336 12.5446 9.97844C12.5369 9.41653 12.5318 8.85464 12.528 8.29269C12.5263 8.08357 12.524 7.87446 12.521 7.66536C12.4836 4.98793 12.4836 4.98793 13.3203 3.86714C13.3824 3.78029 13.4444 3.69344 13.5083 3.60395C14.2652 2.7359 15.3663 2.31152 16.4962 2.30819ZM14.6792 4.82856C14.1771 5.45917 14.1428 6.14635 14.1545 6.92631C14.1549 7.01868 14.1553 7.11106 14.1556 7.20623C14.1571 7.49866 14.1603 7.79103 14.1636 8.08345C14.1649 8.28279 14.1661 8.48214 14.1671 8.68148C14.1699 9.16787 14.1744 9.65421 14.1797 10.1406C14.7185 10.1406 15.2574 10.1406 15.8125 10.1406C15.8133 10.0148 15.8141 9.88905 15.815 9.75948C15.8184 9.29308 15.824 8.82672 15.8304 8.36035C15.8328 8.15847 15.8346 7.95657 15.8358 7.75468C15.8376 7.46453 15.8417 7.17447 15.8461 6.88435C15.8462 6.79402 15.8463 6.70368 15.8464 6.61061C15.8589 5.99053 15.8589 5.99053 16.0468 5.70137C16.272 5.5683 16.41 5.53988 16.6706 5.53352C16.791 5.52937 16.791 5.52937 16.9139 5.52513C16.9971 5.52391 17.0803 5.52269 17.166 5.52144C17.2506 5.51889 17.3351 5.51634 17.4222 5.51371C17.6304 5.50765 17.8386 5.5036 18.0469 5.49995C18.0469 4.98948 18.0469 4.47901 18.0469 3.95308C17.7622 3.94606 17.4776 3.94097 17.1929 3.93696C17.1133 3.9348 17.0337 3.93264 16.9517 3.93042C16.0477 3.9209 15.3119 4.15709 14.6792 4.82856ZM19.6797 3.95308C19.6797 4.46354 19.6797 4.97401 19.6797 5.49995C21.2111 5.49995 22.7425 5.49995 24.3203 5.49995C24.3203 4.98948 24.3203 4.47901 24.3203 3.95308C22.7889 3.95308 21.2575 3.95308 19.6797 3.95308ZM25.9531 3.95308C25.9531 4.46354 25.9531 4.97401 25.9531 5.49995C26.1519 5.50327 26.1519 5.50327 26.3546 5.50666C26.5288 5.5115 26.7029 5.51643 26.877 5.52144C26.9643 5.52265 27.0516 5.52387 27.1415 5.52513C27.7877 5.54638 27.7877 5.54638 28.0707 5.74568C28.2488 6.02621 28.2849 6.25482 28.2911 6.5796C28.2928 6.65873 28.2945 6.73785 28.2963 6.81938C28.2977 6.90452 28.2992 6.98965 28.3006 7.07737C28.3024 7.16475 28.3042 7.25213 28.3061 7.34216C28.3117 7.62148 28.3167 7.9008 28.3218 8.18013C28.3255 8.3694 28.3293 8.55868 28.333 8.74795C28.3422 9.21215 28.351 9.67636 28.3594 10.1406C28.8415 10.1406 29.3236 10.1406 29.8203 10.1406C29.8267 9.55504 29.8314 8.96952 29.8345 8.38396C29.8358 8.185 29.8375 7.98604 29.8398 7.78709C29.8429 7.50016 29.8444 7.21326 29.8455 6.92631C29.8468 6.83819 29.8482 6.75008 29.8495 6.65929C29.8497 5.7908 29.6653 5.1847 29.063 4.55027C28.554 4.09675 27.9954 3.94055 27.3211 3.94468C27.2411 3.94496 27.161 3.94524 27.0786 3.94552C26.9961 3.94624 26.9136 3.94696 26.8286 3.9477C26.7445 3.94809 26.6604 3.94848 26.5737 3.94888C26.3668 3.94989 26.16 3.95143 25.9531 3.95308ZM17.4453 7.13276C17.4453 8.12534 17.4453 9.11792 17.4453 10.1406C20.4798 10.1406 23.5142 10.1406 26.6406 10.1406C26.6406 9.148 26.6406 8.15542 26.6406 7.13276C23.6062 7.13276 20.5717 7.13276 17.4453 7.13276ZM2.66408 13.4921C1.96903 14.3892 1.61759 15.3704 1.62308 16.5002C1.62307 16.5693 1.62306 16.6383 1.62305 16.7095C1.62311 16.932 1.62376 17.1546 1.62444 17.3771C1.62457 17.5149 1.62466 17.6527 1.6247 17.7905C1.62515 18.3002 1.62635 18.81 1.62746 19.3198C1.62924 20.4595 1.63101 21.5992 1.63283 22.7734C4.8658 22.7734 8.09877 22.7734 11.4297 22.7734C11.6566 22.2062 11.8835 21.639 12.1172 21.0546C12.5591 20.2065 13.0625 19.4709 13.6641 18.7343C13.7153 18.6699 13.7664 18.6054 13.8192 18.539C14.2252 18.0475 14.7084 17.6623 15.211 17.2734C15.2834 17.2158 15.3559 17.1582 15.4305 17.0988C17.7197 15.3454 20.6484 14.6892 23.4892 15.0345C25.6788 15.3382 27.6427 16.2532 29.3047 17.7031C29.3653 17.7523 29.4259 17.8014 29.4883 17.8521C30.5493 18.7276 31.2943 19.941 31.9097 21.1567C31.9366 21.2097 31.9635 21.2626 31.9913 21.3172C32.2258 21.7952 32.3853 22.2646 32.5703 22.7734C35.8033 22.7734 39.0363 22.7734 42.3672 22.7734C42.3725 21.6443 42.3778 20.5153 42.3833 19.352C42.3857 18.9972 42.388 18.6424 42.3904 18.2768C42.3913 17.9552 42.3913 17.9552 42.3918 17.6336C42.3922 17.4917 42.3931 17.3499 42.3944 17.2081C42.4086 15.6054 42.119 14.3005 40.9667 13.1034C40.343 12.532 39.6493 12.1881 38.8438 11.9453C38.7942 11.93 38.7447 11.9148 38.6936 11.8991C38.4413 11.8473 38.2031 11.8482 37.9455 11.8478C37.8618 11.8475 37.8618 11.8475 37.7764 11.8472C37.5888 11.8466 37.4011 11.8466 37.2134 11.8467C37.0778 11.8464 36.9422 11.8461 36.8065 11.8457C36.4332 11.8449 36.0599 11.8445 35.6866 11.8443C35.2842 11.844 34.8818 11.8432 34.4794 11.8424C33.5071 11.8407 32.5349 11.8398 31.5626 11.8391C31.1047 11.8387 30.6468 11.8382 30.1889 11.8378C28.6665 11.8363 27.1441 11.8351 25.6217 11.8345C25.2266 11.8343 24.8314 11.8341 24.4363 11.834C24.3381 11.8339 24.2399 11.8339 24.1388 11.8338C22.5485 11.8331 20.9583 11.8309 19.368 11.8282C17.7351 11.8253 16.1022 11.8238 14.4692 11.8235C13.5525 11.8233 12.6358 11.8226 11.7191 11.8204C10.9382 11.8185 10.1574 11.8178 9.37651 11.8186C8.97832 11.819 8.58015 11.8189 8.18196 11.8172C7.81684 11.8157 7.45176 11.8158 7.08665 11.8171C6.95513 11.8173 6.82361 11.8169 6.6921 11.8159C5.07153 11.8041 3.78144 12.2997 2.66408 13.4921ZM19.25 16.9296C19.1521 16.9608 19.0542 16.9919 18.9533 17.024C16.4653 17.9104 14.5312 19.6983 13.4016 22.0774C12.4095 24.2793 12.3189 26.8619 13.1502 29.1293C13.5885 30.242 14.1412 31.2579 14.9531 32.1406C15.011 32.2039 15.011 32.2039 15.07 32.2684C16.8074 34.1496 19.1347 35.206 21.6838 35.3448C24.1675 35.4246 26.6004 34.4947 28.4111 32.7999C29.2605 31.9841 29.8866 31.1293 30.4219 30.0781C30.459 30.008 30.4961 29.9378 30.5344 29.8656C31.5964 27.725 31.6614 25.1036 30.913 22.8583C30.792 22.5358 30.6584 22.2235 30.5078 21.914C30.4807 21.8582 30.4536 21.8024 30.4256 21.7449C29.2948 19.4783 27.3365 17.852 24.9692 16.9941C23.1445 16.4067 21.0845 16.3452 19.25 16.9296ZM1.63283 24.4062C1.63283 25.4271 1.63283 26.4481 1.63283 27.5C4.75237 27.5 7.8719 27.5 11.086 27.5C11.086 26.479 11.086 25.4581 11.086 24.4062C7.96643 24.4062 4.8469 24.4062 1.63283 24.4062ZM32.9141 24.4062C32.9141 25.4271 32.9141 26.4481 32.9141 27.5C36.0336 27.5 39.1531 27.5 42.3672 27.5C42.3672 26.479 42.3672 25.4581 42.3672 24.4062C39.2477 24.4062 36.1281 24.4062 32.9141 24.4062ZM1.63283 29.1328C1.62574 30.2583 1.61865 31.3838 1.61135 32.5434C1.60822 32.8966 1.60509 33.2499 1.60187 33.6138C1.60072 33.935 1.60072 33.935 1.60003 34.2562C1.5995 34.3974 1.59831 34.5387 1.59654 34.6799C1.57809 36.2379 1.88316 37.4808 2.97527 38.6413C4.18111 39.8352 5.52204 40.0736 7.16457 40.0698C7.29762 40.0701 7.43066 40.0705 7.5637 40.071C7.92752 40.072 8.29133 40.072 8.65516 40.0718C9.04825 40.0718 9.44133 40.0727 9.83442 40.0735C10.6039 40.075 11.3734 40.0754 12.1429 40.0755C12.7688 40.0756 13.3946 40.076 14.0204 40.0765C15.7964 40.078 17.5725 40.0788 19.3486 40.0787C19.4442 40.0787 19.5399 40.0787 19.6385 40.0787C19.7821 40.0787 19.7821 40.0787 19.9287 40.0787C21.4804 40.0786 23.0321 40.0802 24.5838 40.0827C26.1788 40.0851 27.7737 40.0863 29.3687 40.0862C30.2635 40.0861 31.1582 40.0866 32.053 40.0884C32.815 40.09 33.5769 40.0904 34.3388 40.0892C34.7271 40.0886 35.1154 40.0886 35.5037 40.0901C35.8601 40.0915 36.2164 40.0912 36.5728 40.0897C36.7008 40.0895 36.8289 40.0898 36.9569 40.0907C38.5015 40.1016 39.875 39.7775 41.0244 38.6879C41.65 38.0243 42.0115 37.3036 42.2813 36.4375C42.2966 36.3904 42.3119 36.3433 42.3277 36.2948C42.3851 36.0025 42.3784 35.7123 42.377 35.4157C42.377 35.3466 42.377 35.2776 42.377 35.2065C42.3769 34.9835 42.3763 34.7604 42.3756 34.5374C42.3755 34.3996 42.3754 34.2617 42.3753 34.1238C42.3749 33.6131 42.3737 33.1024 42.3726 32.5917C42.3708 31.4503 42.369 30.3088 42.3672 29.1328C39.1342 29.1328 35.9013 29.1328 32.5703 29.1328C32.4285 29.4731 32.2867 29.8134 32.1406 30.164C30.9475 32.9455 28.8432 35.0278 26.0242 36.1693C23.2084 37.2481 20.0797 37.1342 17.3258 35.917C14.3566 34.5156 12.6168 32.1004 11.4297 29.1328C8.19674 29.1328 4.96377 29.1328 1.63283 29.1328Z" fill="white"/>
<path d="M19.9262 19.5688C20.0277 19.5677 20.1293 19.5666 20.2339 19.5655C20.3433 19.5653 20.4527 19.5651 20.5654 19.5649C20.6781 19.5643 20.7909 19.5638 20.907 19.5632C21.1456 19.5621 21.3841 19.5618 21.6226 19.5619C21.9274 19.5619 22.2321 19.5596 22.5369 19.5566C22.8286 19.5543 23.1203 19.5544 23.4121 19.5542C23.5757 19.5523 23.5757 19.5523 23.7425 19.5504C24.7019 19.5554 24.7019 19.5554 25.0939 19.9375C25.1935 20.2364 25.1896 20.4693 25.1882 20.7845C25.1881 20.8413 25.188 20.8982 25.1879 20.9568C25.1874 21.138 25.1863 21.3193 25.1852 21.5005C25.1848 21.6235 25.1844 21.7466 25.184 21.8696C25.1831 22.1709 25.1816 22.4722 25.1799 22.7735C25.2583 22.7712 25.3368 22.769 25.4176 22.7666C25.7099 22.7593 26.0021 22.7539 26.2945 22.7499C26.4207 22.7477 26.547 22.7448 26.6733 22.741C26.8553 22.7358 27.0371 22.7334 27.2192 22.7315C27.3285 22.7292 27.4379 22.727 27.5506 22.7247C27.9214 22.7863 28.0431 22.9127 28.2736 23.2031C28.3623 23.4692 28.3709 23.6541 28.372 23.9331C28.3726 24.0297 28.3731 24.1264 28.3737 24.226C28.3738 24.3827 28.3738 24.3827 28.374 24.5426C28.3743 24.6499 28.3745 24.7572 28.3748 24.8678C28.3753 25.0951 28.3755 25.3224 28.3755 25.5496C28.3755 25.8402 28.3766 26.1308 28.3781 26.4214C28.3793 26.6993 28.3792 26.9771 28.3793 27.255C28.38 27.3591 28.3806 27.4632 28.3812 27.5705C28.381 27.6677 28.3807 27.7649 28.3804 27.865C28.3805 27.9503 28.3807 28.0356 28.3808 28.1235C28.352 28.4433 28.2685 28.6906 28.0641 28.9395C27.7694 29.1752 27.4621 29.1428 27.1017 29.1412C26.9343 29.1408 26.9343 29.1408 26.7635 29.1404C26.6456 29.1397 26.5277 29.1389 26.4098 29.1382C26.2909 29.1378 26.172 29.1374 26.0532 29.137C25.7621 29.136 25.471 29.1346 25.1799 29.1328C25.1821 29.2082 25.1844 29.2836 25.1867 29.3613C25.194 29.6429 25.1994 29.9244 25.2035 30.206C25.2056 30.3275 25.2085 30.4491 25.2123 30.5706C25.2175 30.746 25.2199 30.9212 25.2218 31.0966C25.2241 31.2019 25.2263 31.3073 25.2286 31.4158C25.1807 31.7057 25.1256 31.9117 24.9201 32.1288C24.5068 32.3666 23.9838 32.2997 23.5202 32.2951C23.3985 32.2954 23.2768 32.2959 23.1552 32.2966C22.9006 32.2973 22.6461 32.2962 22.3915 32.2938C22.0658 32.2909 21.7402 32.2926 21.4145 32.2956C21.1634 32.2975 20.9123 32.2969 20.6612 32.2956C20.5411 32.2952 20.4211 32.2957 20.301 32.2969C19.3848 32.304 19.3848 32.304 19.0802 32.1288C18.791 31.8232 18.7699 31.4991 18.7785 31.0966C18.7791 31.0401 18.7797 30.9837 18.7804 30.9254C18.7827 30.7467 18.7881 30.5683 18.7936 30.3897C18.7958 30.2678 18.7977 30.146 18.7995 30.0241C18.8042 29.7269 18.8116 29.4299 18.8205 29.1328C18.7472 29.1342 18.674 29.1355 18.5985 29.1369C18.3254 29.1413 18.0524 29.1446 17.7793 29.147C17.6614 29.1483 17.5434 29.15 17.4255 29.1523C17.2555 29.1554 17.0854 29.1567 16.9154 29.158C16.8133 29.1594 16.7111 29.1607 16.6058 29.1621C16.2175 29.1211 15.9988 28.9753 15.7267 28.7031C15.6318 28.4291 15.6289 28.1672 15.6269 27.8789C15.6261 27.7825 15.6253 27.6861 15.6244 27.5868C15.6241 27.4831 15.6237 27.3793 15.6233 27.2724C15.6228 27.1654 15.6224 27.0584 15.6218 26.9481C15.621 26.7217 15.6204 26.4953 15.6201 26.2689C15.6198 26.0372 15.6186 25.8055 15.6166 25.5738C15.614 25.2395 15.6131 24.9051 15.6126 24.5708C15.6115 24.4674 15.6105 24.3639 15.6094 24.2574C15.6118 23.3441 15.6118 23.3441 15.8986 22.9453C16.2188 22.7319 16.3825 22.7536 16.7644 22.7567C16.8525 22.757 16.8525 22.757 16.9424 22.7574C17.1298 22.7584 17.3172 22.7605 17.5046 22.7627C17.6317 22.7636 17.7589 22.7644 17.8861 22.7651C18.1976 22.767 18.509 22.7699 18.8205 22.7735C18.8191 22.6976 18.8178 22.6218 18.8164 22.5436C18.812 22.2609 18.8088 21.9783 18.8063 21.6956C18.805 21.5735 18.8033 21.4513 18.801 21.3292C18.7979 21.1532 18.7964 20.9773 18.7953 20.8013C18.7939 20.6955 18.7926 20.5897 18.7912 20.4808C18.8234 20.1672 18.8834 20.0114 19.0783 19.7656C19.3612 19.5839 19.5938 19.5712 19.9262 19.5688ZM20.4533 21.2266C20.4353 22.0878 20.4353 22.0878 20.4199 22.9491C20.4157 23.1101 20.4157 23.1101 20.4113 23.2743C20.4091 23.3841 20.4068 23.4939 20.4045 23.6071C20.3655 23.9044 20.3221 24.0271 20.1095 24.2344C19.8203 24.3308 19.5861 24.3382 19.2814 24.3475C19.1306 24.3524 19.1306 24.3524 18.9767 24.3574C18.8489 24.3612 18.7212 24.3649 18.5895 24.3687C18.1836 24.3811 17.7777 24.3935 17.3595 24.4063C17.3595 25.4272 17.3595 26.4481 17.3595 27.5C18.2247 27.5249 18.2247 27.5249 19.0898 27.5488C19.1973 27.5521 19.3049 27.5554 19.4157 27.5588C19.5259 27.5619 19.6362 27.5651 19.7498 27.5683C20.0236 27.586 20.0236 27.586 20.2814 27.6719C20.3814 27.972 20.3855 28.2212 20.3945 28.5376C20.3995 28.6989 20.3995 28.6989 20.4045 28.8635C20.4082 29.0002 20.4119 29.137 20.4157 29.2779C20.4281 29.7121 20.4405 30.1464 20.4533 30.5938C21.4742 30.5938 22.4952 30.5938 23.547 30.5938C23.5719 29.7286 23.5719 29.7286 23.5959 28.8635C23.5991 28.756 23.6024 28.6484 23.6058 28.5376C23.6089 28.4274 23.6121 28.3171 23.6153 28.2035C23.633 27.9297 23.633 27.9297 23.7189 27.6719C24.019 27.5719 24.2682 27.5678 24.5847 27.5588C24.6922 27.5555 24.7997 27.5522 24.9105 27.5488C25.0473 27.5451 25.184 27.5414 25.3249 27.5376C25.7591 27.5252 26.1934 27.5128 26.6408 27.5C26.6408 26.4791 26.6408 25.4581 26.6408 24.4063C25.84 24.3882 25.84 24.3882 25.0391 24.3729C24.939 24.3701 24.8389 24.3672 24.7357 24.3643C24.6336 24.3621 24.5314 24.3598 24.4262 24.3575C24.1259 24.3173 23.9602 24.2425 23.7189 24.0625C23.592 23.8088 23.6138 23.574 23.6058 23.2911C23.6025 23.1834 23.5992 23.0756 23.5959 22.9646C23.5903 22.7583 23.5903 22.7583 23.5846 22.5479C23.566 21.8938 23.566 21.8938 23.547 21.2266C22.5261 21.2266 21.5052 21.2266 20.4533 21.2266Z" fill="white"/>
<path d="M39.2734 33.7734C39.8123 33.7734 40.3511 33.7734 40.9062 33.7734C40.9425 34.9686 40.8503 35.966 40.1328 36.9531C40.0665 37.0445 40.0665 37.0445 39.9989 37.1378C39.4425 37.8342 38.6187 38.3787 37.7266 38.5C37.1814 38.5265 36.6397 38.5115 36.0938 38.5C36.0938 37.9612 36.0938 37.4223 36.0938 36.8672C36.2887 36.8601 36.4837 36.853 36.6846 36.8457C37.4328 36.8014 38.0503 36.6787 38.5806 36.1099C39.0064 35.6025 39.1396 35.0641 39.2036 34.4233C39.2267 34.2089 39.2497 33.9944 39.2734 33.7734Z" fill="white"/>
<path d="M33 36.8672C33.5388 36.8672 34.0777 36.8672 34.6328 36.8672C34.6328 37.406 34.6328 37.9448 34.6328 38.5C34.094 38.5 33.5552 38.5 33 38.5C33 37.9612 33 37.4223 33 36.8672Z" fill="white"/>
</g>
<defs>
<clipPath id="clip0_191_1312">
<rect width="44" height="44" fill="white"/>
</clipPath>
</defs>
</svg>
