<svg width="44" height="44" viewBox="0 0 44 44" fill="none" xmlns="http://www.w3.org/2000/svg">
<path d="M21.8656 1.33203C21.9311 1.32937 21.9966 1.32671 22.064 1.32397C22.3589 1.40165 22.4251 1.55323 22.6015 1.80469C22.7796 2.1249 22.9423 2.45229 23.105 2.78055C23.1522 2.87491 23.1994 2.96926 23.248 3.06648C23.3474 3.26536 23.4465 3.46436 23.5453 3.66348C23.6972 3.96933 23.85 4.27471 24.003 4.58003C24.0994 4.77331 24.1957 4.96661 24.292 5.15994C24.3379 5.2517 24.3838 5.34345 24.4312 5.43798C24.4731 5.52261 24.515 5.60724 24.5581 5.69443C24.5953 5.76909 24.6324 5.84374 24.6707 5.92066C24.7499 6.10156 24.7499 6.10156 24.7499 6.27344C24.8444 6.28052 24.8444 6.28052 24.9408 6.28774C25.8319 6.35778 26.7131 6.47785 27.5977 6.60399C27.7877 6.63083 27.9778 6.65707 28.168 6.68271C28.4449 6.72007 28.7215 6.75923 28.9981 6.7988C29.0829 6.80991 29.1677 6.82103 29.255 6.83248C29.7028 6.89884 30.0157 6.95764 30.3358 7.30469C30.4415 7.60836 30.4389 7.76673 30.3412 8.07275C30.1857 8.30369 30.0605 8.43928 29.8532 8.61752C29.7918 8.67036 29.7304 8.7232 29.6671 8.77764C29.4897 8.92638 29.3106 9.0723 29.1299 9.21703C27.473 10.4474 27.473 10.4474 26.5557 12.1838C26.5315 12.9841 26.7854 13.7494 27.0408 14.4982C27.1693 14.8877 27.2465 15.2798 27.3133 15.6839C27.3291 15.7764 27.3291 15.7764 27.3452 15.8707C27.5242 17.0179 27.5242 17.0179 27.2743 17.4023C27.0058 17.5719 26.8766 17.6232 26.5546 17.6172C26.4028 17.5509 26.2536 17.4786 26.1068 17.402C26.0296 17.3622 25.9525 17.3223 25.873 17.2813C25.8143 17.2503 25.7557 17.2194 25.6952 17.1875C25.5084 23.9377 27.0131 30.5987 28.8749 37.0391C28.9454 37.0413 29.0158 37.0435 29.0884 37.0458C29.181 37.0507 29.2736 37.0555 29.369 37.0605C29.4608 37.0645 29.5525 37.0685 29.647 37.0726C29.9626 37.1364 30.0508 37.2196 30.2499 37.4688C30.2936 37.6905 30.2936 37.6905 30.2944 37.9441C30.2955 38.0393 30.2965 38.1345 30.2977 38.2326C30.297 38.335 30.2963 38.4375 30.2956 38.543C30.2959 38.6485 30.2962 38.754 30.2966 38.8627C30.2968 39.0858 30.2962 39.3089 30.2947 39.5319C30.2929 39.8737 30.2947 40.2153 30.2969 40.5571C30.2967 40.7738 30.2962 40.9904 30.2956 41.207C30.2963 41.3094 30.2969 41.4119 30.2977 41.5174C30.2966 41.6126 30.2955 41.7078 30.2944 41.8059C30.2941 41.8896 30.2938 41.9733 30.2936 42.0595C30.2353 42.3555 30.1447 42.4416 29.9062 42.625C29.681 42.6588 29.4918 42.6715 29.2668 42.6687C29.1699 42.6695 29.1699 42.6695 29.071 42.6703C28.8543 42.6716 28.6377 42.6706 28.421 42.6695C28.2658 42.6699 28.1105 42.6706 27.9552 42.6713C27.5333 42.6729 27.1115 42.6723 26.6896 42.6712C26.2484 42.6703 25.8073 42.6711 25.3661 42.6717C24.6251 42.6723 23.8842 42.6715 23.1433 42.6698C22.2863 42.6679 21.4293 42.6685 20.5722 42.6704C19.8369 42.672 19.1015 42.6722 18.3661 42.6713C17.9267 42.6708 17.4873 42.6707 17.0479 42.6719C16.6348 42.6728 16.2218 42.6722 15.8087 42.6702C15.657 42.6697 15.5052 42.6698 15.3535 42.6706C15.1466 42.6715 14.9399 42.6704 14.733 42.6687C14.6425 42.6698 14.6425 42.6698 14.5503 42.671C14.2622 42.6663 14.1158 42.642 13.8845 42.4643C13.7128 42.2308 13.7064 42.0942 13.7054 41.8059C13.7043 41.7107 13.7033 41.6155 13.7021 41.5174C13.7028 41.415 13.7035 41.3125 13.7043 41.207C13.7039 41.1015 13.7036 40.996 13.7033 40.8873C13.703 40.6642 13.7037 40.4411 13.7051 40.2181C13.7069 39.8763 13.7051 39.5347 13.7029 39.1929C13.7031 38.9762 13.7036 38.7596 13.7043 38.543C13.7036 38.4406 13.7029 38.3381 13.7021 38.2326C13.7038 38.0898 13.7038 38.0898 13.7054 37.9441C13.7057 37.8604 13.706 37.7767 13.7063 37.6905C13.7622 37.4061 13.8696 37.3031 14.0937 37.125C14.2983 37.086 14.2983 37.086 14.522 37.0914C14.6425 37.0931 14.6425 37.0931 14.7654 37.0948C14.8902 37.0991 14.8902 37.0991 15.0175 37.1035C15.102 37.1051 15.1865 37.1066 15.2736 37.1082C15.4819 37.1123 15.6901 37.1179 15.8983 37.125C15.9194 37.0158 15.9404 36.9065 15.9621 36.794C16.1737 35.7111 16.402 34.6329 16.6395 33.5555C17.8532 28.0479 18.4179 22.6567 18.4765 17.0156C18.4018 17.0591 18.3271 17.1025 18.2502 17.1472C18.1502 17.2037 18.0502 17.2601 17.9501 17.3164C17.8035 17.4002 17.8035 17.4002 17.654 17.4856C17.3492 17.6217 17.1723 17.6551 16.8437 17.6172C16.602 17.4829 16.602 17.4829 16.414 17.2734C16.267 16.7104 16.3874 16.1955 16.4918 15.6319C16.5093 15.5327 16.5268 15.4334 16.5449 15.3312C16.6006 15.0152 16.6576 14.6995 16.7147 14.3838C16.7719 14.0675 16.8288 13.7511 16.8846 13.4345C16.9194 13.2378 16.9548 13.0413 16.9911 12.8449C17.0068 12.7557 17.0226 12.6664 17.0389 12.5745C17.0531 12.4964 17.0672 12.4182 17.0819 12.3377C17.1089 12.0332 17.0923 11.7954 16.9119 11.542C16.8684 11.499 16.8249 11.4559 16.78 11.4116C16.7306 11.362 16.6812 11.3123 16.6304 11.2612C16.5766 11.2089 16.5228 11.1566 16.4673 11.1027C16.4119 11.0475 16.3564 10.9923 16.2992 10.9355C16.1216 10.7592 15.9429 10.5842 15.7641 10.4092C15.646 10.2921 15.528 10.1749 15.4101 10.0577C15.2953 9.94407 15.1804 9.83049 15.0655 9.71698C15.0129 9.66504 14.9603 9.6131 14.9062 9.55958C14.5802 9.24064 14.2448 8.93608 13.8992 8.6385C13.436 8.23304 13.436 8.23304 13.3739 7.91095C13.3572 7.62775 13.372 7.43744 13.5407 7.20595C13.8101 7.00113 14.0635 6.95894 14.3901 6.91327C14.4537 6.90322 14.5174 6.89318 14.583 6.88283C14.7921 6.85019 15.0014 6.8196 15.2108 6.78906C15.3562 6.76688 15.5015 6.74458 15.6468 6.72218C16.0974 6.6532 16.5484 6.58666 16.9994 6.52051C17.2313 6.48646 17.4631 6.45234 17.6949 6.41802C17.8375 6.39691 17.9801 6.37595 18.1228 6.35518C18.5623 6.29371 18.5623 6.29371 18.9921 6.1875C19.1059 6.03523 19.1059 6.03523 19.1871 5.83737C19.2221 5.76163 19.257 5.68588 19.293 5.60784C19.3302 5.5244 19.3674 5.44095 19.4057 5.35498C19.4883 5.17595 19.5713 4.99703 19.6544 4.81821C19.6992 4.72129 19.7441 4.62437 19.7902 4.52452C20.0311 4.00813 20.2845 3.49787 20.5386 2.98791C20.624 2.81622 20.7087 2.6442 20.7934 2.47215C20.8464 2.36557 20.8994 2.259 20.9525 2.15247C21.0225 2.01135 21.0225 2.01135 21.0939 1.86738C21.3015 1.50016 21.435 1.33784 21.8656 1.33203ZM21.828 3.78125C21.8068 3.8259 21.7855 3.87054 21.7636 3.91654C21.5414 4.38189 21.3165 4.84588 21.09 5.30918C21.0059 5.48215 20.9225 5.65545 20.8398 5.82908C20.7206 6.07894 20.599 6.32748 20.4769 6.5759C20.4223 6.69233 20.4223 6.69233 20.3666 6.81111C20.1921 7.1606 20.0836 7.3534 19.7457 7.56221C19.364 7.66383 18.9898 7.73021 18.5983 7.78036C18.4829 7.79637 18.4829 7.79637 18.3651 7.81271C18.1213 7.84649 17.8773 7.87917 17.6332 7.91162C17.3876 7.94443 17.1421 7.97749 16.8967 8.01146C16.7444 8.03253 16.592 8.05292 16.4396 8.07259C16.043 8.11459 16.043 8.11459 15.7265 8.33594C16.3917 9.02004 16.3917 9.02004 17.0961 9.6626C17.4268 9.94429 17.7339 10.2477 18.0414 10.5542C18.0913 10.6037 18.1412 10.6532 18.1926 10.7042C18.5518 11.0647 18.5518 11.0647 18.6483 11.2578C18.6427 12.1561 18.4468 13.0598 18.2992 13.9434C18.2747 14.0918 18.2503 14.2403 18.2259 14.3888C18.1666 14.7489 18.1068 15.1088 18.0468 15.4688C18.4325 15.3506 18.7765 15.1971 19.1338 15.0102C19.1867 14.9826 19.2397 14.9551 19.2942 14.9267C19.4623 14.8392 19.63 14.7512 19.7978 14.6631C19.9096 14.6046 20.0215 14.5462 20.1334 14.4879C20.1878 14.4595 20.2422 14.4311 20.2983 14.4018C20.4056 14.3459 20.513 14.2901 20.6204 14.2345C20.8381 14.1216 21.0546 14.0078 21.2682 13.8872C21.6497 13.6762 21.8384 13.641 22.2577 13.75C22.525 13.8648 22.781 13.9986 23.0382 14.1344C23.1117 14.1724 23.1851 14.2104 23.2608 14.2496C23.4943 14.3707 23.7274 14.4927 23.9604 14.6147C24.195 14.737 24.4297 14.859 24.6645 14.9808C24.8104 15.0566 24.9561 15.1326 25.1018 15.2089C25.1999 15.2601 25.1999 15.2601 25.3 15.3123C25.3578 15.3426 25.4156 15.3729 25.4752 15.4041C25.5974 15.475 25.5974 15.475 25.6952 15.4688C25.6528 14.9218 25.5747 14.3877 25.479 13.848C25.4546 13.7083 25.4302 13.5685 25.4058 13.4287C25.368 13.2123 25.3296 12.996 25.2898 12.7799C25.2511 12.5686 25.2145 12.3571 25.1782 12.1454C25.1659 12.0812 25.1536 12.017 25.1409 11.9509C25.0694 11.5192 25.1113 11.2788 25.3515 10.9141C25.5118 10.7231 25.5118 10.7231 25.6909 10.5465C25.7567 10.4811 25.8226 10.4156 25.8904 10.3483C25.9589 10.2815 26.0275 10.2148 26.098 10.146C26.1649 10.0796 26.2318 10.0132 26.3006 9.94475C26.6692 9.58114 27.0456 9.23062 27.4384 8.89344C27.6428 8.71623 27.8329 8.53569 28.0155 8.33594C28.0155 8.27922 28.0155 8.2225 28.0155 8.16406C27.9657 8.15729 27.9159 8.15052 27.8645 8.14354C27.3457 8.07274 26.8271 7.99992 26.3087 7.92593C26.1153 7.89858 25.9217 7.87175 25.7281 7.84545C25.4497 7.80754 25.1716 7.76778 24.8936 7.72766C24.807 7.71628 24.7204 7.70489 24.6312 7.69316C24.0424 7.60563 24.0424 7.60563 23.7729 7.4294C23.5608 7.11068 23.3909 6.77698 23.2232 6.43323C23.1667 6.31951 23.1667 6.31951 23.109 6.20349C22.9893 5.96215 22.8706 5.72035 22.7519 5.47852C22.6707 5.31444 22.5894 5.1504 22.5081 4.98639C22.3094 4.58503 22.1114 4.18329 21.914 3.78125C21.8856 3.78125 21.8572 3.78125 21.828 3.78125ZM20.5766 15.8125C20.5155 15.8453 20.4544 15.8781 20.3914 15.9119C20.24 15.9932 20.0887 16.0747 19.9374 16.1562C19.9369 16.2154 19.9364 16.2745 19.9359 16.3354C19.9104 19.2043 19.8841 22.065 19.5937 24.9219C19.5847 25.0117 19.5847 25.0117 19.5756 25.1034C19.4873 25.9911 19.378 26.8749 19.2499 27.7578C19.2365 27.8502 19.2365 27.8502 19.2229 27.9445C18.8855 30.2491 18.3929 32.52 17.8835 34.7915C17.8434 34.9706 17.8033 35.1497 17.7633 35.3288C17.7138 35.5505 17.6637 35.7722 17.6133 35.9937C17.58 36.142 17.58 36.142 17.5461 36.2933C17.5168 36.4227 17.5168 36.4227 17.4868 36.5548C17.4349 36.7992 17.4349 36.7992 17.4452 37.125C18.0691 37.125 18.693 37.125 19.3358 37.125C19.3777 36.9144 19.4196 36.7038 19.4627 36.4868C19.4777 36.4117 19.4927 36.3365 19.5081 36.2591C19.5904 35.8445 19.6705 35.4297 19.7481 35.0142C19.9253 34.0719 20.1135 33.1369 20.3456 32.2063C20.494 31.6085 20.6299 31.008 20.7592 30.4058C20.7727 30.3427 20.7863 30.2796 20.8002 30.2145C21.8096 25.432 21.4159 20.3283 21.3124 15.4688C21.0763 15.4688 20.7878 15.6985 20.5766 15.8125ZM22.6874 15.6406C22.6278 17.2785 22.5904 18.9164 22.5692 20.5552C22.5684 20.6168 22.5676 20.6784 22.5668 20.7418C22.5155 24.7298 22.8297 28.5165 23.6273 32.4253C23.661 32.5904 23.661 32.5904 23.6953 32.7588C23.9947 34.2188 24.3024 35.6788 24.664 37.125C25.5431 37.125 26.4222 37.125 27.328 37.125C27.1555 36.4239 26.9802 35.7246 26.7869 35.0289C26.2767 33.1899 25.8236 31.3456 25.4374 29.4766C25.4163 29.3746 25.3951 29.2726 25.3734 29.1675C24.9196 26.9396 24.626 24.6778 24.4276 22.4136C24.4226 22.3557 24.4175 22.2979 24.4123 22.2383C24.2853 20.7675 24.2218 19.2967 24.1859 17.8213C24.1822 17.6752 24.1785 17.529 24.1747 17.3829C24.1657 17.0313 24.1569 16.6797 24.1483 16.3281C23.9373 16.2131 23.726 16.0986 23.5146 15.9844C23.4545 15.9516 23.3945 15.9188 23.3326 15.885C23.0275 15.7045 23.0275 15.7045 22.6874 15.6406ZM21.914 31.0234C21.7681 31.7936 21.6224 32.5637 21.477 33.3339C21.4094 33.6915 21.3418 34.0491 21.2741 34.4067C21.2088 34.7516 21.1436 35.0965 21.0785 35.4415C21.0536 35.5732 21.0287 35.705 21.0037 35.8368C20.9688 36.0209 20.934 36.2051 20.8993 36.3893C20.8795 36.4942 20.8596 36.5992 20.8392 36.7073C20.7919 36.9398 20.7919 36.9398 20.7968 37.125C21.5908 37.125 22.3849 37.125 23.203 37.125C22.843 35.0888 22.4659 33.056 22.0858 31.0234C22.0291 31.0234 21.9724 31.0234 21.914 31.0234ZM15.1249 38.5C15.1249 38.7269 15.1249 38.9537 15.1249 39.1875C15.2635 39.1894 15.2635 39.1894 15.4048 39.1913C15.7474 39.1963 16.09 39.2029 16.4325 39.2101C16.5808 39.2129 16.7291 39.2153 16.8774 39.2173C17.0906 39.2202 17.3036 39.2246 17.5167 39.2295C17.5831 39.23 17.6494 39.2306 17.7178 39.2311C18.1769 39.2437 18.1769 39.2437 18.3893 39.3947C18.4982 39.5653 18.511 39.6733 18.5087 39.875C18.5097 39.9627 18.5097 39.9627 18.5107 40.0522C18.4635 40.282 18.4116 40.3395 18.2187 40.4766C17.9788 40.505 17.757 40.5185 17.5167 40.5205C17.4484 40.5221 17.3801 40.5236 17.3097 40.5252C17.0917 40.5299 16.8737 40.5328 16.6557 40.5356C16.5078 40.5385 16.3599 40.5415 16.212 40.5445C15.8497 40.5518 15.4873 40.5576 15.1249 40.5625C15.1249 40.7894 15.1249 41.0162 15.1249 41.25C19.6624 41.25 24.1999 41.25 28.8749 41.25C28.8749 41.0231 28.8749 40.7963 28.8749 40.5625C28.7678 40.562 28.6607 40.5615 28.5504 40.561C27.5425 40.5561 26.5347 40.5498 25.5268 40.5422C25.0086 40.5384 24.4904 40.535 23.9722 40.5327C23.4724 40.5305 22.9726 40.527 22.4728 40.5227C22.2819 40.5213 22.0909 40.5203 21.8999 40.5197C21.633 40.5189 21.3662 40.5165 21.0993 40.5137C21.0199 40.5138 20.9404 40.514 20.8586 40.5141C20.7859 40.513 20.7133 40.5119 20.6384 40.5108C20.5437 40.5102 20.5437 40.5102 20.4471 40.5096C20.234 40.4672 20.1567 40.387 20.0233 40.2188C19.9891 40.0522 19.9891 40.0522 19.9911 39.875C19.9901 39.7873 19.9901 39.7873 19.9891 39.6978C20.0338 39.4802 20.1097 39.4122 20.2812 39.2734C20.4471 39.2404 20.4471 39.2404 20.6384 39.2392C20.7474 39.2376 20.7474 39.2376 20.8586 39.2359C20.938 39.236 21.0175 39.2362 21.0993 39.2363C21.1832 39.2354 21.267 39.2345 21.3534 39.2336C21.631 39.231 21.9086 39.2302 22.1862 39.2295C22.3785 39.228 22.5708 39.2265 22.7631 39.2248C23.2696 39.2207 23.7761 39.2181 24.2826 39.2159C24.7993 39.2133 25.316 39.2093 25.8327 39.2055C26.8467 39.1981 27.8608 39.1923 28.8749 39.1875C28.8749 38.9606 28.8749 38.7338 28.8749 38.5C24.3374 38.5 19.7999 38.5 15.1249 38.5Z" fill="white"/>
<path d="M28.5311 12.2031C28.9085 12.3533 29.2601 12.5454 29.6161 12.7402C29.7191 12.7953 29.8222 12.8503 29.9254 12.9051C30.235 13.0703 30.5433 13.2381 30.8514 13.4062C31.0251 13.5004 31.1987 13.5945 31.3724 13.6886C31.6843 13.8579 31.9955 14.0285 32.3063 14.1998C32.595 14.3584 32.8852 14.5131 33.1778 14.6644C33.2458 14.6997 33.3139 14.735 33.384 14.7714C33.5106 14.8368 33.6375 14.9016 33.7648 14.9658C34.0475 15.112 34.1947 15.1985 34.3748 15.4687C34.4314 16.0621 34.4314 16.0621 34.2459 16.3711C33.9377 16.556 33.6887 16.5637 33.3436 16.5C32.9376 16.3358 32.5568 16.1288 32.1727 15.9199C32.0616 15.8608 31.9505 15.8018 31.8393 15.743C31.509 15.5675 31.1801 15.3894 30.8514 15.2109C30.7591 15.161 30.6667 15.1111 30.5716 15.0597C30.1732 14.8443 29.7756 14.6274 29.3791 14.4086C29.109 14.2599 28.8376 14.1143 28.564 13.9722C28.5035 13.9407 28.443 13.9092 28.3807 13.8767C28.222 13.7944 28.0631 13.7129 27.904 13.6315C27.6717 13.4922 27.6717 13.4922 27.4998 13.2344C27.4433 12.641 27.4433 12.641 27.6288 12.332C27.9347 12.1485 28.1882 12.1425 28.5311 12.2031Z" fill="white"/>
<path d="M16.1561 12.2032C16.3709 12.3321 16.3709 12.3321 16.4999 12.5469C16.5664 13.0126 16.5664 13.0126 16.4999 13.2344C16.2027 13.5699 15.9109 13.7706 15.5119 13.9706C15.4585 13.9977 15.405 14.0249 15.35 14.0528C15.2359 14.1107 15.1215 14.1682 15.0071 14.2253C14.706 14.3757 14.4063 14.5286 14.1064 14.6813C14.0465 14.7116 13.9867 14.742 13.925 14.7733C13.3191 15.0815 12.7226 15.4061 12.1281 15.7357C11.7735 15.9318 11.4173 16.1247 11.0573 16.3107C10.9894 16.3459 10.9215 16.3811 10.8515 16.4174C10.53 16.5534 10.314 16.5537 9.9686 16.5001C9.75376 16.3711 9.75376 16.3711 9.62485 16.1563C9.57786 15.9174 9.56212 15.705 9.62485 15.4688C9.88886 15.1584 10.1994 14.9818 10.5567 14.7984C10.6146 14.768 10.6726 14.7376 10.7322 14.7063C10.9214 14.6072 11.111 14.509 11.3006 14.4107C11.4316 14.3422 11.5625 14.2737 11.6934 14.2051C11.8938 14.1001 12.0942 13.9951 12.2948 13.8903C12.9542 13.5457 13.6101 13.1947 14.2655 12.8423C14.4624 12.7366 14.6593 12.6308 14.8563 12.5251C14.9376 12.4814 15.0189 12.4377 15.1027 12.3927C15.4593 12.2024 15.7516 12.148 16.1561 12.2032Z" fill="white"/>
<path d="M27.98 17.8011C28.538 17.9998 28.8654 18.7094 29.1596 19.1909C29.6574 19.9928 30.172 20.7829 30.6903 21.5716C30.807 21.7493 30.9234 21.9272 31.0396 22.1053C31.1366 22.2538 31.234 22.402 31.3322 22.5497C31.3712 22.6094 31.4102 22.6692 31.4504 22.7308C31.4834 22.7808 31.5165 22.8309 31.5506 22.8824C31.6967 23.1749 31.6731 23.3977 31.6249 23.7188C31.496 23.9336 31.496 23.9336 31.2812 24.0625C30.8156 24.129 30.8156 24.129 30.5937 24.0625C30.1712 23.7174 29.9157 23.2659 29.6323 22.8057C29.0828 21.9267 28.5125 21.0635 27.9333 20.204C26.9854 18.7928 26.9854 18.7928 27.0702 18.3047C27.2895 17.8661 27.5255 17.8236 27.98 17.8011Z" fill="white"/>
<path d="M16.3998 17.8394C16.5858 17.875 16.5858 17.875 16.806 18.0576C16.9525 18.3505 16.9628 18.4955 16.9295 18.8203C16.8269 19.0274 16.7241 19.2045 16.5965 19.395C16.5595 19.4523 16.5225 19.5096 16.4844 19.5686C16.3479 19.7786 16.2092 19.987 16.0702 20.1953C16.0112 20.2839 15.9522 20.3725 15.8915 20.4638C15.626 20.8625 15.3602 21.2611 15.0932 21.6588C14.6862 22.2658 14.2874 22.8766 13.9135 23.5046C13.7594 23.7592 13.6589 23.894 13.4061 24.0625C12.8128 24.119 12.8128 24.119 12.5038 23.9336C12.3244 23.6347 12.3217 23.3675 12.3749 23.0313C12.4841 22.7719 12.6352 22.5486 12.7938 22.3169C12.8611 22.2145 12.8611 22.2145 12.9298 22.11C13.087 21.8717 13.2466 21.6351 13.4061 21.3985C13.537 21.2023 13.6674 21.0058 13.7979 20.8093C13.9987 20.507 14.1998 20.2048 14.4022 19.9035C14.7518 19.3827 15.0944 18.8592 15.424 18.3255C15.7125 17.8996 15.891 17.8212 16.3998 17.8394Z" fill="white"/>
<path d="M29.2187 1.37505C29.4336 1.50396 29.4336 1.50396 29.5625 1.7188C29.6269 2.07013 29.6502 2.27068 29.4544 2.57348C29.2967 2.75462 29.1306 2.92384 28.9609 3.09381C28.8385 3.22929 28.7168 3.36539 28.5957 3.50201C28.3784 3.74318 28.1601 3.98335 27.9401 4.22207C27.8982 4.26757 27.8563 4.31308 27.8131 4.35996C27.694 4.48913 27.5747 4.61812 27.4553 4.7471C27.3174 4.90068 27.1843 5.05882 27.0575 5.22177C26.8477 5.47546 26.7072 5.5351 26.3828 5.58599C26.0754 5.49377 25.8596 5.42293 25.6523 5.17242C25.5924 4.91046 25.6312 4.72982 25.6953 4.46881C25.8487 4.23583 25.8487 4.23583 26.0444 4.00689C26.1493 3.88409 26.1493 3.88409 26.2562 3.75881C26.4935 3.49609 26.739 3.24551 26.9927 2.9988C27.2635 2.72916 27.5095 2.43871 27.7578 2.14849C27.8667 2.02116 27.9759 1.89404 28.0854 1.76714C28.158 1.68223 28.158 1.68223 28.2321 1.59561C28.5048 1.30705 28.8453 1.32414 29.2187 1.37505Z" fill="white"/>
<path d="M15.4686 1.37504C15.8165 1.57869 16.0562 1.89075 16.3156 2.1948C16.4967 2.40261 16.6828 2.60433 16.871 2.80562C18.3524 4.39132 18.3524 4.39132 18.3905 4.89848C18.1948 5.38304 18.1948 5.38304 17.9608 5.50004C17.349 5.56022 17.349 5.56022 17.0639 5.33354C16.9912 5.24669 16.9185 5.15984 16.8436 5.07035C16.7191 4.94604 16.5937 4.82258 16.4677 4.69975C16.1783 4.41037 15.904 4.11381 15.6378 3.80311C15.3771 3.50459 15.1067 3.21487 14.8364 2.925C14.5063 2.56831 14.4043 2.38747 14.4142 1.88865C14.4374 1.71879 14.4374 1.71879 14.5663 1.50395C14.8658 1.32422 15.133 1.31035 15.4686 1.37504Z" fill="white"/>
<path d="M35.6264 5.62895C35.7953 5.92263 35.8377 6.20092 35.7499 6.5313C35.4877 6.85115 35.2525 6.94846 34.8577 7.05599C34.7502 7.08551 34.6428 7.11503 34.532 7.14545C34.4762 7.16015 34.4203 7.17485 34.3627 7.18999C34.1943 7.2344 34.0265 7.28073 33.8586 7.32739C32.2884 7.75133 32.2884 7.75133 31.7861 7.53032C31.5847 7.24845 31.5737 7.06113 31.5679 6.72197C31.6526 6.4389 31.8143 6.35408 32.0546 6.18755C32.3278 6.08541 32.3278 6.08541 32.6334 6.00359C32.7155 5.98143 32.7155 5.98143 32.7994 5.95882C32.9148 5.92799 33.0304 5.89768 33.146 5.86788C33.3209 5.82265 33.4951 5.77529 33.6693 5.72765C35.1289 5.33771 35.1289 5.33771 35.6264 5.62895Z" fill="white"/>
<path d="M10.1599 5.68191C10.2745 5.71253 10.3891 5.7435 10.5035 5.77479C10.6783 5.82233 10.8535 5.86767 11.0289 5.91284C11.1416 5.94293 11.2541 5.97313 11.3667 6.00348C11.5179 6.04398 11.5179 6.04398 11.6722 6.08531C11.9632 6.19412 12.1501 6.31845 12.3751 6.53119C12.4547 6.79716 12.4344 7.03473 12.3751 7.30463C12.2139 7.53021 12.2139 7.53021 11.9454 7.64838C11.2762 7.66522 10.6133 7.45851 9.97529 7.28111C9.80652 7.23448 9.6373 7.18988 9.46797 7.14534C9.36052 7.11582 9.25306 7.0863 9.14235 7.05588C9.04521 7.02942 8.94807 7.00297 8.84799 6.97571C8.57404 6.8671 8.4357 6.7576 8.25008 6.53119C8.16232 6.20082 8.20475 5.92252 8.37361 5.62885C8.91534 5.31174 9.59003 5.53402 10.1599 5.68191Z" fill="white"/>
</svg>
