<svg width="44" height="44" viewBox="0 0 44 44" fill="none" xmlns="http://www.w3.org/2000/svg">
<path d="M19.9374 3.40533C20.0309 3.40544 20.0309 3.40544 20.1263 3.40555C23.2279 3.41787 26.037 4.64788 28.2335 6.83036C28.6071 7.21842 28.9747 7.63686 29.2475 8.10201C29.3867 8.27533 29.3867 8.27533 29.6457 8.29336C29.7959 8.29585 29.7959 8.29585 29.9491 8.29839C31.4398 8.36879 32.5993 8.97313 33.6015 10.0712C34.1953 10.7866 34.6327 11.6911 34.6327 12.6329C34.7078 12.644 34.7078 12.644 34.7845 12.6554C36.0699 12.8757 37.2528 13.5157 38.2421 14.3516C38.311 14.408 38.3799 14.4644 38.4509 14.5225C40.0137 15.8541 40.9839 17.7992 41.2257 19.8338C41.4498 22.6908 41.0167 25.2237 39.1606 27.4843C38.5823 28.1506 37.9422 28.6453 37.2109 29.1329C37.186 29.3858 37.1777 29.6207 37.1805 29.8738C37.1802 29.9889 37.1802 29.9889 37.18 30.1063C37.1797 30.2734 37.18 30.4404 37.1808 30.6075C37.182 30.8724 37.1814 31.1372 37.1804 31.402C37.1777 32.1552 37.1781 32.9083 37.1799 33.6615C37.1808 34.122 37.1797 34.5824 37.1773 35.0429C37.1769 35.2181 37.1772 35.3932 37.1784 35.5684C37.18 35.8144 37.179 36.0603 37.1775 36.3063C37.1786 36.378 37.1798 36.4497 37.181 36.5235C37.1724 37.1415 36.9489 37.6331 36.521 38.0808C36.4668 38.1181 36.4127 38.1554 36.3568 38.1939C36.3029 38.2328 36.249 38.2717 36.1934 38.3117C35.7315 38.5665 35.2932 38.6111 34.7744 38.6125C34.6319 38.6145 34.4893 38.6164 34.3468 38.6184C34.2725 38.6192 34.1983 38.62 34.1218 38.6208C30.1288 38.6687 26.1253 39.3078 22.5511 41.1832C21.9075 41.3905 21.4457 41.191 20.872 40.9063C18.6145 39.8451 16.2184 39.1897 13.7499 38.8438C13.6484 38.8294 13.6484 38.8294 13.5448 38.8147C12.7289 38.7051 11.9142 38.668 11.0919 38.6518C11.0156 38.6502 10.9392 38.6487 10.8606 38.647C10.4733 38.6394 10.0861 38.6336 9.69879 38.6304C9.55365 38.6283 9.40851 38.6261 9.26337 38.6239C9.19746 38.6239 9.13154 38.6239 9.06363 38.6239C8.49123 38.6134 7.94275 38.4815 7.49796 38.0972C7.45232 38.0597 7.40668 38.0221 7.35966 37.9834C6.94154 37.4767 6.82435 36.9898 6.83589 36.3449C6.83584 36.2702 6.83579 36.1955 6.83574 36.1185C6.83598 35.8739 6.83864 35.6294 6.84135 35.3848C6.84199 35.2143 6.84248 35.0438 6.84282 34.8733C6.84413 34.4263 6.8475 33.9793 6.85131 33.5323C6.85484 33.0755 6.8564 32.6187 6.85813 32.1618C6.86181 31.2667 6.86767 30.3717 6.87492 29.4766C6.79427 29.4506 6.71362 29.4245 6.63053 29.3977C4.87483 28.7961 3.54335 27.074 2.74824 25.4748C2.28708 24.4877 2.05182 23.4338 2.04194 22.3475C2.04125 22.2735 2.04055 22.1995 2.03984 22.1232C2.03865 21.9666 2.03773 21.8099 2.03705 21.6532C2.03607 21.4958 2.03432 21.3384 2.03176 21.1811C1.99219 18.7408 2.73969 16.637 4.4202 14.8315C5.59059 13.6458 7.19848 12.7859 8.85148 12.5469C8.85946 12.3954 8.85946 12.3954 8.86759 12.2408C9.07677 10.4317 10.1952 8.66146 11.3437 7.30474C11.4038 7.23295 11.464 7.16117 11.5259 7.08721C13.6256 4.66196 16.7696 3.39595 19.9374 3.40533ZM12.6106 8.06777C11.2224 9.61218 10.5274 11.4292 10.0425 13.4197C9.96867 13.6641 9.96867 13.6641 9.79679 13.836C9.63343 13.884 9.63343 13.884 9.43357 13.9226C7.95545 14.228 6.79387 14.6894 5.67179 15.7266C5.61563 15.7769 5.55946 15.8272 5.5016 15.879C4.14845 17.1515 3.49384 18.9717 3.43742 20.7969C3.43398 20.8829 3.43055 20.9689 3.42701 21.0574C3.3831 23.1446 3.89397 25.0681 5.32804 26.6407C5.37845 26.6971 5.42885 26.7535 5.48078 26.8115C5.86663 27.221 6.3138 27.5443 6.78898 27.8438C6.81734 27.8438 6.8457 27.8438 6.87492 27.8438C6.87539 27.7266 6.87539 27.7266 6.87587 27.607C6.87913 26.8686 6.88402 26.1303 6.89072 25.3919C6.89411 25.0124 6.89688 24.6329 6.89821 24.2533C6.89951 23.8866 6.90248 23.52 6.90657 23.1534C6.90784 23.0139 6.90852 22.8744 6.90859 22.7348C6.91014 21.254 6.91014 21.254 7.45466 20.623C7.50263 20.5847 7.55059 20.5464 7.60001 20.5069C7.67163 20.4474 7.67163 20.4474 7.7447 20.3867C8.10193 20.1535 8.42502 20.0869 8.84779 20.0738C8.94333 20.0705 9.03888 20.0672 9.13732 20.0638C9.28563 20.0598 9.28563 20.0598 9.43693 20.0557C9.53746 20.0524 9.63799 20.0491 9.74157 20.0456C9.98913 20.0376 10.2367 20.0302 10.4843 20.0235C10.4875 19.921 10.4907 19.8185 10.494 19.713C10.4997 19.5784 10.5054 19.4437 10.5111 19.3091C10.5131 19.2416 10.515 19.1741 10.517 19.1045C10.5216 19.0069 10.5216 19.0069 10.5263 18.9073C10.5285 18.8475 10.5308 18.7876 10.5331 18.7259C10.5807 18.5166 10.6627 18.438 10.828 18.3047C11.014 18.245 11.014 18.245 11.2255 18.2081C11.294 18.1954 11.3624 18.1828 11.433 18.1698C12.2409 18.0525 13.0366 18.0261 13.852 18.0254C13.9168 18.0254 13.9816 18.0253 14.0483 18.0253C15.1411 18.0268 16.1989 18.0923 17.2734 18.3047C17.3471 18.319 17.4208 18.3333 17.4967 18.348C18.8416 18.6176 20.2109 19.0089 21.4215 19.6636C21.6791 19.7942 21.8043 19.8513 22.0969 19.855C22.4166 19.7393 22.7196 19.6013 23.0258 19.4542C25.173 18.4676 27.5015 18.0307 29.8548 18.031C30.0437 18.0308 30.2325 18.0293 30.4215 18.0276C32.5999 18.0188 32.5999 18.0188 33.3437 18.3907C33.4854 18.6742 33.4625 18.9915 33.4779 19.3038C33.4817 19.3727 33.4854 19.4416 33.4892 19.5126C33.4983 19.6829 33.507 19.8532 33.5155 20.0235C33.6078 20.0247 33.6078 20.0247 33.7019 20.0259C33.9836 20.0306 34.2651 20.0378 34.5468 20.045C34.6435 20.0462 34.7402 20.0474 34.8399 20.0487C35.5142 20.0684 36.0076 20.1565 36.5254 20.6032C36.5637 20.6512 36.602 20.6992 36.6415 20.7486C36.6812 20.7963 36.7208 20.8441 36.7617 20.8933C37.0131 21.2783 37.0613 21.6139 37.0664 22.0696C37.0672 22.1267 37.0681 22.1838 37.069 22.2426C37.0716 22.4299 37.0731 22.6173 37.0746 22.8047C37.0762 22.9351 37.0779 23.0655 37.0796 23.1959C37.084 23.5382 37.0874 23.8805 37.0906 24.2229C37.0941 24.5726 37.0985 24.9222 37.1028 25.2719C37.1111 25.9573 37.1183 26.6427 37.1249 27.3282C37.221 27.2464 37.317 27.1645 37.413 27.0826C37.4664 27.037 37.5199 26.9915 37.575 26.9445C38.9034 25.7875 39.6608 24.0881 39.789 22.3438C39.8923 20.1823 39.6482 18.0407 38.1554 16.3494C37.9603 16.1364 37.7588 15.9311 37.5546 15.7266C37.4981 15.6691 37.4416 15.6116 37.3834 15.5524C36.4353 14.6552 35.1817 14.1729 33.9237 13.9058C33.6015 13.836 33.6015 13.836 33.3437 13.6641C33.2606 13.4148 33.244 13.2314 33.2309 12.9712C33.155 12.0989 32.7717 11.2667 32.1345 10.6583C31.5469 10.1772 30.8443 9.77056 30.0649 9.7976C29.9982 9.79904 29.9315 9.80048 29.8627 9.80196C29.7237 9.80576 29.5847 9.81023 29.4458 9.81539C29.0388 9.82281 28.771 9.81086 28.4452 9.53911C28.2801 9.33736 28.2801 9.33736 28.123 9.10406C27.7774 8.61142 27.3959 8.1725 26.9843 7.73443C26.94 7.68358 26.8957 7.63273 26.85 7.58034C25.1884 5.75866 22.5785 4.95078 20.1952 4.81255C17.3321 4.71816 14.5527 5.99878 12.6106 8.06777ZM11.8593 19.5079C11.8593 24.3857 11.8593 29.2635 11.8593 34.2891C13.0504 34.2891 14.2415 34.2891 15.4687 34.2891C16.1201 34.3492 16.7271 34.4084 17.3593 34.5469C17.4774 34.5725 17.4774 34.5725 17.5979 34.5987C18.768 34.8614 19.8783 35.2398 20.9867 35.6951C21.1403 35.7597 21.1403 35.7597 21.3124 35.7501C21.3124 30.929 21.3124 26.1079 21.3124 21.1407C19.1985 20.2347 17.0539 19.4126 14.7194 19.4105C14.6591 19.4104 14.5987 19.4103 14.5365 19.4103C14.41 19.4102 14.2835 19.4104 14.157 19.4107C13.9652 19.4112 13.7735 19.4107 13.5817 19.4102C13.4579 19.4102 13.334 19.4103 13.2101 19.4105C13.0439 19.4107 13.0439 19.4107 12.8743 19.4108C12.5346 19.4223 12.1965 19.4657 11.8593 19.5079ZM26.4687 19.7657C26.4001 19.7804 26.3315 19.7951 26.2608 19.8103C25.027 20.0858 23.8163 20.5763 22.6874 21.1407C22.6874 25.9618 22.6874 30.7829 22.6874 35.7501C23.3004 35.5461 23.3004 35.5461 23.909 35.3318C26.7036 34.3424 29.0994 34.2891 32.1405 34.2891C32.1405 29.4113 32.1405 24.5335 32.1405 19.5079C30.2536 19.272 28.3249 19.3585 26.4687 19.7657ZM8.42179 21.6563C8.24171 22 8.22833 22.2954 8.22809 22.6796C8.22782 22.7383 8.22755 22.7969 8.22728 22.8574C8.22659 23.0534 8.22714 23.2494 8.22768 23.4454C8.22744 23.5861 8.22714 23.7269 8.22676 23.8677C8.22598 24.2496 8.22628 24.6315 8.22683 25.0134C8.22727 25.4131 8.22686 25.8129 8.22659 26.2126C8.22628 26.8839 8.22669 27.5552 8.22751 28.2265C8.22844 29.0025 8.22814 29.7785 8.2272 30.5545C8.22642 31.2209 8.22631 31.8872 8.22676 32.5536C8.22702 32.9515 8.22706 33.3495 8.22649 33.7474C8.22599 34.1215 8.22634 34.4957 8.22733 34.8698C8.22756 35.0071 8.22749 35.1444 8.22712 35.2817C8.22665 35.4691 8.22723 35.6565 8.22809 35.8439C8.22816 35.9488 8.22822 36.0537 8.22829 36.1617C8.25566 36.5108 8.32443 36.7615 8.56314 37.0208C8.84702 37.167 9.11386 37.1613 9.42585 37.16C9.56064 37.1617 9.69543 37.1634 9.83021 37.1651C9.9363 37.1657 9.9363 37.1657 10.0445 37.1664C13.9642 37.1958 18.1244 37.7828 21.6343 39.6417C22.1296 39.7988 22.602 39.5167 23.0473 39.3165C25.3146 38.3356 27.714 37.6933 30.164 37.3829C30.2273 37.3745 30.2907 37.3661 30.356 37.3574C31.1679 37.2535 31.9762 37.2071 32.7941 37.1935C32.9038 37.1915 32.9038 37.1915 33.0156 37.1895C33.3861 37.1829 33.7564 37.1784 34.1269 37.177C34.2651 37.1752 34.4033 37.1733 34.5414 37.1714C34.6049 37.1718 34.6684 37.1723 34.7338 37.1727C35.0403 37.1668 35.223 37.1319 35.4871 36.9718C35.7982 36.6368 35.7609 36.2991 35.762 35.8548C35.7622 35.7963 35.7625 35.7378 35.7628 35.6775C35.7635 35.4814 35.7636 35.2853 35.7638 35.0893C35.7642 34.9487 35.7646 34.8081 35.7651 34.6675C35.7662 34.2855 35.7667 33.9036 35.7671 33.5217C35.7674 33.2831 35.7677 33.0444 35.7681 32.8058C35.7693 32.0592 35.7701 31.3125 35.7704 30.5659C35.7708 29.704 35.7723 28.8422 35.7748 27.9804C35.7767 27.3141 35.7776 26.6478 35.7777 25.9816C35.7778 25.5837 35.7783 25.1858 35.7798 24.7878C35.7812 24.4136 35.7814 24.0393 35.7807 23.665C35.7806 23.5278 35.781 23.3905 35.7818 23.2533C35.7829 23.0657 35.7824 22.8781 35.7815 22.6905C35.7817 22.5332 35.7817 22.5332 35.7819 22.3726C35.7461 22.0521 35.6589 21.8448 35.4921 21.5704C35.1219 21.33 34.6883 21.379 34.2621 21.3877C34.1544 21.3889 34.1544 21.3889 34.0444 21.3901C33.8681 21.3921 33.6918 21.3952 33.5155 21.3985C33.5152 21.5071 33.5152 21.5071 33.5149 21.6179C33.5098 23.3779 33.5034 25.1379 33.4953 26.8979C33.4914 27.749 33.488 28.6002 33.4858 29.4513C33.4838 30.193 33.4809 30.9346 33.477 31.6763C33.4749 32.0692 33.4733 32.462 33.4728 32.8549C33.4723 33.2244 33.4705 33.5939 33.4679 33.9635C33.4672 34.0993 33.4668 34.2352 33.467 34.371C33.4671 34.5561 33.4657 34.7411 33.4639 34.9262C33.4635 35.0299 33.4631 35.1336 33.4627 35.2404C33.4296 35.4922 33.4296 35.4922 33.3127 35.6548C33.1025 35.7969 32.934 35.778 32.683 35.7715C32.5976 35.7702 32.5122 35.7689 32.4242 35.7675C32.1405 35.7501 32.1405 35.7501 31.8445 35.7071C30.2464 35.498 28.4702 35.5897 26.8984 35.9219C26.8211 35.9381 26.7438 35.9542 26.6642 35.9709C25.2591 36.2765 23.8419 36.7411 22.5857 37.4517C22.2154 37.6094 21.8708 37.6277 21.4922 37.499C21.3211 37.4215 21.156 37.3367 20.9902 37.2486C18.7533 36.1354 16.3644 35.6512 13.8788 35.648C13.788 35.6478 13.788 35.6478 13.6953 35.6477C13.077 35.6478 12.4717 35.66 11.8593 35.7501C11.6787 35.7612 11.4978 35.7687 11.3168 35.7715C11.187 35.7749 11.187 35.7749 11.0546 35.7783C10.828 35.7501 10.828 35.7501 10.6871 35.6548C10.5138 35.4138 10.5371 35.221 10.536 34.9262C10.5354 34.8684 10.5348 34.8106 10.5342 34.7511C10.5326 34.5571 10.5329 34.3632 10.5331 34.1692C10.5323 34.0303 10.5314 33.8914 10.5304 33.7525C10.528 33.3751 10.5273 32.9976 10.5267 32.6202C10.5259 32.2258 10.5237 31.8315 10.5216 31.4372C10.5178 30.6903 10.5154 29.9434 10.5134 29.1966C10.5111 28.3463 10.5073 27.4961 10.5034 26.6459C10.4954 24.8968 10.4893 23.1476 10.4843 21.3985C10.2372 21.3915 9.99025 21.3864 9.74308 21.3824C9.67362 21.3802 9.60416 21.3781 9.5326 21.3758C9.10066 21.3706 8.78655 21.3976 8.42179 21.6563Z" fill="white"/>
<path d="M18.9062 6.87505C19.1264 7.00396 19.1264 7.00396 19.25 7.2188C19.2965 7.45786 19.3127 7.67004 19.25 7.9063C18.9985 8.22784 18.7234 8.34251 18.3476 8.48638C16.9989 9.0341 15.9381 9.95857 15.1058 11.14C14.9531 11.3438 14.9531 11.3438 14.7812 11.4297C14.1752 11.4786 14.1752 11.4786 13.8789 11.3008C13.736 11.0627 13.6794 10.8768 13.6969 10.5976C14.013 9.41121 15.52 8.24134 16.5355 7.64647C16.6379 7.58925 16.7407 7.53264 16.8437 7.47661C16.9258 7.43187 16.9258 7.43187 17.0095 7.38623C18.2056 6.74871 18.2056 6.74871 18.9062 6.87505Z" fill="white"/>
<path d="M29.6484 26.3828C29.8873 26.6144 29.9804 26.7415 30.0352 27.0703C29.9806 27.3977 29.8833 27.5244 29.6484 27.7578C29.3836 27.8253 29.3836 27.8253 29.063 27.8491C28.94 27.8606 28.817 27.8726 28.6941 27.885C28.6271 27.8916 28.5602 27.8982 28.4912 27.9049C28.0831 27.9513 27.679 28.0208 27.2744 28.0908C27.1896 28.1054 27.1047 28.12 27.0173 28.135C26.5409 28.2203 26.0829 28.3255 25.6201 28.4668C25.1601 28.6062 24.7996 28.6867 24.3203 28.6172C24.0566 28.3985 23.9896 28.2657 23.9336 27.9297C23.9894 27.595 24.0776 27.4808 24.3203 27.2422C24.5767 27.1215 24.8415 27.0504 25.1152 26.979C25.1942 26.9576 25.2731 26.9362 25.3545 26.9141C28.3501 26.1327 28.3501 26.1327 29.6484 26.3828Z" fill="white"/>
<path d="M18.2402 23.2407C18.3491 23.2656 18.3491 23.2656 18.4601 23.291C19.7126 23.5962 19.7126 23.5962 20.0234 24.0625C20.0714 24.4326 20.0612 24.6056 19.8569 24.9219C19.4978 25.1565 19.2231 25.0807 18.8203 25.0078C18.4889 24.9328 18.1608 24.8466 17.832 24.7608C16.9641 24.5403 16.1087 24.4032 15.2162 24.3301C14.3975 24.2538 14.3975 24.2538 14.0938 23.8906C14.0141 23.6246 14.0348 23.3872 14.0938 23.1172C14.7496 22.19 17.3142 23.0255 18.2402 23.2407Z" fill="white"/>
<path d="M26.168 23.4986C26.3602 23.8269 26.3728 24.1216 26.2969 24.4922C25.928 24.9595 25.244 25.0628 24.6802 25.1368C24.4062 25.0938 24.4062 25.0938 24.1538 24.9165C23.9766 24.6641 23.9766 24.6641 23.9229 24.3633C23.9928 23.9714 24.0833 23.8653 24.4062 23.6329C24.9473 23.4018 25.6265 23.1872 26.168 23.4986Z" fill="white"/>
<path d="M19.8516 27.3281C20.0634 27.6458 20.0805 27.9047 20.0234 28.2734C19.8999 28.4882 19.8999 28.4882 19.6797 28.6171C19.0453 28.7295 18.3627 28.5549 17.8213 28.2197C17.6426 27.9111 17.632 27.59 17.7031 27.2421C18.2112 26.5919 19.239 27.029 19.8516 27.3281Z" fill="white"/>
<path d="M29.8201 22.9453C30.0003 23.1769 29.9916 23.297 29.9759 23.5952C29.9082 23.8815 29.8806 23.9811 29.6483 24.1484C29.3809 24.2821 29.0936 24.2739 28.7996 24.2934C28.7377 24.2986 28.6758 24.3037 28.612 24.309C28.2814 24.3312 28.0331 24.3464 27.7576 24.1484C27.56 23.8717 27.5382 23.622 27.5858 23.289C27.7992 22.9979 27.9381 22.879 28.2894 22.7895C29.4718 22.7313 29.4718 22.7313 29.8201 22.9453Z" fill="white"/>
<path d="M15.1196 26.3452C15.18 26.3446 15.2404 26.344 15.3027 26.3434C15.6872 26.3481 15.9383 26.4029 16.2421 26.6406C16.4437 26.943 16.4638 27.0581 16.414 27.4141C16.2743 27.6611 16.2743 27.6611 15.9843 27.8438C15.3492 27.9259 14.7363 27.9225 14.1796 27.586C14.0451 27.317 14.0338 27.0178 14.0937 26.7266C14.3644 26.3303 14.6737 26.3326 15.1196 26.3452Z" fill="white"/>
<path d="M13.7498 12.461C13.9646 12.5899 13.9646 12.5899 14.0935 12.8047C14.1546 13.3193 14.0705 13.7999 13.8357 14.2657C13.5179 14.4775 13.259 14.4947 12.8904 14.4376C12.6755 14.314 12.6755 14.314 12.5466 14.0938C12.4555 13.5604 12.5765 13.1141 12.8044 12.6329C13.1218 12.4213 13.3814 12.4032 13.7498 12.461Z" fill="white"/>
<path d="M25.0935 15.8125C25.3084 15.9414 25.3084 15.9414 25.4373 16.1563C25.5053 16.5018 25.4907 16.7548 25.3084 17.0586C25.0045 17.2409 24.7516 17.2555 24.406 17.1875C24.1912 17.0586 24.1912 17.0586 24.0623 16.8438C23.9943 16.4982 24.0089 16.2453 24.1912 15.9414C24.4951 15.7591 24.748 15.7446 25.0935 15.8125Z" fill="white"/>
<path d="M22.3435 15.8125C22.5584 15.9414 22.5584 15.9414 22.6873 16.1563C22.7553 16.5018 22.7407 16.7548 22.5584 17.0586C22.2545 17.2409 22.0016 17.2555 21.656 17.1875C21.4412 17.0586 21.4412 17.0586 21.3123 16.8438C21.2443 16.4982 21.2589 16.2453 21.4412 15.9414C21.7451 15.7591 21.998 15.7446 22.3435 15.8125Z" fill="white"/>
<path d="M19.5935 15.8125C19.8084 15.9414 19.8084 15.9414 19.9373 16.1563C20.0053 16.5018 19.9907 16.7548 19.8084 17.0586C19.5045 17.2409 19.2516 17.2555 18.906 17.1875C18.6912 17.0586 18.6912 17.0586 18.5623 16.8438C18.4943 16.4982 18.5089 16.2453 18.6912 15.9414C18.9951 15.7591 19.248 15.7446 19.5935 15.8125Z" fill="white"/>
</svg>
