<svg width="44" height="44" viewBox="0 0 44 44" fill="none" xmlns="http://www.w3.org/2000/svg">
<g clip-path="url(#clip0_191_1276)">
<path d="M18.7499 19.0338C18.8306 19.0332 18.9113 19.0326 18.9945 19.032C19.2656 19.0305 19.5366 19.0313 19.8077 19.0322C20.0018 19.0316 20.1959 19.0309 20.39 19.03C20.9177 19.028 21.4453 19.0283 21.973 19.0291C22.4132 19.0295 22.8534 19.0289 23.2935 19.0282C24.3912 19.0267 25.4888 19.0273 26.5864 19.0288C27.5397 19.03 28.493 19.0288 29.4463 19.0263C30.4251 19.0238 31.4039 19.0229 32.3826 19.0237C32.9322 19.0241 33.4817 19.0239 34.0313 19.0221C34.548 19.0206 35.0646 19.0211 35.5813 19.0232C35.7711 19.0236 35.9609 19.0233 36.1507 19.0222C36.4095 19.0209 36.6682 19.0221 36.927 19.0241C37.0024 19.0231 37.0778 19.022 37.1555 19.021C37.531 19.0268 37.6818 19.0436 37.9889 19.2796C38.1947 19.5599 38.2021 19.7067 38.1832 20.0502C38.1774 20.188 38.1774 20.188 38.1715 20.3285C38.1665 20.398 38.1615 20.4674 38.1564 20.539C38.2399 20.5372 38.3235 20.5354 38.4096 20.5335C38.724 20.5273 39.0384 20.5234 39.3528 20.5201C39.4881 20.5184 39.6233 20.5161 39.7586 20.5131C40.9202 20.488 41.8695 20.6322 42.797 21.3984C43.4473 22.0221 43.9542 22.7666 44.0237 23.6872C44.0255 23.8044 44.0264 23.9217 44.0265 24.039C44.0272 24.1035 44.0279 24.168 44.0286 24.2344C44.0307 24.4467 44.0315 24.6589 44.032 24.8711C44.0328 25.0199 44.0336 25.1687 44.0344 25.3175C44.0358 25.6294 44.0365 25.9412 44.0367 26.2531C44.0372 26.6499 44.0404 27.0466 44.0443 27.4434C44.0469 27.7509 44.0475 28.0585 44.0476 28.366C44.048 28.5121 44.049 28.6582 44.0508 28.8043C44.0636 29.9224 43.954 30.86 43.1998 31.7485C42.3383 32.6242 41.4477 33.0626 40.2043 33.0924C39.894 33.0943 39.5839 33.0934 39.2736 33.0912C39.166 33.0909 39.0584 33.0905 38.9476 33.0901C38.6839 33.0891 38.4201 33.0877 38.1564 33.0859C38.1579 33.1403 38.1594 33.1947 38.1609 33.2508C38.1861 34.8493 37.5187 36.3872 36.4376 37.5546C36.2947 37.6981 36.1515 37.8414 36.0079 37.9843C36.1007 37.9848 36.1934 37.9853 36.2889 37.9858C37.1627 37.9908 38.0364 37.997 38.9102 38.0046C39.3594 38.0084 39.8086 38.0118 40.2578 38.0141C40.6913 38.0163 41.1248 38.0198 41.5583 38.0241C41.7237 38.0256 41.8891 38.0265 42.0545 38.0271C42.2861 38.0279 42.5177 38.0303 42.7494 38.0331C42.8178 38.033 42.8861 38.0328 42.9566 38.0327C43.3467 38.0393 43.6047 38.0842 43.9142 38.3281C44.0513 38.6022 44.0178 38.8996 44.0206 39.2009C44.0213 39.2711 44.022 39.3413 44.0227 39.4136C44.0239 39.5627 44.0248 39.7118 44.0255 39.8609C44.027 40.0865 44.0307 40.312 44.0346 40.5376C44.0445 41.5925 43.9574 42.3743 43.2019 43.1681C42.3125 44.0412 41.3486 44.0498 40.1674 44.0436C40.0043 44.044 39.8411 44.0445 39.6779 44.0452C39.2308 44.0466 38.7837 44.0459 38.3365 44.0449C37.8538 44.0441 37.3711 44.0453 36.8884 44.0462C35.9433 44.0478 34.9982 44.0474 34.0531 44.0464C33.2849 44.0457 32.5168 44.0456 31.7486 44.0459C31.6393 44.046 31.5299 44.046 31.4173 44.0461C31.1951 44.0462 30.973 44.0463 30.7508 44.0464C28.7274 44.0474 26.704 44.0464 24.6806 44.0446C22.8343 44.043 20.988 44.0431 19.1417 44.0448C17.0663 44.0466 14.991 44.0473 12.9156 44.0463C12.6943 44.0462 12.473 44.046 12.2517 44.0459C12.1428 44.0459 12.0339 44.0458 11.9217 44.0458C11.1545 44.0455 10.3873 44.046 9.62013 44.0468C8.68513 44.0478 7.75013 44.0475 6.81513 44.0457C6.33813 44.0448 5.86114 44.0444 5.38413 44.0455C4.94733 44.0466 4.51057 44.046 4.07377 44.0442C3.9159 44.0438 3.75803 44.044 3.60017 44.0448C2.48719 44.0503 1.61812 43.9666 0.7776 43.1708C0.178387 42.4824 -0.0112363 41.8015 -0.0203429 40.9089C-0.0210366 40.8437 -0.0217303 40.7786 -0.022445 40.7115C-0.0236292 40.5743 -0.0245529 40.437 -0.0252315 40.2998C-0.0262246 40.1598 -0.0279872 40.0198 -0.0305187 39.8798C-0.0341862 39.6767 -0.0355752 39.4738 -0.0364562 39.2707C-0.0379608 39.2085 -0.0394654 39.1462 -0.0410156 39.0821C-0.0396913 38.7724 -0.00768088 38.5984 0.158183 38.3336C0.441494 38.0629 0.67206 38.06 1.0475 38.0649C1.12493 38.0657 1.20237 38.0664 1.28215 38.0672C1.37072 38.0687 1.37072 38.0687 1.46107 38.0703C1.45575 37.9604 1.45044 37.8505 1.44496 37.7372C1.45035 36.8766 1.77972 36.2338 2.32045 35.5781C2.56632 35.35 2.83016 35.1579 3.10463 34.9658C3.25755 34.855 3.4104 34.7441 3.56318 34.6331C3.64159 34.5767 3.71999 34.5203 3.80077 34.4623C4.19347 34.1769 4.57789 33.8808 4.96303 33.5854C5.11259 33.4713 5.2622 33.3573 5.41185 33.2433C5.62601 33.0801 5.84011 32.9169 6.05399 32.7533C6.24684 32.606 6.44008 32.4591 6.63344 32.3124C6.69063 32.2685 6.74781 32.2247 6.80674 32.1794C7.19927 31.8828 7.19927 31.8828 7.39076 31.8828C7.3943 31.8136 7.39785 31.7445 7.4015 31.6733C7.54182 31.102 7.8543 30.6528 8.35219 30.3359C8.77071 30.0981 9.12787 30.0663 9.60197 30.0697C9.69871 30.0699 9.69871 30.0699 9.79739 30.07C10.0032 30.0705 10.2089 30.0716 10.4147 30.0727C10.5543 30.0731 10.6939 30.0735 10.8335 30.0739C11.1755 30.0748 11.5175 30.0763 11.8595 30.0781C11.8977 29.9573 11.8977 29.9573 11.9367 29.834C12.1116 29.3323 12.4188 29.0814 12.8488 28.7987C13.5939 28.4654 14.3847 28.5073 15.1832 28.5135C15.3938 28.5151 15.6044 28.5153 15.815 28.5152C15.9505 28.5157 16.086 28.5162 16.2215 28.5168C16.2837 28.5168 16.3458 28.5169 16.4098 28.517C16.791 28.5206 17.1549 28.5603 17.5314 28.6171C17.5315 28.5701 17.5316 28.523 17.5318 28.4745C17.535 27.329 17.54 26.1836 17.5472 25.0382C17.5506 24.4843 17.5534 23.9303 17.5547 23.3764C17.556 22.842 17.5589 22.3077 17.563 21.7733C17.5643 21.5692 17.565 21.3652 17.5651 21.1611C17.5653 20.8757 17.5676 20.5903 17.5704 20.3049C17.5698 20.1778 17.5698 20.1778 17.5691 20.0481C17.5703 19.9703 17.5715 19.8924 17.5727 19.8122C17.5732 19.711 17.5732 19.711 17.5737 19.6077C17.7191 18.9883 18.225 19.0289 18.7499 19.0338ZM19.1642 20.6249C19.1642 23.7445 19.1642 26.864 19.1642 30.0781C20.5254 30.1206 20.5254 30.1206 21.9142 30.164C22.8835 30.6487 22.8835 30.6487 23.0744 30.975C23.1125 31.037 23.1506 31.0989 23.1898 31.1627C23.2892 31.3671 23.2892 31.3671 23.3439 31.6152C23.5195 32.0162 23.8214 32.1872 24.1754 32.4306C24.3244 32.5365 24.4732 32.6426 24.6219 32.7488C24.7383 32.8313 24.7383 32.8313 24.857 32.9155C25.2483 33.1969 25.6301 33.4905 26.0123 33.7841C26.4369 34.1099 26.8611 34.4353 27.294 34.7499C29.0898 36.0571 29.0898 36.0571 29.2659 37.1623C29.2882 37.3241 29.2882 37.3241 29.3109 37.4892C29.3335 37.6522 29.3335 37.6522 29.3566 37.8186C29.3678 37.9016 29.3791 37.9847 29.3908 38.0703C29.7896 38.0767 30.1883 38.0813 30.5872 38.0844C30.7225 38.0857 30.8577 38.0874 30.993 38.0897C32.5805 38.1154 33.9656 37.7554 35.1432 36.6373C36.04 35.7372 36.6209 34.4999 36.6198 33.2225C36.62 33.1113 36.6201 33.0001 36.6202 32.8855C36.6199 32.7629 36.6196 32.6402 36.6193 32.5176C36.6192 32.388 36.6193 32.2584 36.6193 32.1288C36.6193 31.7775 36.6188 31.4261 36.6182 31.0748C36.6177 30.7074 36.6176 30.34 36.6175 29.9727C36.6173 29.2772 36.6166 28.5818 36.6157 27.8863C36.6147 27.0945 36.6143 26.3027 36.6138 25.5109C36.6129 23.8822 36.6114 22.2536 36.6095 20.6249C35.1915 20.6249 33.7736 20.6249 32.3126 20.6249C32.3126 21.1638 32.3126 21.7026 32.3126 22.2578C32.4175 22.3128 32.5225 22.3679 32.6305 22.4246C32.9981 22.6176 33.3654 22.8113 33.7327 23.005C33.9214 23.1045 34.1105 23.2034 34.2996 23.3021C34.399 23.3545 34.4983 23.4069 34.6007 23.4609C34.6887 23.507 34.7766 23.553 34.8673 23.6005C35.0626 23.7187 35.0626 23.7187 35.1486 23.8906C35.1579 24.1169 35.1621 24.3409 35.1624 24.5673C35.1628 24.6372 35.1633 24.707 35.1637 24.779C35.165 25.0108 35.1656 25.2426 35.166 25.4744C35.1665 25.6351 35.167 25.7959 35.1675 25.9567C35.1684 26.2941 35.1689 26.6315 35.1692 26.9688C35.1697 27.4014 35.1718 27.8338 35.1742 28.2664C35.1758 28.5986 35.1762 28.9308 35.1764 29.263C35.1766 29.4224 35.1773 29.5819 35.1785 29.7413C35.1799 29.9644 35.1798 30.1873 35.1792 30.4104C35.18 30.4764 35.1808 30.5423 35.1816 30.6103C35.1795 30.8799 35.1647 31.0784 35.0392 31.3195C34.7276 31.5999 34.3668 31.5506 33.964 31.5528C33.9061 31.5533 33.8482 31.5537 33.7885 31.5541C33.5976 31.5554 33.4066 31.556 33.2157 31.5565C33.0825 31.557 32.9494 31.5574 32.8162 31.5579C32.5372 31.5588 32.2582 31.5593 31.9793 31.5596C31.6225 31.5601 31.2657 31.5622 30.9089 31.5646C30.6339 31.5662 30.359 31.5667 30.084 31.5668C29.9525 31.5671 29.821 31.5678 29.6895 31.5689C29.5052 31.5704 29.321 31.5702 29.1367 31.5696C28.9797 31.5701 28.9797 31.5701 28.8195 31.5706C28.4982 31.5354 28.2904 31.449 28.0158 31.2812C27.8816 31.0129 27.9156 30.7272 27.9146 30.4326C27.914 30.3627 27.9135 30.2928 27.9129 30.2208C27.9112 29.9891 27.9102 29.7573 27.9093 29.5255C27.909 29.4465 27.9086 29.3674 27.9083 29.286C27.9065 28.8677 27.9053 28.4494 27.9045 28.031C27.9035 27.5985 27.9006 27.166 27.8971 26.7335C27.8949 26.4013 27.8942 26.0691 27.8939 25.7369C27.8934 25.5775 27.8924 25.418 27.8909 25.2585C27.8888 25.0355 27.8888 24.8126 27.8894 24.5895C27.8883 24.5235 27.8872 24.4575 27.8861 24.3895C27.889 24.0914 27.904 23.9242 28.0881 23.6843C28.3242 23.5093 28.5663 23.382 28.8305 23.2531C28.8832 23.2271 28.9359 23.2011 28.9902 23.1743C29.1575 23.0919 29.3251 23.0105 29.4928 22.9291C29.6613 22.8467 29.8298 22.7641 29.9981 22.6813C30.1501 22.6066 30.3024 22.5325 30.4546 22.4584C30.6681 22.3643 30.6681 22.3643 30.7658 22.2578C30.7658 21.7189 30.7658 21.1801 30.7658 20.6249C26.9372 20.6249 23.1087 20.6249 19.1642 20.6249ZM38.1564 22.0859C38.1564 22.5396 38.1564 22.9934 38.1564 23.4609C38.2869 23.4641 38.4174 23.4673 38.5518 23.4706C38.7244 23.4763 38.8969 23.482 39.0695 23.4877C39.1553 23.4897 39.2412 23.4916 39.3296 23.4936C39.7998 23.5107 40.1592 23.5366 40.5626 23.8046C40.8878 24.165 41.0026 24.3716 41.0075 24.8514C41.0092 24.9908 41.0092 24.9908 41.0109 25.1331C41.0115 25.234 41.0121 25.3348 41.0128 25.4388C41.0135 25.5422 41.0142 25.6457 41.0149 25.7523C41.0161 25.9716 41.017 26.1909 41.0177 26.4102C41.0192 26.7454 41.0229 27.0805 41.0267 27.4157C41.0276 27.6286 41.0283 27.8416 41.0289 28.0545C41.0304 28.1547 41.0319 28.2549 41.0335 28.3581C41.032 28.9014 41.0186 29.2381 40.6486 29.6484C40.1888 30.0752 39.7079 30.0485 39.1124 30.0566C38.9745 30.0604 38.9745 30.0604 38.8338 30.0643C38.608 30.0703 38.3822 30.0744 38.1564 30.0781C38.1564 30.5602 38.1564 31.0423 38.1564 31.539C38.5252 31.546 38.8939 31.5511 39.2628 31.5551C39.3663 31.5573 39.4698 31.5594 39.5764 31.5617C40.3872 31.5683 41.1464 31.4956 41.8057 30.9828C42.2931 30.4979 42.4632 29.9873 42.4685 29.3119C42.469 29.2518 42.4696 29.1917 42.4702 29.1298C42.4719 28.9308 42.4729 28.7318 42.4737 28.5329C42.4741 28.4647 42.4744 28.3966 42.4748 28.3265C42.4766 27.9657 42.4778 27.605 42.4786 27.2442C42.4796 26.8727 42.4825 26.5012 42.4859 26.1297C42.4882 25.8431 42.4889 25.5566 42.4892 25.27C42.4896 25.1331 42.4906 24.9962 42.4922 24.8594C42.5013 24.0288 42.5003 23.3929 41.9249 22.7338C41.8617 22.6795 41.7986 22.6252 41.7335 22.5693C41.6708 22.5137 41.6081 22.4581 41.5435 22.4008C41.1125 22.1037 40.7015 22.0648 40.1873 22.0691C40.1289 22.0693 40.0705 22.0696 40.0104 22.0698C39.8256 22.0708 39.6409 22.0729 39.4562 22.0751C39.3302 22.076 39.2042 22.0768 39.0782 22.0775C38.7709 22.0792 38.4637 22.0826 38.1564 22.0859ZM29.3908 24.664C29.3908 26.4506 29.3908 28.2373 29.3908 30.0781C30.8087 30.0781 32.2267 30.0781 33.6876 30.0781C33.6876 28.2914 33.6876 26.5048 33.6876 24.664C31.5392 23.2915 31.5392 23.2915 29.3908 24.664ZM38.1564 25.0078C38.1564 26.1705 38.1564 27.3332 38.1564 28.5312C38.6101 28.5312 39.0639 28.5312 39.5314 28.5312C39.5314 27.3685 39.5314 26.2057 39.5314 25.0078C39.0776 25.0078 38.6239 25.0078 38.1564 25.0078ZM13.4064 30.3359C13.1988 30.7026 13.2112 31.0749 13.215 31.4849C13.215 31.5562 13.2149 31.6275 13.2149 31.701C13.215 31.9358 13.2164 32.1706 13.2177 32.4054C13.218 32.5686 13.2183 32.7317 13.2185 32.8949C13.2191 33.3237 13.2208 33.7525 13.2227 34.1812C13.2248 34.6961 13.2256 35.2109 13.2266 35.7257C13.2282 36.5072 13.2315 37.2887 13.2345 38.0703C14.6808 38.0703 16.1272 38.0703 17.6173 38.0703C17.6248 36.7845 17.6248 36.7845 17.6299 35.4988C17.6315 34.9743 17.6333 34.4499 17.6368 33.9254C17.6396 33.5024 17.6411 33.0795 17.6418 32.6566C17.6423 32.4954 17.6432 32.3341 17.6446 32.1729C17.6465 31.9468 17.6467 31.7207 17.6466 31.4946C17.6475 31.4282 17.6484 31.3617 17.6494 31.2933C17.6471 30.8822 17.5832 30.5966 17.3595 30.2499C16.8251 29.983 16.2103 30.0492 15.6264 30.0509C15.4321 30.0512 15.238 30.0492 15.0437 30.047C14.9188 30.0468 14.7939 30.0468 14.6689 30.0468C14.5566 30.0466 14.4442 30.0463 14.3284 30.0461C13.9513 30.0837 13.7353 30.1487 13.4064 30.3359ZM9.28139 31.6249C8.91038 31.959 8.91038 31.959 8.84136 32.3863C8.84155 32.4913 8.84174 32.5963 8.84194 32.7044C8.84193 32.7623 8.84192 32.8201 8.8419 32.8797C8.84196 33.0713 8.84263 33.2629 8.84331 33.4545C8.84347 33.5872 8.84359 33.7199 8.84367 33.8526C8.844 34.2021 8.84485 34.5516 8.8458 34.9011C8.84683 35.3204 8.84722 35.7396 8.84773 36.1588C8.84856 36.796 8.85021 37.4331 8.8517 38.0703C9.78756 38.0703 10.7234 38.0703 11.6876 38.0703C11.6876 35.9433 11.6876 33.8163 11.6876 31.6249C10.8936 31.6249 10.0995 31.6249 9.28139 31.6249ZM19.1642 31.6249C19.1642 33.7519 19.1642 35.8788 19.1642 38.0703C20.1001 38.0703 21.0359 38.0703 22.0001 38.0703C22.0076 37.0268 22.0076 37.0268 22.0127 35.9834C22.0143 35.5577 22.0161 35.1321 22.0196 34.7064C22.0224 34.3632 22.0239 34.0199 22.0246 33.6767C22.0251 33.5458 22.026 33.415 22.0274 33.2841C22.0293 33.1006 22.0295 32.9172 22.0294 32.7337C22.03 32.6293 22.0305 32.5249 22.0311 32.4173C21.9972 32.1142 21.9246 31.9531 21.7423 31.7109C20.9732 31.3263 20.0241 31.6249 19.1642 31.6249ZM6.92952 34.0802C6.86835 34.1283 6.80719 34.1765 6.74417 34.2261C6.6775 34.2787 6.61082 34.3314 6.54213 34.3857C5.84096 34.9357 5.12842 35.4683 4.40913 35.9943C4.34779 36.0394 4.28644 36.0845 4.22324 36.1309C4.09819 36.2224 3.97256 36.3131 3.84643 36.4031C3.75474 36.4694 3.75474 36.4694 3.66121 36.5371C3.60677 36.576 3.55234 36.6149 3.49626 36.655C3.24493 36.8744 3.09354 37.1483 3.00795 37.4687C3.00795 37.6672 3.00795 37.8657 3.00795 38.0703C4.42592 38.0703 5.84388 38.0703 7.30482 38.0703C7.30482 36.6806 7.30482 35.291 7.30482 33.8593C7.15089 33.8593 7.04611 33.9878 6.92952 34.0802ZM23.547 33.8593C23.547 35.2489 23.547 36.6385 23.547 38.0703C24.965 38.0703 26.3829 38.0703 27.8439 38.0703C27.8439 37.4762 27.8137 37.2121 27.4303 36.7758C26.8247 36.2395 26.178 35.7665 25.5239 35.2914C25.0346 34.9352 24.5551 34.5666 24.077 34.1954C23.8355 33.9668 23.8355 33.9668 23.547 33.8593ZM1.54701 39.6171C1.39778 41.2761 1.39778 41.2761 1.89076 42.0234C2.31127 42.4038 2.56892 42.4657 3.12135 42.4646C3.18727 42.4648 3.25319 42.465 3.3211 42.4652C3.5443 42.4658 3.7675 42.4657 3.99071 42.4657C4.15142 42.466 4.31213 42.4663 4.47284 42.4667C4.9163 42.4675 5.35975 42.4678 5.80321 42.4681C6.28077 42.4684 6.75833 42.4692 7.23589 42.47C8.39007 42.4717 9.54426 42.4725 10.6984 42.4733C11.2415 42.4737 11.7845 42.4742 12.3276 42.4746C14.132 42.4761 15.9364 42.4773 17.7407 42.4779C17.8575 42.478 17.9742 42.478 18.0909 42.4781C18.1778 42.4781 18.1778 42.4781 18.2663 42.4781C18.5596 42.4782 18.8529 42.4783 19.1462 42.4784C19.2335 42.4785 19.2335 42.4785 19.3226 42.4785C21.2102 42.4792 23.0978 42.4812 24.9853 42.484C26.9802 42.4869 28.9751 42.4886 30.9699 42.4889C32.0577 42.4891 33.1454 42.4898 34.2332 42.492C35.1593 42.4939 36.0855 42.4946 37.0116 42.4938C37.4844 42.4934 37.9572 42.4935 38.4299 42.4952C38.8625 42.4967 39.2951 42.4966 39.7276 42.4953C39.8843 42.4951 40.0411 42.4955 40.1978 42.4965C40.4105 42.4978 40.623 42.497 40.8357 42.4956C40.9274 42.4969 40.9274 42.4969 41.0211 42.4983C41.4508 42.4923 41.6913 42.3762 42.0236 42.1093C42.7586 41.275 42.4533 41.1594 42.4533 39.6171C28.9542 39.6171 15.4551 39.6171 1.54701 39.6171Z" fill="white"/>
<path d="M22.5158 0.945305C22.6048 0.989284 22.6938 1.03326 22.7854 1.07858C24.8153 2.17074 26.2157 4.10497 26.8987 6.27343C27.5539 8.59622 27.2814 11.0492 26.14 13.1719C25.865 13.6578 25.5353 14.093 25.1799 14.5234C25.1273 14.5901 25.0747 14.6568 25.0205 14.7255C23.6957 16.3242 21.6359 17.3524 19.594 17.6172C19.189 17.6441 18.7859 17.6499 18.3801 17.6494C18.271 17.6495 18.1618 17.6495 18.0493 17.6496C17.1821 17.6394 16.2602 17.5831 15.469 17.1875C15.469 17.5845 15.469 17.9816 15.469 18.3906C14.9585 18.3906 14.448 18.3906 13.9221 18.3906C13.9221 17.7384 13.9221 17.0861 13.9221 16.4141C13.7803 16.3573 13.6385 16.3006 13.4924 16.2422C11.482 14.9317 10.1901 12.9386 9.66229 10.6128C9.54183 10.0161 9.50914 9.43791 9.51243 8.83007C9.51291 8.73569 9.5134 8.6413 9.5139 8.54406C9.52477 7.81359 9.59136 7.14979 9.7971 6.44531C9.81371 6.38781 9.83033 6.33032 9.84745 6.27108C10.5168 4.01933 12.0266 2.16629 14.0758 1.01714C16.7156 -0.401438 19.8548 -0.393616 22.5158 0.945305ZM12.8694 3.98534C11.4719 5.63897 10.9385 7.57146 11.0862 9.71093C11.2651 11.3637 12.0722 12.8435 13.2346 14.0078C13.2998 14.0741 13.3651 14.1403 13.4323 14.2085C14.7512 15.4735 16.5745 16.1371 18.3908 16.1562C20.2011 16.0898 21.8422 15.4827 23.2033 14.2656C23.2749 14.2021 23.3465 14.1387 23.4202 14.0733C24.7289 12.8431 25.5504 11.1264 25.6368 9.32992C25.6996 7.17635 25.0758 5.31875 23.581 3.7272C22.5985 2.75433 21.4485 2.07355 20.1096 1.71874C20.0381 1.69947 19.9667 1.68019 19.8931 1.66033C17.3221 1.08374 14.6359 2.0829 12.8694 3.98534Z" fill="white"/>
<path d="M18.3477 2.86816C18.7226 2.93512 18.8448 3.05645 19.0781 3.35156C19.1642 3.60969 19.1745 3.77931 19.1738 4.04886C19.1738 4.13831 19.1738 4.22776 19.1738 4.31992C19.1734 4.41633 19.1729 4.51275 19.1725 4.61209C19.1723 4.71091 19.1722 4.80974 19.1721 4.91156C19.1716 5.22766 19.1705 5.54376 19.1694 5.85986C19.169 6.07398 19.1686 6.2881 19.1683 6.50221C19.1673 7.02752 19.1659 7.55282 19.1641 8.07812C19.2126 8.07698 19.2612 8.07583 19.3113 8.07465C19.8173 8.06324 20.3233 8.05547 20.8294 8.0498C21.0182 8.04721 21.207 8.04369 21.3958 8.03923C21.6674 8.03296 21.9388 8.03004 22.2105 8.02777C22.3369 8.02378 22.3369 8.02378 22.4658 8.01971C23.038 8.01942 23.038 8.01942 23.2677 8.18961C23.4298 8.37693 23.5377 8.53913 23.5791 8.78543C23.5317 9.03295 23.49 9.24031 23.3428 9.44775C23.0607 9.63222 22.8079 9.63655 22.4811 9.63885C22.3387 9.64009 22.3387 9.64009 22.1934 9.64135C22.0908 9.64171 21.9882 9.64208 21.8825 9.64246C21.7244 9.64319 21.7244 9.64319 21.563 9.64394C21.3398 9.64475 21.1166 9.64531 20.8933 9.64564C20.5518 9.64648 20.2102 9.64915 19.8687 9.65185C19.6519 9.65242 19.4352 9.65287 19.2184 9.6532C19.1162 9.65426 19.014 9.65532 18.9086 9.65641C18.7654 9.65603 18.7654 9.65603 18.6193 9.65563C18.5355 9.65594 18.4518 9.65626 18.3655 9.65658C18.0893 9.61909 17.9274 9.52995 17.7031 9.36719C17.5816 9.12419 17.6036 8.91793 17.6006 8.64618C17.5999 8.58985 17.5992 8.53352 17.5985 8.47548C17.5964 8.28876 17.5949 8.10204 17.5937 7.91531C17.5932 7.85154 17.5928 7.78776 17.5923 7.72205C17.59 7.38444 17.5883 7.04684 17.5871 6.70923C17.5857 6.3607 17.5818 6.01224 17.5774 5.66374C17.5746 5.3956 17.5736 5.12748 17.5731 4.85933C17.5725 4.73087 17.5712 4.60242 17.5691 4.47398C17.5664 4.29395 17.5664 4.1141 17.567 3.93405C17.5664 3.83171 17.5657 3.72937 17.5649 3.62393C17.6526 3.16692 17.8963 2.94876 18.3477 2.86816Z" fill="white"/>
<path d="M28.5312 11C29.0701 11 29.6089 11 30.1641 11C30.2208 11.2269 30.2775 11.4537 30.3359 11.6875C30.4616 11.8826 30.4616 11.8826 30.6206 12.0312C31.2817 12.7336 31.611 13.4659 31.625 14.4375C31.5594 15.3005 31.2574 15.9177 30.6689 16.543C30.3272 16.9085 30.2006 17.2208 30.0781 17.7031C29.5677 17.7031 29.0572 17.7031 28.5312 17.7031C28.6603 16.5882 28.9659 15.9844 29.6766 15.1307C29.9928 14.74 29.9545 14.3206 29.9062 13.8359C29.7742 13.5666 29.6222 13.3836 29.4178 13.1669C28.788 12.4856 28.6344 11.9286 28.5312 11Z" fill="white"/>
<path d="M35.9219 11C36.4323 11 36.9428 11 37.4688 11C37.4989 11.1134 37.529 11.2269 37.5601 11.3438C37.6641 11.6594 37.7826 11.8609 38.0112 12.1011C38.6248 12.7498 38.9692 13.5755 38.9529 14.4674C38.8521 15.4593 38.413 16.1077 37.7591 16.8246C37.5874 17.0796 37.5874 17.0796 37.4688 17.7031C36.9583 17.7031 36.4478 17.7031 35.9219 17.7031C35.9219 16.5967 36.2052 16.0831 36.9323 15.2848C37.1669 14.9856 37.2859 14.7223 37.3069 14.3408C37.2422 13.8394 37.0476 13.5372 36.7228 13.1468C36.1451 12.4389 35.9219 11.9269 35.9219 11Z" fill="white"/>
<path d="M32.2266 11C32.737 11 33.2475 11 33.7734 11C33.8133 11.1648 33.8133 11.1648 33.854 11.333C34.0051 11.7964 34.2871 12.0721 34.619 12.4186C35.1805 13.0663 35.2659 13.8153 35.2582 14.6429C35.1934 15.4866 34.736 16.0978 34.187 16.7095C33.9664 17.0214 33.8826 17.3376 33.7734 17.7031C33.263 17.7031 32.7525 17.7031 32.2266 17.7031C32.2547 16.6335 32.6291 15.8742 33.375 15.1112C33.6182 14.8378 33.6316 14.5516 33.6251 14.1948C33.5629 13.7001 33.2865 13.3397 32.957 12.9819C32.4132 12.3832 32.2713 11.7948 32.2266 11Z" fill="white"/>
<path d="M13.9219 25.6094C14.4323 25.6094 14.9428 25.6094 15.4688 25.6094C15.4688 26.1198 15.4688 26.6303 15.4688 27.1562C14.9583 27.1562 14.4478 27.1562 13.9219 27.1562C13.9219 26.6458 13.9219 26.1353 13.9219 25.6094Z" fill="white"/>
<path d="M13.9219 22.6875C14.4323 22.6875 14.9428 22.6875 15.4688 22.6875C15.4688 23.198 15.4688 23.7084 15.4688 24.2344C14.9583 24.2344 14.4478 24.2344 13.9219 24.2344C13.9219 23.7239 13.9219 23.2134 13.9219 22.6875Z" fill="white"/>
<path d="M13.9219 19.7656C14.4323 19.7656 14.9428 19.7656 15.4688 19.7656C15.4688 20.2761 15.4688 20.7866 15.4688 21.3125C14.9583 21.3125 14.4478 21.3125 13.9219 21.3125C13.9219 20.802 13.9219 20.2916 13.9219 19.7656Z" fill="white"/>
</g>
<defs>
<clipPath id="clip0_191_1276">
<rect width="44" height="44" fill="white"/>
</clipPath>
</defs>
</svg>
